<svg width="16" height="16" viewBox="0 0 16 16" fill="none" xmlns="http://www.w3.org/2000/svg">
<mask id="mask0_6015_72585" style="mask-type:alpha" maskUnits="userSpaceOnUse" x="0" y="0" width="16" height="16">
<rect width="16" height="16" fill="#D9D9D9"/>
</mask>
<g mask="url(#mask0_6015_72585)">
<path d="M1.83973 13.502C1.66196 13.502 1.51229 13.4413 1.39075 13.3197C1.26922 13.1982 1.20845 13.0486 1.20845 12.8708V11.7158C1.20845 11.323 1.30969 10.9581 1.51217 10.6212C1.71464 10.2844 2.00459 10.028 2.382 9.85218C3.10423 9.51884 3.81428 9.26544 4.51215 9.09196C5.21002 8.91849 5.92376 8.83176 6.65338 8.83176C6.97931 8.83176 7.33247 8.85316 7.71287 8.89596C8.09326 8.93875 8.45938 9.00459 8.81123 9.09348L7.73975 10.1636C7.55548 10.1397 7.37429 10.1225 7.19617 10.1123C7.01805 10.1021 6.83712 10.097 6.65338 10.097C5.97005 10.097 5.34729 10.1673 4.7851 10.3081C4.2229 10.4488 3.60741 10.6711 2.93863 10.975C2.77909 11.0531 2.66127 11.1627 2.58517 11.3038C2.50906 11.4448 2.471 11.5879 2.471 11.7331V12.2395H7.31933L8.5819 13.502H1.83973ZM10.4889 13.4386C10.406 13.4386 10.3281 13.4244 10.255 13.3958C10.182 13.3672 10.1126 13.3202 10.047 13.2549L8.52597 11.7353C8.41236 11.6216 8.35555 11.486 8.35555 11.3284C8.35555 11.1708 8.41236 11.0352 8.52597 10.9216C8.63958 10.808 8.77518 10.7512 8.93278 10.7512C9.0904 10.7512 9.226 10.808 9.3396 10.9216L10.489 12.071L13.5704 8.98828C13.684 8.87468 13.8196 8.81788 13.9772 8.81788C14.1348 8.81788 14.2705 8.87468 14.3841 8.98828C14.4977 9.10189 14.5545 9.2375 14.5545 9.39511C14.5545 9.55271 14.4977 9.68832 14.3841 9.80193L10.931 13.2549C10.8659 13.3202 10.7967 13.3672 10.7233 13.3958C10.6498 13.4244 10.5717 13.4386 10.4889 13.4386ZM6.65283 7.92064C5.88638 7.92064 5.25033 7.66783 4.74468 7.16219C4.23905 6.65655 3.98623 6.0205 3.98623 5.25404C3.98623 4.48758 4.23905 3.85157 4.74468 3.34601C5.25033 2.84045 5.88638 2.58768 6.65283 2.58768C7.4193 2.58768 8.05598 2.84045 8.56287 3.34601C9.06975 3.85157 9.32318 4.48758 9.32318 5.25404C9.32318 6.0205 9.06975 6.65655 8.56287 7.16219C8.05598 7.66783 7.4193 7.92064 6.65283 7.92064ZM6.6528 6.65809C7.05279 6.65809 7.38698 6.52404 7.65538 6.25594C7.92377 5.98786 8.05797 5.65375 8.05797 5.25364C8.05797 4.8528 7.92397 4.51868 7.65597 4.25129C7.38796 3.98392 7.05396 3.85023 6.65397 3.85023C6.25398 3.85023 5.91978 3.98404 5.65138 4.25166C5.38298 4.51928 5.24878 4.85282 5.24878 5.25228C5.24878 5.65282 5.38279 5.98726 5.6508 6.25559C5.9188 6.52393 6.2528 6.65809 6.6528 6.65809Z" fill="white"/>
</g>
</svg>
