<svg width="16" height="16" viewBox="0 0 16 16" fill="none" xmlns="http://www.w3.org/2000/svg">
<mask id="mask0_6015_72564" style="mask-type:alpha" maskUnits="userSpaceOnUse" x="0" y="0" width="16" height="16">
<rect width="16" height="16" fill="#D9D9D9"/>
</mask>
<g mask="url(#mask0_6015_72564)">
<path d="M0.64444 12.7778V11.6667C0.64444 11.2815 0.743512 10.9306 0.941656 10.6139C1.1398 10.2972 1.4111 10.0593 1.75554 9.89999C2.52592 9.54815 3.24629 9.29167 3.91666 9.13056C4.58702 8.96945 5.27406 8.88889 5.97777 8.88889C6.68147 8.88889 7.36666 8.96945 8.03332 9.13056C8.69999 9.29167 9.41851 9.54815 10.1889 9.89999C10.5333 10.0593 10.8065 10.2972 11.0083 10.6139C11.2102 10.9306 11.3111 11.2815 11.3111 11.6667V12.7778C11.3111 12.9352 11.2579 13.0671 11.1514 13.1736C11.0449 13.2801 10.913 13.3333 10.7555 13.3333H1.19999C1.04258 13.3333 0.910634 13.2801 0.804156 13.1736C0.697679 13.0671 0.64444 12.9352 0.64444 12.7778ZM12.1611 13.3333C12.2389 13.263 12.3018 13.1768 12.35 13.075C12.3981 12.9731 12.4222 12.8648 12.4222 12.75V11.6222C12.4222 10.9926 12.2583 10.4528 11.9305 10.0028C11.6028 9.55278 11.1629 9.18148 10.6111 8.88889C11.3111 8.97037 11.9704 9.09537 12.5889 9.26389C13.2074 9.43241 13.7296 9.62963 14.1555 9.85556C14.5333 10.0704 14.8278 10.3268 15.0389 10.625C15.25 10.9232 15.3555 11.2556 15.3555 11.6222V12.7723C15.3555 12.9352 15.3023 13.0694 15.1958 13.175C15.0893 13.2806 14.9574 13.3333 14.8 13.3333H12.1611ZM5.97777 7.98888C5.24444 7.98888 4.63518 7.74629 4.14999 7.26111C3.6648 6.77592 3.42221 6.16666 3.42221 5.43333C3.42221 4.69999 3.6648 4.09074 4.14999 3.60556C4.63518 3.12037 5.24444 2.87778 5.97777 2.87778C6.71111 2.87778 7.32036 3.12037 7.80554 3.60556C8.29073 4.09074 8.53332 4.69999 8.53332 5.43333C8.53332 6.16666 8.29073 6.77592 7.80554 7.26111C7.32036 7.74629 6.71111 7.98888 5.97777 7.98888ZM12.2 5.43333C12.2 6.16666 11.9574 6.77592 11.4722 7.26111C10.987 7.74629 10.3778 7.98888 9.64442 7.98888C9.5222 7.98888 9.37961 7.97869 9.21664 7.95833C9.05369 7.93796 8.9111 7.90741 8.78887 7.86666C9.06665 7.56296 9.27869 7.2037 9.42497 6.78888C9.57127 6.37407 9.64442 5.92222 9.64442 5.43333C9.64442 4.94444 9.57127 4.49999 9.42497 4.09999C9.27869 3.69999 9.06665 3.33333 8.78887 2.99999C8.92221 2.95926 9.0648 2.92871 9.21664 2.90833C9.3685 2.88796 9.51109 2.87778 9.64442 2.87778C10.3778 2.87778 10.987 3.12037 11.4722 3.60556C11.9574 4.09074 12.2 4.69999 12.2 5.43333ZM1.75554 12.2222H10.2V11.6667C10.2 11.5074 10.1546 11.3556 10.0639 11.2111C9.97315 11.0667 9.85925 10.963 9.72221 10.9C8.98887 10.563 8.33887 10.3287 7.77221 10.1972C7.20554 10.0657 6.6074 9.99999 5.97777 9.99999C5.34814 9.99999 4.74814 10.0657 4.17777 10.1972C3.6074 10.3287 2.95554 10.563 2.22221 10.9C2.08517 10.963 1.97313 11.0667 1.88609 11.2111C1.79906 11.3556 1.75554 11.5074 1.75554 11.6667V12.2222ZM5.97777 6.87778C6.38888 6.87778 6.7324 6.73982 7.00832 6.46389C7.28425 6.18796 7.42221 5.84444 7.42221 5.43333C7.42221 5.02222 7.28425 4.6787 7.00832 4.40278C6.7324 4.12684 6.38888 3.98888 5.97777 3.98888C5.56666 3.98888 5.22314 4.12684 4.94721 4.40278C4.67128 4.6787 4.53332 5.02222 4.53332 5.43333C4.53332 5.84444 4.67128 6.18796 4.94721 6.46389C5.22314 6.73982 5.56666 6.87778 5.97777 6.87778Z" fill="#16A75C"/>
</g>
</svg>
