<svg width="16" height="16" viewBox="0 0 16 16" fill="none" xmlns="http://www.w3.org/2000/svg">
<mask id="mask0_6015_72592" style="mask-type:alpha" maskUnits="userSpaceOnUse" x="0" y="0" width="16" height="16">
<rect width="16" height="16" fill="#D9D9D9"/>
</mask>
<g mask="url(#mask0_6015_72592)">
<path d="M13 7.23805L12.042 8.17937C11.9169 8.29442 11.77 8.35406 11.6013 8.35828C11.4326 8.36252 11.2848 8.30155 11.158 8.17538C11.0328 8.05026 10.9721 7.90225 10.9759 7.73135C10.9796 7.56046 11.0403 7.41246 11.158 7.28733L12.0993 6.33335L11.158 5.39205C11.0328 5.27003 10.9703 5.12306 10.9703 4.95113C10.9703 4.77921 11.0329 4.63017 11.1582 4.504C11.2833 4.37783 11.4311 4.31661 11.6016 4.32032C11.772 4.32402 11.9207 4.38524 12.0476 4.504L13 5.4493L13.9413 4.50642C14.0647 4.38025 14.212 4.3165 14.3832 4.31518C14.5545 4.31385 14.7032 4.37627 14.8294 4.50243C14.9555 4.6286 15.0186 4.77691 15.0186 4.94737C15.0186 5.11783 14.9555 5.26606 14.8294 5.39205L13.888 6.33335L14.8309 7.29132C14.9488 7.41748 15.0095 7.56483 15.0132 7.73335C15.0168 7.90187 14.9555 8.04914 14.8294 8.17515C14.7032 8.30043 14.5553 8.36333 14.3858 8.36385C14.2163 8.36437 14.0681 8.30155 13.9413 8.17538L13 7.23805ZM6.00877 7.93178C5.2423 7.93178 4.60625 7.67896 4.1006 7.17332C3.59497 6.66768 3.34215 6.03163 3.34215 5.26517C3.34215 4.4987 3.59497 3.86269 4.1006 3.35715C4.60625 2.85159 5.2423 2.59882 6.00877 2.59882C6.77522 2.59882 7.4119 2.85159 7.91879 3.35715C8.42566 3.86269 8.6791 4.4987 8.6791 5.26517C8.6791 6.03163 8.42566 6.66768 7.91879 7.17332C7.4119 7.67896 6.77522 7.93178 6.00877 7.93178ZM0.564369 12.2395V11.7158C0.564369 11.3095 0.667608 10.9398 0.874086 10.6069C1.08056 10.2739 1.36851 10.0224 1.73792 9.8522C2.52931 9.49028 3.26412 9.22973 3.94235 9.07055C4.62059 8.91137 5.30912 8.83178 6.00797 8.83178C6.71191 8.83178 7.40165 8.91115 8.07717 9.06988C8.75269 9.22863 9.48438 9.48896 10.2722 9.85087C10.6416 10.0263 10.9314 10.2785 11.1416 10.6076C11.3518 10.9366 11.4569 11.3061 11.4569 11.7158V12.2395C11.4569 12.5894 11.3341 12.8873 11.0887 13.1332C10.8432 13.3791 10.5442 13.5021 10.1917 13.5021H1.82694C1.47701 13.5021 1.17911 13.3791 0.933219 13.1332C0.68733 12.8873 0.564369 12.5894 0.564369 12.2395ZM1.82694 12.2395H10.1917V11.7331C10.1917 11.5758 10.1481 11.4276 10.0609 11.2884C9.97375 11.1492 9.85784 11.0449 9.71317 10.9754C9.00189 10.6401 8.36602 10.4098 7.80555 10.2847C7.24509 10.1596 6.64589 10.097 6.00797 10.097C5.37536 10.097 4.77564 10.1596 4.20882 10.2847C3.642 10.4098 3.00397 10.64 2.29474 10.9753C2.14954 11.0448 2.03527 11.1491 1.95194 11.2883C1.8686 11.4275 1.82694 11.5758 1.82694 11.7331V12.2395ZM6.00917 6.66922C6.41062 6.66922 6.74511 6.53517 7.01262 6.26708C7.28013 5.99898 7.41389 5.66488 7.41389 5.26477C7.41389 4.86392 7.28018 4.52981 7.01277 4.26243C6.74535 3.99505 6.41135 3.86137 6.01077 3.86137C5.61019 3.86137 5.2757 3.99518 5.0073 4.2628C4.7389 4.53042 4.6047 4.86395 4.6047 5.2634C4.6047 5.66395 4.73875 5.9984 5.00685 6.26673C5.27494 6.53505 5.60905 6.66922 6.00917 6.66922Z" fill="white"/>
</g>
</svg>
