<svg width="16" height="16" viewBox="0 0 16 16" fill="none" xmlns="http://www.w3.org/2000/svg">
<mask id="mask0_6015_72578" style="mask-type:alpha" maskUnits="userSpaceOnUse" x="0" y="0" width="16" height="16">
<rect width="16" height="16" fill="#D9D9D9"/>
</mask>
<g mask="url(#mask0_6015_72578)">
<path d="M8 10.5815C8.18517 10.5815 8.33965 10.5191 8.46345 10.3941C8.58725 10.2692 8.64915 10.1144 8.64915 9.9297C8.64915 9.74578 8.58725 9.59161 8.46345 9.46719C8.33965 9.34276 8.18517 9.28055 8 9.28055C7.81484 9.28055 7.66035 9.34289 7.53655 9.46757C7.41275 9.59223 7.35085 9.74672 7.35085 9.93102C7.35085 10.1153 7.41275 10.2698 7.53655 10.3945C7.66035 10.5192 7.81484 10.5815 8 10.5815ZM8.00195 8.1785C8.16894 8.1785 8.30739 8.1231 8.41729 8.01228C8.52717 7.90146 8.58212 7.76305 8.58212 7.59705V5.27378C8.58212 5.10885 8.52653 4.9706 8.41534 4.85903C8.30414 4.74746 8.16504 4.69167 7.99805 4.69167C7.83106 4.69167 7.69262 4.74746 7.58272 4.85903C7.47283 4.9706 7.41789 5.10885 7.41789 5.27378V7.59705C7.41789 7.76305 7.47348 7.90146 7.58467 8.01228C7.69587 8.1231 7.83496 8.1785 8.00195 8.1785ZM8 14.7063C7.9267 14.7063 7.85763 14.7001 7.79277 14.6876C7.7279 14.6752 7.66393 14.6565 7.60085 14.6317C6.05616 14.1151 4.82903 13.1688 3.91945 11.793C3.00986 10.4171 2.55507 8.92648 2.55507 7.32103V4.125C2.55507 3.85699 2.63061 3.61516 2.7817 3.39952C2.93279 3.18388 3.13076 3.02885 3.3756 2.93442L7.55797 1.37125C7.70636 1.31691 7.8537 1.28973 8 1.28973C8.1463 1.28973 8.29365 1.31691 8.44204 1.37125L12.6244 2.93442C12.8692 3.02885 13.0677 3.18388 13.2196 3.39952C13.3716 3.61516 13.4476 3.85699 13.4476 4.125V7.32103C13.4476 8.92648 12.9924 10.4171 12.0819 11.793C11.1714 13.1688 9.94384 14.1151 8.39915 14.6317C8.33607 14.6565 8.2721 14.6752 8.20724 14.6876C8.14238 14.7001 8.0733 14.7063 8 14.7063ZM8 13.4641C9.22198 13.0463 10.2245 12.2699 11.0077 11.135C11.7908 10.0002 12.1824 8.7297 12.1824 7.32362V4.125L8 2.55072L3.81764 4.12692V7.32177C3.81764 8.72908 4.2092 10.0002 4.99234 11.135C5.77547 12.2699 6.77802 13.0463 8 13.4641Z" fill="white"/>
</g>
</svg>
