<svg width="20" height="20" viewBox="0 0 20 20" fill="none" xmlns="http://www.w3.org/2000/svg">
<path d="M4.16667 18.3333C3.70833 18.3333 3.31583 18.17 2.98917 17.8433C2.6625 17.5166 2.49945 17.1244 2.5 16.6666V5.83329C2.5 5.59718 2.58 5.39913 2.74 5.23913C2.9 5.07913 3.09778 4.99941 3.33333 4.99996C3.56945 4.99996 3.7675 5.07996 3.9275 5.23996C4.0875 5.39996 4.16722 5.59774 4.16667 5.83329V16.6666H12.5C12.7361 16.6666 12.9342 16.7466 13.0942 16.9066C13.2542 17.0666 13.3339 17.2644 13.3333 17.5C13.3333 17.7361 13.2533 17.9341 13.0933 18.0941C12.9333 18.2541 12.7356 18.3339 12.5 18.3333H4.16667ZM7.5 15C7.04167 15 6.64917 14.8366 6.3225 14.51C5.99583 14.1833 5.83278 13.7911 5.83333 13.3333V3.33329C5.83333 2.87496 5.99667 2.48246 6.32333 2.15579C6.65 1.82913 7.04222 1.66607 7.5 1.66663H15C15.4583 1.66663 15.8508 1.82996 16.1775 2.15663C16.5042 2.48329 16.6672 2.87552 16.6667 3.33329V13.3333C16.6667 13.7916 16.5033 14.1841 16.1767 14.5108C15.85 14.8375 15.4578 15.0005 15 15H7.5ZM7.5 13.3333H15V3.33329H7.5V13.3333Z" fill="#16A75C"/>
</svg>
