<svg width="20" height="20" viewBox="0 0 20 20" fill="none" xmlns="http://www.w3.org/2000/svg">
<g id=".Misc">
<path id="Vector" d="M9.99992 11.1666L5.91659 15.2499C5.76381 15.4027 5.56936 15.4791 5.33325 15.4791C5.09714 15.4791 4.9027 15.4027 4.74992 15.2499C4.59714 15.0971 4.52075 14.9027 4.52075 14.6666C4.52075 14.4305 4.59714 14.236 4.74992 14.0833L8.83325 9.99992L4.74992 5.91659C4.59714 5.76381 4.52075 5.56936 4.52075 5.33325C4.52075 5.09714 4.59714 4.9027 4.74992 4.74992C4.9027 4.59714 5.09714 4.52075 5.33325 4.52075C5.56936 4.52075 5.76381 4.59714 5.91659 4.74992L9.99992 8.83325L14.0833 4.74992C14.236 4.59714 14.4305 4.52075 14.6666 4.52075C14.9027 4.52075 15.0971 4.59714 15.2499 4.74992C15.4027 4.9027 15.4791 5.09714 15.4791 5.33325C15.4791 5.56936 15.4027 5.76381 15.2499 5.91659L11.1666 9.99992L15.2499 14.0833C15.4027 14.236 15.4791 14.4305 15.4791 14.6666C15.4791 14.9027 15.4027 15.0971 15.2499 15.2499C15.0971 15.4027 14.9027 15.4791 14.6666 15.4791C14.4305 15.4791 14.236 15.4027 14.0833 15.2499L9.99992 11.1666Z" fill="#757575"/>
</g>
</svg>
