<svg width="20" height="21" viewBox="0 0 20 21" fill="none" xmlns="http://www.w3.org/2000/svg">
<mask id="mask0_4310_58743" style="mask-type:alpha" maskUnits="userSpaceOnUse" x="0" y="0" width="20" height="21">
<rect y="0.5" width="20" height="20" fill="#D9D9D9"/>
</mask>
<g mask="url(#mask0_4310_58743)">
<path d="M9.99583 13.1875C9.89583 13.1875 9.80208 13.1701 9.71458 13.1354C9.62708 13.1007 9.54861 13.0486 9.47917 12.9792L6.52083 10.0208C6.36806 9.86932 6.29514 9.69255 6.30208 9.49052C6.30903 9.28851 6.38557 9.11111 6.53171 8.95833C6.69113 8.80556 6.87153 8.72917 7.07292 8.72917C7.27431 8.72917 7.45139 8.80556 7.60417 8.95833L9.25 10.625V4.25C9.25 4.0375 9.32145 3.85937 9.46435 3.71562C9.60727 3.57187 9.78435 3.5 9.9956 3.5C10.2069 3.5 10.3854 3.57187 10.5312 3.71562C10.6771 3.85937 10.75 4.0375 10.75 4.25V10.625L12.4167 8.95833C12.5648 8.80556 12.7407 8.73264 12.9444 8.73958C13.1481 8.74653 13.3297 8.82639 13.4891 8.97917C13.6353 9.13194 13.7083 9.30903 13.7083 9.51042C13.7083 9.71181 13.6319 9.88889 13.4792 10.0417L10.5208 12.9792C10.4458 13.0486 10.3646 13.1007 10.2771 13.1354C10.1896 13.1701 10.0958 13.1875 9.99583 13.1875ZM5.4941 16.5C5.08137 16.5 4.72917 16.3531 4.4375 16.0594C4.14583 15.7656 4 15.4125 4 15V14.25C4 14.0375 4.07145 13.8594 4.21435 13.7156C4.35727 13.5719 4.53435 13.5 4.7456 13.5C4.95687 13.5 5.13542 13.5719 5.28125 13.7156C5.42708 13.8594 5.5 14.0375 5.5 14.25V15H14.5V14.25C14.5 14.0375 14.5715 13.8594 14.7144 13.7156C14.8573 13.5719 15.0344 13.5 15.2456 13.5C15.4569 13.5 15.6354 13.5719 15.7812 13.7156C15.9271 13.8594 16 14.0375 16 14.25V15C16 15.4125 15.853 15.7656 15.5591 16.0594C15.2652 16.3531 14.9119 16.5 14.4992 16.5H5.4941Z" fill="#069550"/>
</g>
</svg>
