<svg width="14" height="12" viewBox="0 0 14 12" fill="none" xmlns="http://www.w3.org/2000/svg">
<path d="M2.67998 0.879997H11.32C11.8513 0.879962 12.3624 1.08323 12.7486 1.44811C13.1348 1.81298 13.3667 2.3118 13.3968 2.84224L13.4 2.96V9.04C13.4 9.57129 13.1967 10.0825 12.8319 10.4686C12.467 10.8548 11.9682 11.0867 11.4377 11.1168L11.32 11.12H2.67998C2.14869 11.12 1.63753 10.9168 1.25135 10.5519C0.865171 10.187 0.633255 9.6882 0.603176 9.15776L0.599976 9.04V2.96C0.599941 2.42871 0.80321 1.91755 1.16809 1.53137C1.53296 1.14519 2.03178 0.913276 2.56222 0.883197L2.67998 0.879997ZM12.44 4.31872L7.22398 7.06432C7.16508 7.09543 7.10036 7.11395 7.03392 7.11869C6.96748 7.12342 6.90078 7.11428 6.83806 7.09184L6.77662 7.06496L1.55998 4.31936V9.04C1.55999 9.32108 1.66569 9.59189 1.85609 9.79865C2.0465 10.0054 2.30769 10.133 2.58782 10.1562L2.67998 10.16H11.32C11.6012 10.16 11.8721 10.0542 12.0788 9.86365C12.2856 9.67311 12.4132 9.41177 12.4361 9.13152L12.44 9.04V4.31872ZM11.32 1.84H2.67998C2.3989 1.84001 2.12809 1.94571 1.92133 2.13611C1.71456 2.32652 1.58695 2.58771 1.56382 2.86784L1.55998 2.96V3.23456L6.99998 6.09728L12.44 3.23392V2.96C12.44 2.67882 12.3342 2.40793 12.1436 2.20114C11.9531 1.99436 11.6917 1.86681 11.4115 1.84384L11.32 1.84Z" fill="#616161"/>
</svg>
