<svg width="20" height="20" viewBox="0 0 20 20" fill="none" xmlns="http://www.w3.org/2000/svg">
<path d="M8.09676 3.74694C7.88997 3.19549 7.10995 3.19549 6.90316 3.74694L5.68954 6.98326C5.6249 7.15563 5.4889 7.29163 5.31654 7.35626L2.08021 8.56989C1.52876 8.77668 1.52877 9.5567 2.08021 9.76349L5.31654 10.9771C5.4889 11.0417 5.6249 11.1777 5.68954 11.3501L6.90316 14.5864C7.10995 15.1379 7.88997 15.1379 8.09676 14.5864L9.31038 11.3501C9.37502 11.1777 9.51102 11.0417 9.68338 10.9771L12.9197 9.76349C13.4712 9.5567 13.4712 8.77668 12.9197 8.56989L9.68338 7.35626C9.51102 7.29163 9.37502 7.15563 9.31038 6.98326L8.09676 3.74694Z" fill="#FFA600"/>
<path d="M14.5077 11.903C14.3895 11.5879 13.9438 11.5879 13.8256 11.903L13.1321 13.7523C13.0952 13.8508 13.0174 13.9286 12.919 13.9655L11.0696 14.659C10.7545 14.7772 10.7545 15.2229 11.0696 15.341L12.919 16.0345C13.0174 16.0715 13.0952 16.1492 13.1321 16.2477L13.8256 18.097C13.9438 18.4121 14.3895 18.4121 14.5077 18.097L15.2012 16.2477C15.2381 16.1492 15.3158 16.0715 15.4143 16.0345L17.2636 15.341C17.5787 15.2229 17.5787 14.7772 17.2636 14.659L15.4143 13.9655C15.3158 13.9286 15.2381 13.8508 15.2012 13.7523L14.5077 11.903Z" fill="#FFA600"/>
<path d="M16.4631 1.8144C16.3892 1.61745 16.1107 1.61745 16.0368 1.8144L15.6034 2.97023C15.5803 3.03178 15.5317 3.08036 15.4702 3.10344L14.3143 3.53688C14.1174 3.61073 14.1174 3.88931 14.3143 3.96316L15.4702 4.3966C15.5317 4.41968 15.5803 4.46826 15.6034 4.52981L16.0368 5.68565C16.1107 5.88259 16.3892 5.88259 16.4631 5.68565L16.8965 4.52981C16.9196 4.46826 16.9682 4.41968 17.0298 4.3966L18.1856 3.96316C18.3825 3.88931 18.3825 3.61073 18.1856 3.53688L17.0298 3.10344C16.9682 3.08036 16.9196 3.03178 16.8965 2.97023L16.4631 1.8144Z" fill="#FFA600"/>
</svg>
