<svg width="28" height="28" viewBox="0 0 28 28" fill="none" xmlns="http://www.w3.org/2000/svg">
<rect width="28" height="28" rx="14" fill="#008444"/>
<path d="M14.3 21.2C12.88 21.2 11.675 20.705 10.685 19.715C9.69501 18.725 9.20001 17.52 9.20001 16.1V11C9.20001 10.58 9.34501 10.225 9.63501 9.935C9.92501 9.645 10.28 9.5 10.7 9.5C10.75 9.5 10.8 9.5024 10.85 9.5072C10.9 9.5124 10.95 9.52 11 9.53V9.2C11 8.78 11.145 8.425 11.435 8.135C11.725 7.845 12.08 7.7 12.5 7.7C12.57 7.7 12.6376 7.705 12.7028 7.715C12.7676 7.725 12.835 7.74 12.905 7.76C13.015 7.47 13.195 7.2376 13.445 7.0628C13.695 6.8876 13.98 6.8 14.3 6.8C14.67 6.8 14.9926 6.9174 15.2678 7.1522C15.5426 7.3874 15.71 7.68 15.77 8.03C15.82 8.02 15.8726 8.0124 15.9278 8.0072C15.9826 8.0024 16.04 8 16.1 8C16.52 8 16.875 8.145 17.165 8.435C17.455 8.725 17.6 9.08 17.6 9.5V11.63C17.65 11.62 17.7 11.6124 17.75 11.6072C17.8 11.6024 17.85 11.6 17.9 11.6C18.32 11.6 18.675 11.745 18.965 12.035C19.255 12.325 19.4 12.68 19.4 13.1V16.1C19.4 17.52 18.905 18.725 17.915 19.715C16.925 20.705 15.72 21.2 14.3 21.2ZM14.3 20C14.84 20 15.3476 19.8976 15.8228 19.6928C16.2976 19.4876 16.71 19.21 17.06 18.86C17.41 18.51 17.6876 18.0976 17.8928 17.6228C18.0976 17.1476 18.2 16.64 18.2 16.1V13.1C18.2 13.02 18.17 12.95 18.11 12.89C18.05 12.83 17.98 12.8 17.9 12.8C17.82 12.8 17.75 12.83 17.69 12.89C17.63 12.95 17.6 13.02 17.6 13.1V14.855C17.6 15.105 17.54 15.3224 17.42 15.5072C17.3 15.6924 17.105 15.85 16.835 15.98C16.605 16.09 16.4076 16.24 16.2428 16.43C16.0776 16.62 15.955 16.835 15.875 17.075C15.825 17.235 15.7426 17.3624 15.6278 17.4572C15.5126 17.5524 15.385 17.6 15.245 17.6C15.055 17.6 14.9024 17.535 14.7872 17.405C14.6724 17.275 14.635 17.125 14.675 16.955C14.785 16.475 14.99 16.0524 15.29 15.6872C15.59 15.3224 15.96 15.045 16.4 14.855V9.5C16.4 9.42 16.37 9.35 16.31 9.29C16.25 9.23 16.18 9.2 16.1 9.2C16.02 9.2 15.95 9.23 15.89 9.29C15.83 9.35 15.8 9.42 15.8 9.5V12.8C15.8 12.97 15.7426 13.1124 15.6278 13.2272C15.5126 13.3424 15.37 13.4 15.2 13.4C15.03 13.4 14.8876 13.3424 14.7728 13.2272C14.6576 13.1124 14.6 12.97 14.6 12.8V8.3C14.6 8.22 14.57 8.15 14.51 8.09C14.45 8.03 14.38 8 14.3 8C14.22 8 14.15 8.03 14.09 8.09C14.03 8.15 14 8.22 14 8.3V12.8C14 12.97 13.9426 13.1124 13.8278 13.2272C13.7126 13.3424 13.57 13.4 13.4 13.4C13.23 13.4 13.0876 13.3424 12.9728 13.2272C12.8576 13.1124 12.8 12.97 12.8 12.8V9.2C12.8 9.12 12.77 9.05 12.71 8.99C12.65 8.93 12.58 8.9 12.5 8.9C12.42 8.9 12.35 8.93 12.29 8.99C12.23 9.05 12.2 9.12 12.2 9.2V13.4C12.2 13.57 12.1426 13.7124 12.0278 13.8272C11.9126 13.9424 11.77 14 11.6 14C11.43 14 11.2874 13.9424 11.1722 13.8272C11.0574 13.7124 11 13.57 11 13.4V11C11 10.92 10.97 10.85 10.91 10.79C10.85 10.73 10.78 10.7 10.7 10.7C10.62 10.7 10.55 10.73 10.49 10.79C10.43 10.85 10.4 10.92 10.4 11V16.1C10.4 16.64 10.5026 17.1476 10.7078 17.6228C10.9126 18.0976 11.19 18.51 11.54 18.86C11.89 19.21 12.3026 19.4876 12.7778 19.6928C13.2526 19.8976 13.76 20 14.3 20Z" fill="white"/>
</svg>
