<svg width="28" height="28" viewBox="0 0 28 28" fill="none" xmlns="http://www.w3.org/2000/svg">
<rect width="28" height="28" rx="14" fill="#008444"/>
<path d="M17.3333 20.6667C16.4111 20.6667 15.6251 20.3418 14.9753 19.692C14.3251 19.0418 14 18.2556 14 17.3333C14 16.4111 14.3251 15.6249 14.9753 14.9747C15.6251 14.3249 16.4111 14 17.3333 14C18.2556 14 19.0418 14.3249 19.692 14.9747C20.3418 15.6249 20.6667 16.4111 20.6667 17.3333C20.6667 18.2556 20.3418 19.0418 19.692 19.692C19.0418 20.3418 18.2556 20.6667 17.3333 20.6667ZM18.2167 18.6833C18.2833 18.75 18.3611 18.7833 18.45 18.7833C18.5389 18.7833 18.6167 18.75 18.6833 18.6833C18.75 18.6167 18.7833 18.5389 18.7833 18.45C18.7833 18.3611 18.75 18.2833 18.6833 18.2167L17.6667 17.2V15.6667C17.6667 15.5778 17.6333 15.5 17.5667 15.4333C17.5 15.3667 17.4222 15.3333 17.3333 15.3333C17.2444 15.3333 17.1667 15.3667 17.1 15.4333C17.0333 15.5 17 15.5778 17 15.6667V17.1833C17 17.2722 17.0167 17.3584 17.05 17.442C17.0833 17.5251 17.1333 17.6 17.2 17.6667L18.2167 18.6833ZM9.33333 20C8.96667 20 8.65267 19.8696 8.39133 19.6087C8.13044 19.3473 8 19.0333 8 18.6667V9.33333C8 8.96667 8.13044 8.65267 8.39133 8.39133C8.65267 8.13044 8.96667 8 9.33333 8H12.1167C12.2389 7.61111 12.4778 7.29155 12.8333 7.04133C13.1889 6.79155 13.5778 6.66667 14 6.66667C14.4444 6.66667 14.8418 6.79155 15.192 7.04133C15.5418 7.29155 15.7778 7.61111 15.9 8H18.6667C19.0333 8 19.3473 8.13044 19.6087 8.39133C19.8696 8.65267 20 8.96667 20 9.33333V13.5C19.8 13.3556 19.5889 13.2333 19.3667 13.1333C19.1444 13.0333 18.9111 12.9444 18.6667 12.8667V9.33333H17.3333V10C17.3333 10.3667 17.2029 10.6804 16.942 10.9413C16.6807 11.2027 16.3667 11.3333 16 11.3333H12C11.6333 11.3333 11.3196 11.2027 11.0587 10.9413C10.7973 10.6804 10.6667 10.3667 10.6667 10V9.33333H9.33333V18.6667H12.8667C12.9444 18.9111 13.0333 19.1444 13.1333 19.3667C13.2333 19.5889 13.3556 19.8 13.5 20H9.33333ZM14 9.33333C14.1889 9.33333 14.3473 9.26933 14.4753 9.14133C14.6029 9.01378 14.6667 8.85556 14.6667 8.66667C14.6667 8.47778 14.6029 8.31933 14.4753 8.19133C14.3473 8.06378 14.1889 8 14 8C13.8111 8 13.6529 8.06378 13.5253 8.19133C13.3973 8.31933 13.3333 8.47778 13.3333 8.66667C13.3333 8.85556 13.3973 9.01378 13.5253 9.14133C13.6529 9.26933 13.8111 9.33333 14 9.33333Z" fill="white"/>
</svg>
