<svg width="28" height="28" viewBox="0 0 28 28" fill="none" xmlns="http://www.w3.org/2000/svg">
<rect width="28" height="28" rx="14" fill="#008444"/>
<path d="M13.3333 20H9.33333C8.96667 20 8.65267 19.8696 8.39133 19.6087C8.13044 19.3473 8 19.0333 8 18.6667V9.33333C8 8.96667 8.13044 8.65267 8.39133 8.39133C8.65267 8.13044 8.96667 8 9.33333 8H12.1167C12.2389 7.61111 12.4778 7.29155 12.8333 7.04133C13.1889 6.79155 13.5778 6.66667 14 6.66667C14.4444 6.66667 14.8418 6.79155 15.192 7.04133C15.5418 7.29155 15.7778 7.61111 15.9 8H18.6667C19.0333 8 19.3473 8.13044 19.6087 8.39133C19.8696 8.65267 20 8.96667 20 9.33333V12.6667H18.6667V9.33333H17.3333V10C17.3333 10.3667 17.2029 10.6804 16.942 10.9413C16.6807 11.2027 16.3667 11.3333 16 11.3333H12C11.6333 11.3333 11.3196 11.2027 11.0587 10.9413C10.7973 10.6804 10.6667 10.3667 10.6667 10V9.33333H9.33333V18.6667H13.3333V20ZM16.3333 17.4167L19.6333 14.1167C19.7556 13.9944 19.9111 13.9333 20.1 13.9333C20.2889 13.9333 20.4444 13.9944 20.5667 14.1167C20.6889 14.2389 20.75 14.3944 20.75 14.5833C20.75 14.7722 20.6889 14.9278 20.5667 15.05L16.8 18.8167C16.6667 18.95 16.5111 19.0167 16.3333 19.0167C16.1556 19.0167 16 18.95 15.8667 18.8167L13.9667 16.9167C13.8444 16.7944 13.7833 16.6389 13.7833 16.45C13.7833 16.2611 13.8444 16.1056 13.9667 15.9833C14.0889 15.8611 14.2444 15.8 14.4333 15.8C14.6222 15.8 14.7778 15.8611 14.9 15.9833L16.3333 17.4167ZM14 9.33333C14.1889 9.33333 14.3473 9.26933 14.4753 9.14133C14.6029 9.01378 14.6667 8.85555 14.6667 8.66667C14.6667 8.47778 14.6029 8.31933 14.4753 8.19133C14.3473 8.06378 14.1889 8 14 8C13.8111 8 13.6529 8.06378 13.5253 8.19133C13.3973 8.31933 13.3333 8.47778 13.3333 8.66667C13.3333 8.85555 13.3973 9.01378 13.5253 9.14133C13.6529 9.26933 13.8111 9.33333 14 9.33333Z" fill="white"/>
</svg>
