<svg width="25" height="33" viewBox="0 0 25 33" fill="none" xmlns="http://www.w3.org/2000/svg">
<g clip-path="url(#clip0_4287_57703)">
<path d="M0 4.51889C0 2.29932 1.79932 0.5 4.01889 0.5H16.7207L24.458 9.20332V28.4811C24.458 30.7007 22.6587 32.5 20.4392 32.5H4.01888C1.79931 32.5 0 30.7007 0 28.4811V4.51889Z" fill="#1E88E5"/>
<path d="M5.84886 21.5H3.64453V15.5364H5.84595C6.45357 15.5364 6.97675 15.6558 7.41548 15.8945C7.85616 16.1314 8.19588 16.473 8.43466 16.9195C8.67344 17.3641 8.79283 17.896 8.79283 18.5153C8.79283 19.1365 8.67344 19.6703 8.43466 20.1168C8.19782 20.5633 7.85907 20.906 7.41839 21.1447C6.97772 21.3816 6.45455 21.5 5.84886 21.5ZM5.08594 20.2712H5.79354C6.12744 20.2712 6.4099 20.2149 6.64091 20.1023C6.87386 19.9877 7.04955 19.8023 7.16797 19.5461C7.28833 19.2879 7.34851 18.9443 7.34851 18.5153C7.34851 18.0862 7.28833 17.7446 7.16797 17.4903C7.04761 17.234 6.86998 17.0496 6.63509 16.937C6.40213 16.8225 6.11482 16.7652 5.77315 16.7652H5.08594V20.2712Z" fill="white"/>
<path d="M15.2631 18.5182C15.2631 19.1743 15.137 19.7305 14.8846 20.1867C14.6322 20.6429 14.2906 20.9894 13.8596 21.2263C13.4306 21.4631 12.9491 21.5815 12.4153 21.5815C11.8795 21.5815 11.3971 21.4621 10.968 21.2234C10.539 20.9846 10.1983 20.6381 9.94595 20.1838C9.69553 19.7276 9.57031 19.1724 9.57031 18.5182C9.57031 17.862 9.69553 17.3058 9.94595 16.8496C10.1983 16.3934 10.539 16.0469 10.968 15.8101C11.3971 15.5732 11.8795 15.4548 12.4153 15.4548C12.9491 15.4548 13.4306 15.5732 13.8596 15.8101C14.2906 16.0469 14.6322 16.3934 14.8846 16.8496C15.137 17.3058 15.2631 17.862 15.2631 18.5182ZM13.7897 18.5182C13.7897 18.1299 13.7344 17.8018 13.6237 17.5339C13.515 17.2661 13.3578 17.0632 13.152 16.9254C12.9482 16.7875 12.7026 16.7186 12.4153 16.7186C12.1299 16.7186 11.8843 16.7875 11.6786 16.9254C11.4728 17.0632 11.3146 17.2661 11.2039 17.5339C11.0952 17.8018 11.0408 18.1299 11.0408 18.5182C11.0408 18.9064 11.0952 19.2345 11.2039 19.5024C11.3146 19.7703 11.4728 19.9732 11.6786 20.111C11.8843 20.2488 12.1299 20.3178 12.4153 20.3178C12.7026 20.3178 12.9482 20.2488 13.152 20.111C13.3578 19.9732 13.515 19.7703 13.6237 19.5024C13.7344 19.2345 13.7897 18.9064 13.7897 18.5182Z" fill="white"/>
<path d="M21.518 17.697H20.062C20.0426 17.5475 20.0028 17.4126 19.9426 17.2923C19.8824 17.1719 19.8028 17.069 19.7038 16.9836C19.6048 16.8982 19.4874 16.8331 19.3515 16.7885C19.2175 16.7419 19.069 16.7186 18.906 16.7186C18.6167 16.7186 18.3673 16.7895 18.1576 16.9312C17.9499 17.0729 17.7897 17.2777 17.6771 17.5456C17.5665 17.8135 17.5112 18.1377 17.5112 18.5182C17.5112 18.9142 17.5674 19.2462 17.68 19.5141C17.7946 19.78 17.9547 19.9809 18.1605 20.1168C18.3682 20.2508 18.6138 20.3178 18.8972 20.3178C19.0564 20.3178 19.201 20.2974 19.3311 20.2566C19.4631 20.2158 19.5786 20.1566 19.6776 20.079C19.7786 19.9994 19.8611 19.9033 19.9251 19.7907C19.9911 19.6762 20.0368 19.5471 20.062 19.4034L21.518 19.4121C21.4927 19.6762 21.416 19.9363 21.2879 20.1925C21.1617 20.4488 20.988 20.6827 20.7667 20.8943C20.5454 21.104 20.2755 21.2709 19.9572 21.3952C19.6407 21.5194 19.2777 21.5815 18.8681 21.5815C18.3284 21.5815 17.8451 21.4631 17.418 21.2263C16.9928 20.9875 16.657 20.64 16.4104 20.1838C16.1639 19.7276 16.0406 19.1724 16.0406 18.5182C16.0406 17.862 16.1658 17.3058 16.4163 16.8496C16.6667 16.3934 17.0054 16.0469 17.4325 15.8101C17.8596 15.5732 18.3381 15.4548 18.8681 15.4548C19.2292 15.4548 19.5631 15.5053 19.8698 15.6063C20.1765 15.7053 20.4464 15.8509 20.6793 16.043C20.9123 16.2333 21.1016 16.4672 21.2472 16.7448C21.3928 17.0224 21.483 17.3398 21.518 17.697Z" fill="white"/>
<path d="M16.6953 0.500017L24.4584 9.20793H17.9966C17.2779 9.20793 16.6953 8.62532 16.6953 7.90662V0.500017Z" fill="#64B5F6"/>
</g>
<defs>
<clipPath id="clip0_4287_57703">
<rect width="24.4581" height="32" fill="white" transform="translate(0 0.5)"/>
</clipPath>
</defs>
</svg>
