<svg width="25" height="33" viewBox="0 0 25 33" fill="none" xmlns="http://www.w3.org/2000/svg">
<g id=".File Type" clip-path="url(#clip0_11066_134192)">
<path id="Rectangle 67" d="M0 4.51889C0 2.29932 1.79932 0.5 4.01889 0.5H16.7207L24.458 9.20332V28.4811C24.458 30.7007 22.6587 32.5 20.4392 32.5H4.01888C1.79931 32.5 0 30.7007 0 28.4811V4.51889Z" fill="#FF9500"/>
<path id="Rectangle 68" d="M16.6953 0.500015L24.4584 9.20793H17.9966C17.2779 9.20793 16.6953 8.62531 16.6953 7.90662V0.500015Z" fill="#FFC470"/>
<g id="Union">
<path fill-rule="evenodd" clip-rule="evenodd" d="M4.25 15.3909V21.5H5.72656V19.6028H6.72884C7.19616 19.6028 7.59986 19.5163 7.93991 19.3433C8.27997 19.1703 8.54148 18.9267 8.72443 18.6125C8.90937 18.2963 9.00185 17.9274 9.00185 17.5058C9.00185 17.0862 8.91136 16.7183 8.7304 16.4021C8.54943 16.0839 8.2919 15.8364 7.95781 15.6594C7.62571 15.4804 7.23097 15.3909 6.77358 15.3909H4.25ZM5.72656 18.4395H6.4544C6.67713 18.4395 6.86307 18.4007 7.01222 18.3231C7.16335 18.2456 7.2777 18.1372 7.35526 17.998C7.43281 17.8568 7.47159 17.6927 7.47159 17.5058C7.47159 17.3169 7.43281 17.1538 7.35526 17.0166C7.2777 16.8774 7.16335 16.77 7.01222 16.6945C6.86108 16.6189 6.67514 16.5811 6.4544 16.5811H5.72656V18.4395Z" fill="white"/>
<path fill-rule="evenodd" clip-rule="evenodd" d="M9.72969 21.5V15.3909H12.2533C12.7107 15.3909 13.1054 15.4804 13.4375 15.6594C13.7716 15.8364 14.0291 16.0839 14.2101 16.4021C14.3911 16.7183 14.4815 17.0862 14.4815 17.5058C14.4815 17.9274 14.3891 18.2963 14.2041 18.6125C14.0212 18.9267 13.7597 19.1703 13.4196 19.3433C13.0795 19.5163 12.6759 19.6028 12.2085 19.6028H11.2062V21.5H9.72969ZM11.9341 18.4395H11.2062V16.5811H11.9341C12.1548 16.5811 12.3408 16.6189 12.4919 16.6945C12.643 16.77 12.7574 16.8774 12.8349 17.0166C12.9125 17.1538 12.9513 17.3169 12.9513 17.5058C12.9513 17.6927 12.9125 17.8568 12.8349 17.998C12.7574 18.1372 12.643 18.2456 12.4919 18.3231C12.3428 18.4007 12.1568 18.4395 11.9341 18.4395Z" fill="white"/>
<path d="M15.0095 16.59V15.3909H20.173V16.59H18.3206V21.5H16.8649V16.59H15.0095Z" fill="white"/>
</g>
</g>
<defs>
<clipPath id="clip0_11066_134192">
<rect width="24.4581" height="32" fill="white" transform="translate(0 0.5)"/>
</clipPath>
</defs>
</svg>
