<svg width="25" height="33" viewBox="0 0 25 33" fill="none" xmlns="http://www.w3.org/2000/svg">
<g clip-path="url(#clip0_4287_57714)">
<path d="M0 4.51889C0 2.29932 1.79932 0.5 4.01889 0.5H16.7207L24.458 9.20332V28.4811C24.458 30.7007 22.6587 32.5 20.4392 32.5H4.01888C1.79931 32.5 0 30.7007 0 28.4811V4.51889Z" fill="#F44336"/>
<path d="M16.6953 0.500015L24.4584 9.20793H17.9966C17.2779 9.20793 16.6953 8.62531 16.6953 7.90662V0.500015Z" fill="#EF9A9A"/>
<path d="M4.38379 21.5V15.5364H6.84728C7.29378 15.5364 7.67913 15.6237 8.00332 15.7984C8.32946 15.9712 8.58085 16.2129 8.75751 16.5235C8.93417 16.8322 9.0225 17.1913 9.0225 17.6009C9.0225 18.0125 8.93223 18.3726 8.75169 18.6812C8.57309 18.988 8.31781 19.2258 7.98585 19.3947C7.65389 19.5636 7.25981 19.648 6.8036 19.648H5.28358V18.5124H6.53571C6.75313 18.5124 6.93464 18.4745 7.08024 18.3988C7.22778 18.3231 7.3394 18.2173 7.41511 18.0814C7.49082 17.9436 7.52868 17.7834 7.52868 17.6009C7.52868 17.4165 7.49082 17.2573 7.41511 17.1234C7.3394 16.9875 7.22778 16.8826 7.08024 16.8089C6.9327 16.7351 6.75119 16.6982 6.53571 16.6982H5.8252V21.5H4.38379Z" fill="white"/>
<path d="M11.9373 21.5H9.73301V15.5364H11.9344C12.5421 15.5364 13.0652 15.6558 13.504 15.8945C13.9446 16.1314 14.2844 16.473 14.5231 16.9195C14.7619 17.3641 14.8813 17.896 14.8813 18.5153C14.8813 19.1365 14.7619 19.6703 14.5231 20.1168C14.2863 20.5633 13.9475 20.906 13.5069 21.1447C13.0662 21.3816 12.543 21.5 11.9373 21.5ZM11.1744 20.2712H11.882C12.2159 20.2712 12.4984 20.2149 12.7294 20.1023C12.9623 19.9877 13.138 19.8023 13.2564 19.5461C13.3768 19.2879 13.437 18.9443 13.437 18.5153C13.437 18.0862 13.3768 17.7446 13.2564 17.4903C13.1361 17.234 12.9585 17.0496 12.7236 16.937C12.4906 16.8225 12.2033 16.7652 11.8616 16.7652H11.1744V20.2712Z" fill="white"/>
<path d="M15.7229 21.5V15.5364H19.7937V16.707H17.1643V17.93H19.5346V19.1035H17.1643V21.5H15.7229Z" fill="white"/>
</g>
<defs>
<clipPath id="clip0_4287_57714">
<rect width="24.4581" height="32" fill="white" transform="translate(0 0.5)"/>
</clipPath>
</defs>
</svg>
