<svg width="25" height="33" viewBox="0 0 25 33" fill="none" xmlns="http://www.w3.org/2000/svg">
<g clip-path="url(#clip0_4287_57692)">
<path d="M0 4.51889C0 2.29932 1.79932 0.5 4.01889 0.5H16.7207L24.458 9.20332V28.4811C24.458 30.7007 22.6587 32.5 20.4392 32.5H4.01888C1.79931 32.5 0 30.7007 0 28.4811V4.51889Z" fill="#069550"/>
<path d="M5.92633 15.5364L7.01539 17.4204H7.06199L8.1627 15.5364H9.77591L7.97633 18.5182L9.83414 21.5H8.18017L7.06199 19.5956H7.01539L5.89721 21.5H4.25488L6.10396 18.5182L4.30147 15.5364H5.92633Z" fill="white"/>
<path d="M10.5214 21.5V15.5364H11.9628V20.3294H14.4437V21.5H10.5214Z" fill="white"/>
<path d="M18.4134 17.3243C18.394 17.1107 18.3076 16.9448 18.1543 16.8263C18.0028 16.706 17.7864 16.6458 17.5049 16.6458C17.3185 16.6458 17.1632 16.6701 17.039 16.7186C16.9147 16.7671 16.8216 16.8341 16.7594 16.9195C16.6973 17.003 16.6653 17.0991 16.6634 17.2078C16.6595 17.2971 16.6769 17.3757 16.7158 17.4437C16.7565 17.5116 16.8148 17.5718 16.8905 17.6242C16.9681 17.6747 17.0613 17.7193 17.17 17.7582C17.2787 17.797 17.401 17.831 17.5369 17.8601L18.0494 17.9766C18.3445 18.0406 18.6046 18.126 18.8298 18.2328C19.057 18.3396 19.2472 18.4667 19.4006 18.6143C19.5559 18.7618 19.6733 18.9317 19.7529 19.1239C19.8325 19.3161 19.8733 19.5315 19.8752 19.7703C19.8733 20.1469 19.7781 20.4701 19.5898 20.74C19.4015 21.0098 19.1307 21.2166 18.7774 21.3602C18.426 21.5039 18.0019 21.5757 17.5049 21.5757C17.006 21.5757 16.5711 21.501 16.2004 21.3515C15.8296 21.202 15.5413 20.9749 15.3355 20.6701C15.1297 20.3653 15.0239 19.98 15.0181 19.5141H16.3984C16.41 19.7063 16.4615 19.8664 16.5527 19.9945C16.6439 20.1227 16.7692 20.2197 16.9283 20.2857C17.0895 20.3517 17.2758 20.3847 17.4874 20.3847C17.6816 20.3847 17.8466 20.3585 17.9825 20.3061C18.1203 20.2537 18.2261 20.1809 18.2999 20.0877C18.3736 19.9945 18.4115 19.8878 18.4134 19.7674C18.4115 19.6548 18.3765 19.5587 18.3086 19.4791C18.2406 19.3976 18.1358 19.3277 17.9941 19.2695C17.8543 19.2093 17.6757 19.154 17.4583 19.1035L16.8352 18.9579C16.3188 18.8395 15.9121 18.6482 15.6151 18.3842C15.318 18.1183 15.1705 17.7591 15.1724 17.3068C15.1705 16.938 15.2695 16.6147 15.4695 16.3371C15.6694 16.0595 15.946 15.8431 16.2994 15.6878C16.6527 15.5325 17.0555 15.4548 17.5078 15.4548C17.9698 15.4548 18.3707 15.5335 18.7104 15.6907C19.0521 15.846 19.3171 16.0644 19.5054 16.3459C19.6937 16.6274 19.7898 16.9535 19.7937 17.3243H18.4134Z" fill="white"/>
<path d="M16.6953 0.500019L24.4584 9.20794H17.9966C17.2779 9.20794 16.6953 8.62532 16.6953 7.90662V0.500019Z" fill="#70CD94"/>
</g>
<defs>
<clipPath id="clip0_4287_57692">
<rect width="24.4581" height="32" fill="white" transform="translate(0 0.5)"/>
</clipPath>
</defs>
</svg>
