<svg width="25" height="33" viewBox="0 0 25 33" fill="none" xmlns="http://www.w3.org/2000/svg">
<g clip-path="url(#clip0_4287_57725)">
<path d="M0 4.51889C0 2.29932 1.79932 0.5 4.01889 0.5H16.7207L24.458 9.20332V28.4811C24.458 30.7007 22.6587 32.5 20.4392 32.5H4.01888C1.79931 32.5 0 30.7007 0 28.4811V4.51889Z" fill="#1E88E5"/>
<path fill-rule="evenodd" clip-rule="evenodd" d="M3.85422 32.4967C1.711 32.4103 0 30.6455 0 28.4811V26.3045L7.25266 21.1719L15.6379 26.0874L24.458 19.7262L24.458 28.4811C24.458 30.7007 22.6587 32.5 20.4392 32.5L4.01888 32.5C3.96574 32.5 3.91079 32.4989 3.85422 32.4967Z" fill="#70CD94"/>
<path d="M16.6953 0.500015L24.4584 9.20793H17.9966C17.2779 9.20793 16.6953 8.62531 16.6953 7.90662V0.500015Z" fill="#1565C0"/>
<circle cx="7.43952" cy="12.9463" r="2.60554" fill="#FFF9E1"/>
</g>
<defs>
<clipPath id="clip0_4287_57725">
<rect width="24.4581" height="32" fill="white" transform="translate(0 0.5)"/>
</clipPath>
</defs>
</svg>
