<svg width="13" height="14" viewBox="0 0 13 14" fill="none" xmlns="http://www.w3.org/2000/svg">
<path d="M5.33333 14H1.33333C0.966667 14 0.652667 13.8696 0.391333 13.6087C0.130444 13.3473 0 13.0333 0 12.6667V3.33333C0 2.96667 0.130444 2.65267 0.391333 2.39133C0.652667 2.13044 0.966667 2 1.33333 2H4.11667C4.23889 1.61111 4.47778 1.29155 4.83333 1.04133C5.18889 0.791555 5.57778 0.666666 6 0.666666C6.44444 0.666666 6.84178 0.791555 7.192 1.04133C7.54178 1.29155 7.77778 1.61111 7.9 2H10.6667C11.0333 2 11.3473 2.13044 11.6087 2.39133C11.8696 2.65267 12 2.96667 12 3.33333V6.66667H10.6667V3.33333H9.33333V4C9.33333 4.36667 9.20289 4.68044 8.942 4.94133C8.68067 5.20267 8.36667 5.33333 8 5.33333H4C3.63333 5.33333 3.31956 5.20267 3.05867 4.94133C2.79733 4.68044 2.66667 4.36667 2.66667 4V3.33333H1.33333V12.6667H5.33333V14ZM8.33333 11.4167L11.6333 8.11667C11.7556 7.99444 11.9111 7.93333 12.1 7.93333C12.2889 7.93333 12.4444 7.99444 12.5667 8.11667C12.6889 8.23889 12.75 8.39444 12.75 8.58333C12.75 8.77222 12.6889 8.92778 12.5667 9.05L8.8 12.8167C8.66667 12.95 8.51111 13.0167 8.33333 13.0167C8.15556 13.0167 8 12.95 7.86667 12.8167L5.96667 10.9167C5.84444 10.7944 5.78333 10.6389 5.78333 10.45C5.78333 10.2611 5.84444 10.1056 5.96667 9.98333C6.08889 9.86111 6.24444 9.8 6.43333 9.8C6.62222 9.8 6.77778 9.86111 6.9 9.98333L8.33333 11.4167ZM6 3.33333C6.18889 3.33333 6.34733 3.26933 6.47533 3.14133C6.60289 3.01378 6.66667 2.85555 6.66667 2.66667C6.66667 2.47778 6.60289 2.31933 6.47533 2.19133C6.34733 2.06378 6.18889 2 6 2C5.81111 2 5.65289 2.06378 5.52533 2.19133C5.39733 2.31933 5.33333 2.47778 5.33333 2.66667C5.33333 2.85555 5.39733 3.01378 5.52533 3.14133C5.65289 3.26933 5.81111 3.33333 6 3.33333Z" fill="white"/>
</svg>
