<svg width="12" height="12" viewBox="0 0 12 12" fill="none" xmlns="http://www.w3.org/2000/svg">
<path d="M1.33333 10.6667H7.33333V8C7.33333 7.81111 7.39733 7.65267 7.52533 7.52467C7.65289 7.39711 7.81111 7.33333 8 7.33333H10.6667V1.33333H1.33333V10.6667ZM1.33333 12C0.966667 12 0.652667 11.8696 0.391333 11.6087C0.130444 11.3473 0 11.0333 0 10.6667V1.33333C0 0.966667 0.130444 0.652667 0.391333 0.391333C0.652667 0.130444 0.966667 0 1.33333 0H10.6667C11.0333 0 11.3473 0.130444 11.6087 0.391333C11.8696 0.652667 12 0.966667 12 1.33333V8L8 12H1.33333ZM3.33333 7.33333C3.14444 7.33333 2.986 7.26933 2.858 7.14133C2.73044 7.01378 2.66667 6.85556 2.66667 6.66667C2.66667 6.47778 2.73044 6.31933 2.858 6.19133C2.986 6.06378 3.14444 6 3.33333 6H5.33333C5.52222 6 5.68067 6.06378 5.80867 6.19133C5.93622 6.31933 6 6.47778 6 6.66667C6 6.85556 5.93622 7.01378 5.80867 7.14133C5.68067 7.26933 5.52222 7.33333 5.33333 7.33333H3.33333ZM3.33333 4.66667C3.14444 4.66667 2.986 4.60267 2.858 4.47467C2.73044 4.34711 2.66667 4.18889 2.66667 4C2.66667 3.81111 2.73044 3.65267 2.858 3.52467C2.986 3.39711 3.14444 3.33333 3.33333 3.33333H8.66667C8.85556 3.33333 9.01378 3.39711 9.14133 3.52467C9.26933 3.65267 9.33333 3.81111 9.33333 4C9.33333 4.18889 9.26933 4.34711 9.14133 4.47467C9.01378 4.60267 8.85556 4.66667 8.66667 4.66667H3.33333ZM1.33333 10.6667V1.33333V10.6667Z" fill="#16A75C"/>
</svg>
