<svg width="16" height="16" viewBox="0 0 16 16" fill="none" xmlns="http://www.w3.org/2000/svg">
<path d="M5.33332 13.3333C4.03332 13.3333 2.93066 12.8804 2.02532 11.9747C1.11955 11.0693 0.666656 9.96667 0.666656 8.66667C0.666656 7.46667 1.0611 6.42222 1.84999 5.53333C2.63888 4.64444 3.61666 4.13333 4.78332 4L4.18332 3.4C4.0611 3.27778 3.99999 3.12489 3.99999 2.94133C3.99999 2.75822 4.06666 2.6 4.19999 2.46667C4.32221 2.34444 4.47777 2.28333 4.66666 2.28333C4.85555 2.28333 5.0111 2.34444 5.13332 2.46667L6.86666 4.2C6.93332 4.26667 6.98066 4.33889 7.00866 4.41667C7.03621 4.49444 7.04999 4.57778 7.04999 4.66667C7.04999 4.75556 7.03621 4.83889 7.00866 4.91667C6.98066 4.99444 6.93332 5.06667 6.86666 5.13333L5.13332 6.86667C5.0111 6.98889 4.85843 7.05267 4.67532 7.058C4.49177 7.06378 4.33332 7 4.19999 6.86667C4.07777 6.74444 4.01666 6.59156 4.01666 6.408C4.01666 6.22489 4.07777 6.06667 4.19999 5.93333L4.71666 5.4C3.93888 5.55556 3.29155 5.93333 2.77466 6.53333C2.25821 7.13333 1.99999 7.84444 1.99999 8.66667C1.99999 9.58889 2.3251 10.3751 2.97532 11.0253C3.6251 11.6751 4.4111 12 5.33332 12H6.66666C6.85555 12 7.01399 12.064 7.14199 12.192C7.26955 12.3196 7.33332 12.4778 7.33332 12.6667C7.33332 12.8556 7.26955 13.0138 7.14199 13.1413C7.01399 13.2693 6.85555 13.3333 6.66666 13.3333H5.33332ZM9.99999 13.3333C9.63332 13.3333 9.31955 13.2029 9.05866 12.942C8.79732 12.6807 8.66666 12.3667 8.66666 12V10C8.66666 9.63333 8.79732 9.31933 9.05866 9.058C9.31955 8.79711 9.63332 8.66667 9.99999 8.66667H13.3333C13.7 8.66667 14.014 8.79711 14.2753 9.058C14.5362 9.31933 14.6667 9.63333 14.6667 10V12C14.6667 12.3667 14.5362 12.6807 14.2753 12.942C14.014 13.2029 13.7 13.3333 13.3333 13.3333H9.99999ZM9.99999 12H13.3333V10H9.99999V12ZM9.99999 7.33333C9.63332 7.33333 9.31955 7.20267 9.05866 6.94133C8.79732 6.68044 8.66666 6.36667 8.66666 6V4C8.66666 3.63333 8.79732 3.31956 9.05866 3.05867C9.31955 2.79733 9.63332 2.66667 9.99999 2.66667H13.3333C13.7 2.66667 14.014 2.79733 14.2753 3.05867C14.5362 3.31956 14.6667 3.63333 14.6667 4V6C14.6667 6.36667 14.5362 6.68044 14.2753 6.94133C14.014 7.20267 13.7 7.33333 13.3333 7.33333H9.99999Z" fill="white"/>
</svg>
