<svg width="11" height="16" viewBox="0 0 11 16" fill="none" xmlns="http://www.w3.org/2000/svg">
<path d="M5.30001 15.2C3.88001 15.2 2.67501 14.705 1.68501 13.715C0.695012 12.725 0.200012 11.52 0.200012 10.1V5C0.200012 4.58 0.345012 4.225 0.635012 3.935C0.925012 3.645 1.28001 3.5 1.70001 3.5C1.75001 3.5 1.80001 3.5024 1.85001 3.5072C1.90001 3.5124 1.95001 3.52 2.00001 3.53V3.2C2.00001 2.78 2.14501 2.425 2.43501 2.135C2.72501 1.845 3.08001 1.7 3.50001 1.7C3.57001 1.7 3.63761 1.705 3.70281 1.715C3.76761 1.725 3.83501 1.74 3.90501 1.76C4.01501 1.47 4.19501 1.2376 4.44501 1.0628C4.69501 0.887599 4.98001 0.799999 5.30001 0.799999C5.67001 0.799999 5.99261 0.917399 6.26781 1.1522C6.54261 1.3874 6.71001 1.68 6.77001 2.03C6.82001 2.02 6.87261 2.0124 6.92781 2.0072C6.98261 2.0024 7.04001 2 7.10001 2C7.52001 2 7.87501 2.145 8.16501 2.435C8.45501 2.725 8.60001 3.08 8.60001 3.5V5.63C8.65001 5.62 8.70001 5.6124 8.75001 5.6072C8.80001 5.6024 8.85001 5.6 8.90001 5.6C9.32001 5.6 9.67501 5.745 9.96501 6.035C10.255 6.325 10.4 6.68 10.4 7.1V10.1C10.4 11.52 9.90501 12.725 8.91501 13.715C7.92501 14.705 6.72001 15.2 5.30001 15.2ZM5.30001 14C5.84001 14 6.34761 13.8976 6.82281 13.6928C7.29761 13.4876 7.71001 13.21 8.06001 12.86C8.41001 12.51 8.68761 12.0976 8.89281 11.6228C9.09761 11.1476 9.20001 10.64 9.20001 10.1V7.1C9.20001 7.02 9.17001 6.95 9.11001 6.89C9.05001 6.83 8.98001 6.8 8.90001 6.8C8.82001 6.8 8.75001 6.83 8.69001 6.89C8.63001 6.95 8.60001 7.02 8.60001 7.1V8.855C8.60001 9.105 8.54001 9.3224 8.42001 9.5072C8.30001 9.6924 8.10501 9.85 7.83501 9.98C7.60501 10.09 7.40761 10.24 7.24281 10.43C7.07761 10.62 6.95501 10.835 6.87501 11.075C6.82501 11.235 6.74261 11.3624 6.62781 11.4572C6.51261 11.5524 6.38501 11.6 6.24501 11.6C6.05501 11.6 5.90241 11.535 5.78721 11.405C5.67241 11.275 5.63501 11.125 5.67501 10.955C5.78501 10.475 5.99001 10.0524 6.29001 9.6872C6.59001 9.3224 6.96001 9.045 7.40001 8.855V3.5C7.40001 3.42 7.37001 3.35 7.31001 3.29C7.25001 3.23 7.18001 3.2 7.10001 3.2C7.02001 3.2 6.95001 3.23 6.89001 3.29C6.83001 3.35 6.80001 3.42 6.80001 3.5V6.8C6.80001 6.97 6.74261 7.1124 6.62781 7.2272C6.51261 7.3424 6.37001 7.4 6.20001 7.4C6.03001 7.4 5.88761 7.3424 5.77281 7.2272C5.65761 7.1124 5.60001 6.97 5.60001 6.8V2.3C5.60001 2.22 5.57001 2.15 5.51001 2.09C5.45001 2.03 5.38001 2 5.30001 2C5.22001 2 5.15001 2.03 5.09001 2.09C5.03001 2.15 5.00001 2.22 5.00001 2.3V6.8C5.00001 6.97 4.94261 7.1124 4.82781 7.2272C4.71261 7.3424 4.57001 7.4 4.40001 7.4C4.23001 7.4 4.08761 7.3424 3.97281 7.2272C3.85761 7.1124 3.80001 6.97 3.80001 6.8V3.2C3.80001 3.12 3.77001 3.05 3.71001 2.99C3.65001 2.93 3.58001 2.9 3.50001 2.9C3.42001 2.9 3.35001 2.93 3.29001 2.99C3.23001 3.05 3.20001 3.12 3.20001 3.2V7.4C3.20001 7.57 3.14261 7.7124 3.02781 7.8272C2.91261 7.9424 2.77001 8 2.60001 8C2.43001 8 2.28741 7.9424 2.17221 7.8272C2.05741 7.7124 2.00001 7.57 2.00001 7.4V5C2.00001 4.92 1.97001 4.85 1.91001 4.79C1.85001 4.73 1.78001 4.7 1.70001 4.7C1.62001 4.7 1.55001 4.73 1.49001 4.79C1.43001 4.85 1.40001 4.92 1.40001 5V10.1C1.40001 10.64 1.50261 11.1476 1.70781 11.6228C1.91261 12.0976 2.19001 12.51 2.54001 12.86C2.89001 13.21 3.30261 13.4876 3.77781 13.6928C4.25261 13.8976 4.76001 14 5.30001 14Z" fill="white"/>
</svg>
