<svg width="16" height="16" viewBox="0 0 16 16" fill="none" xmlns="http://www.w3.org/2000/svg">
<path d="M9.55894 14.9295C9.41169 14.9755 9.25426 14.978 9.10564 14.9366L4.66667 13.7V13.8667C4.66667 14.3085 4.3085 14.6667 3.86667 14.6667H1.46667C1.02484 14.6667 0.666672 14.3085 0.666672 13.8667V8.13333C0.666672 7.69151 1.02484 7.33333 1.46667 7.33333H5.96667L10.1 8.86667C10.4667 9 10.764 9.23333 10.992 9.56667C11.2196 9.9 11.3333 10.2667 11.3333 10.6667H12.6667C13.2222 10.6667 13.6944 10.85 14.0833 11.2167C14.4722 11.5833 14.6667 12.0667 14.6667 12.6667V12.7452C14.6667 13.0951 14.4393 13.4044 14.1053 13.5088L9.55894 14.9295ZM2.00001 13.3333H3.33334V8.66667H2.00001V13.3333ZM9.3 13.6L13.2667 12.3667C13.2333 12.2444 13.1582 12.1527 13.0413 12.0913C12.9249 12.0304 12.8 12 12.6667 12H9.46667C9.12223 12 8.81112 11.9778 8.53334 11.9333C8.25556 11.8889 7.95556 11.8111 7.63334 11.7L7.08918 11.5107C6.75065 11.393 6.56532 11.0291 6.66914 10.6861C6.77758 10.3277 7.1592 10.1284 7.51524 10.2441L8.20001 10.4667C8.40001 10.5333 8.63334 10.5833 8.90001 10.6167C9.16667 10.65 9.53334 10.6667 10 10.6667C10 10.5444 9.96401 10.4278 9.892 10.3167C9.81956 10.2056 9.73334 10.1333 9.63334 10.1L5.73334 8.66667H4.66667V12.3333L9.3 13.6Z" fill="white"/>
<path fill-rule="evenodd" clip-rule="evenodd" d="M9.44 3.04V5.76H13.76V3.04H9.44ZM8.8 1.6C8.35817 1.6 8 1.95817 8 2.4V6.4C8 6.84183 8.35817 7.2 8.8 7.2H14.4C14.8418 7.2 15.2 6.84183 15.2 6.4V2.4C15.2 1.95817 14.8418 1.6 14.4 1.6H8.8Z" fill="white"/>
</svg>
