<svg width="16" height="14" viewBox="0 0 16 14" fill="none" xmlns="http://www.w3.org/2000/svg">
<path fill-rule="evenodd" clip-rule="evenodd" d="M2.96005 1.96C2.76909 1.96 2.58596 2.03586 2.45093 2.17089C2.31591 2.30591 2.24005 2.48905 2.24005 2.68V11.32C2.24005 11.511 2.31591 11.6941 2.45093 11.8291C2.58596 11.9641 2.76909 12.04 2.96005 12.04H10.8801V2.68C10.8801 2.48905 10.8042 2.30591 10.6692 2.17089C10.5341 2.03586 10.351 1.96 10.1601 1.96H2.96005ZM2.96005 0.520004C2.38718 0.520004 1.83778 0.747575 1.4327 1.15265C1.02762 1.55773 0.800049 2.10714 0.800049 2.68V11.32C0.800049 11.8929 1.02762 12.4423 1.4327 12.8474C1.83778 13.2524 2.38718 13.48 2.96005 13.48H13.0401C13.6129 13.48 14.1623 13.2524 14.5674 12.8474C14.9725 12.4423 15.2001 11.8929 15.2001 11.32V4.84001C15.2001 4.26714 14.9725 3.71773 14.5674 3.31265C14.1623 2.90758 13.6129 2.68 13.0401 2.68H12.3201C12.3201 2.10714 12.0925 1.55773 11.6874 1.15265C11.2823 0.747575 10.7329 0.520004 10.1601 0.520004H2.96005ZM12.3201 4.12001V11.32C12.3201 11.511 12.3959 11.6941 12.5309 11.8291C12.666 11.9641 12.8491 12.04 13.0401 12.04C13.231 12.04 13.4141 11.9641 13.5492 11.8291C13.6842 11.6941 13.7601 11.511 13.7601 11.32V4.84001C13.7601 4.64905 13.6842 4.46591 13.5492 4.33089C13.4141 4.19586 13.231 4.12001 13.0401 4.12001H12.3201ZM3.68005 4.12001C3.68005 3.72236 4.0024 3.4 4.40005 3.4H8.72005C9.1177 3.4 9.44005 3.72236 9.44005 4.12001V7.00001C9.44005 7.39765 9.1177 7.72001 8.72005 7.72001H4.40005C4.0024 7.72001 3.68005 7.39765 3.68005 7.00001V4.12001ZM5.12005 4.84001V6.28001H8.00005V4.84001H5.12005ZM3.68005 9.88001C3.68005 9.48236 4.0024 9.16001 4.40005 9.16001H8.72005C9.1177 9.16001 9.44005 9.48236 9.44005 9.88001C9.44005 10.2777 9.1177 10.6 8.72005 10.6H4.40005C4.0024 10.6 3.68005 10.2777 3.68005 9.88001Z" fill="#069550"/>
</svg>
