<svg width="72" height="72" viewBox="0 0 72 72" fill="none" xmlns="http://www.w3.org/2000/svg">
<g clip-path="url(#clip0_7692_94777)">
<rect width="72" height="72" rx="12" fill="#F6F6F9"/>
<path d="M21.5926 50.3822C19.2566 47.9995 19.2566 44.1973 21.5926 41.8147L28.3273 35.08C29.0604 34.3469 30.0235 33.797 31.0298 33.5239C32.036 33.2508 33.0926 33.2508 34.0521 33.4772C35.0584 33.7503 36.0215 34.257 36.8013 34.9901L36.8912 35.08C39.2738 37.4626 39.2738 41.2648 36.8912 43.6475L30.1565 50.3822C27.7774 52.7648 23.9285 52.7648 21.5926 50.3822ZM40.6502 31.3245C36.2084 26.8826 28.9238 26.8826 24.4784 31.3245L17.7904 38.0592C13.3485 42.5011 13.3485 49.7856 17.7904 54.2311C22.2323 58.6765 29.5168 58.6729 33.9623 54.2311L40.697 47.4964C45.0921 43.0509 45.0921 35.77 40.6502 31.3245Z" fill="#C4D8EC"/>
<path d="M37.0279 30.4225C38.2354 29.8152 39.389 30.2392 39.389 30.2392C36.8949 28.3957 34.1745 27.871 31.8313 28.0183C31.817 28.0363 31.8062 28.0542 31.7918 28.0758C30.764 29.6535 30.534 31.7378 31.1737 33.4916C32.1368 33.2544 33.1359 33.2616 34.0487 33.4808C34.4224 33.5814 34.7063 33.6785 35.267 33.9408C35.2705 33.9372 35.0729 31.4072 37.0279 30.4225ZM29.8045 34.0091C29.8512 33.6605 29.8727 33.3083 29.8943 32.9561C29.9949 31.4396 30.2537 29.9302 30.6634 28.4675C30.6921 28.3633 30.7209 28.2519 30.7496 28.1405C29.6391 28.3166 28.5502 28.6544 27.526 29.1575C25.9304 31.2167 26.4551 33.8833 28.3274 35.0836C28.7551 34.656 29.2582 34.293 29.8045 34.0091Z" fill="#A2BBD6"/>
<path d="M50.4074 21.6178C52.7433 24.0005 52.7433 27.8027 50.4074 30.1853L43.6727 36.92C42.9396 37.6531 41.9765 38.203 40.9702 38.4761C39.964 38.7492 38.9074 38.7492 37.9479 38.5228C36.9416 38.2497 35.9785 37.743 35.1987 37.0098L35.1088 36.92C32.7262 34.5373 32.7262 30.7352 35.1088 28.3525L41.8435 21.6178C44.2226 19.2352 48.0715 19.2352 50.4074 21.6178ZM31.3498 40.6755C35.7916 45.1173 43.0762 45.1173 47.5216 40.6755L54.2096 33.9408C58.6515 29.4989 58.6515 22.2144 54.2096 17.7689C49.7677 13.3234 42.4832 13.327 38.0377 17.7689L31.3066 24.5036C26.9079 28.9491 26.9079 36.23 31.3498 40.6755Z" fill="#C4D8EC"/>
<path d="M31.1304 27.1665C31.1448 27.1558 31.1592 27.1414 31.1735 27.1306C31.364 26.9653 31.576 26.8072 31.824 26.764C32.072 26.7209 32.3631 26.8323 32.4493 27.0695C32.514 27.2456 32.4565 27.4397 32.3954 27.6158C31.4503 30.4728 30.692 34.0989 31.612 37.0566C31.7018 37.3441 31.7881 37.7142 31.5473 37.8939C31.4071 38.0017 31.1987 37.9837 31.0442 37.9011C29.3551 36.9883 29.0604 34.5158 28.9813 32.8195C28.8879 30.6776 29.4809 28.6148 31.1304 27.1665Z" fill="#DAE8F7"/>
<path d="M38.6307 38.6378C38.4007 38.609 38.1563 38.5623 38.1563 38.5623C38.1563 38.5623 38.1204 40.0969 36.8949 41.3691C35.5365 42.7778 34.1816 42.7419 34.1816 42.7419C34.8968 43.1551 36.3235 43.5828 36.841 43.705L36.8949 43.6511C38.2713 42.2711 38.8463 40.4167 38.6307 38.6378ZM45.617 34.9758L43.7015 36.8912C44.1795 39.0259 44.0501 41.2684 43.3098 43.3384C44.2405 43.0078 45.1354 42.5514 45.9691 41.9728C47.3455 39.6153 47.0437 36.8301 45.617 34.9758Z" fill="#A2BBD6"/>
<path d="M41.7105 38.1598C41.4841 37.5884 41.0421 37.0098 40.4887 37.0637C40.1437 37.0961 39.6082 37.4195 39.6441 38.4078C39.6693 39.1733 39.9604 39.9208 39.5435 40.9234C38.9326 42.3897 39.0727 42.785 39.2201 43.0186C39.3818 43.2737 39.6801 43.3887 39.9568 43.3851C40.6863 43.3816 41.2901 42.7131 41.6207 41.98C42.1562 40.8084 42.1885 39.3601 41.7105 38.1598ZM30.6993 51.8772C30.9293 51.6867 31.5258 51.0506 31.8026 51.4531C31.7019 52.56 30.8502 53.462 29.9158 54.0658C28.7658 54.8097 27.4038 55.2481 26.0346 55.2086C24.899 55.1762 23.0158 54.7162 22.3546 53.6633C21.8155 52.808 22.9547 52.6606 23.5872 52.8978C25.8405 53.7567 28.3885 53.7747 30.6993 51.8772Z" fill="#DAE8F7"/>
<rect x="25" y="16" width="5" height="9" rx="2.5" fill="#C4D8EC"/>
<rect x="17" y="30" width="5" height="8" rx="2.5" transform="rotate(-90 17 30)" fill="#C4D8EC"/>
<rect x="47" y="57" width="5" height="9" rx="2.5" transform="rotate(-180 47 57)" fill="#C4D8EC"/>
<rect x="55" y="43" width="5" height="8" rx="2.5" transform="rotate(90 55 43)" fill="#C4D8EC"/>
<g clip-path="url(#clip1_7692_94777)">
<circle cx="56.5" cy="56.5" r="12.5" fill="#EF5350"/>
<path d="M57.3332 50.5013L62.8711 60.4962C62.9555 60.6486 63 60.8214 63 60.9974C63 61.1734 62.9555 61.3463 62.8711 61.4987C62.7867 61.6511 62.6652 61.7777 62.519 61.8657C62.3727 61.9537 62.2068 62 62.0379 62L50.9621 62C50.7932 62 50.6273 61.9537 50.481 61.8657C50.3348 61.7777 50.2133 61.6511 50.1289 61.4987C50.0445 61.3463 50 61.1734 50 60.9974C50 60.8214 50.0445 60.6486 50.1289 60.4962L55.6668 50.5013C56.0369 49.8329 56.9625 49.8329 57.3332 50.5013ZM56.5 58.4229C56.3299 58.4229 56.1667 58.4933 56.0465 58.6186C55.9262 58.744 55.8586 58.914 55.8586 59.0912C55.8586 59.2685 55.9262 59.4385 56.0465 59.5638C56.1667 59.6892 56.3299 59.7596 56.5 59.7596C56.6701 59.7596 56.8333 59.6892 56.9535 59.5638C57.0738 59.4385 57.1414 59.2685 57.1414 59.0912C57.1414 58.914 57.0738 58.744 56.9535 58.6186C56.8333 58.4933 56.6701 58.4229 56.5 58.4229ZM56.5 53.7442C56.3429 53.7443 56.1913 53.8044 56.0739 53.9131C55.9565 54.0219 55.8815 54.1718 55.8631 54.3344L55.8586 54.4126L55.8586 57.0861C55.8588 57.2565 55.9214 57.4203 56.0336 57.5442C56.1458 57.6681 56.2992 57.7426 56.4624 57.7526C56.6256 57.7626 56.7863 57.7072 56.9117 57.5979C57.037 57.4886 57.1176 57.3335 57.1369 57.1643L57.1414 57.0861L57.1414 54.4126C57.1414 54.2353 57.0738 54.0653 56.9535 53.94C56.8333 53.8147 56.6701 53.7442 56.5 53.7442Z" fill="white"/>
</g>
</g>
<defs>
<clipPath id="clip0_7692_94777">
<rect width="72" height="72" fill="white"/>
</clipPath>
<clipPath id="clip1_7692_94777">
<rect width="25" height="25" fill="white" transform="translate(44 44)"/>
</clipPath>
</defs>
</svg>
