<svg width="72" height="72" viewBox="0 0 72 72" fill="none" xmlns="http://www.w3.org/2000/svg">
<rect width="72" height="71.9999" rx="12" fill="#F6F6F9"/>
<path d="M36.0002 11.52V60.48C33.4746 60.48 32.5806 60.0945 30.7983 59.3258L30.7897 59.3221C24.1929 56.4775 13.6802 49.7822 13.6802 35.978V32.1248C13.6802 24.2961 13.6802 20.3818 14.6176 19.0647C15.5526 17.7502 19.28 16.4894 26.7374 13.9705L28.1584 13.4906C32.0446 12.1761 33.9864 11.52 36.0002 11.52Z" fill="#16A75C"/>
<path d="M36 11.52V60.48C38.5255 60.48 39.4195 60.0945 41.2019 59.3258L41.2105 59.3221C47.8073 56.4775 58.32 49.7822 58.32 35.978V32.1248C58.32 24.2961 58.32 20.3818 57.3826 19.0647C56.4476 17.7502 52.7202 16.4894 45.2628 13.9705L43.8418 13.4906C39.9556 12.1761 38.0138 11.52 36 11.52Z" fill="#108F5A"/>
<rect x="34.5601" y="28.8" width="2.88" height="11.52" fill="#0B7855"/>
<path fill-rule="evenodd" clip-rule="evenodd" d="M28.2956 33.1734C31.657 27.3774 33.3378 24.48 36 24.48C38.661 24.48 40.3429 27.3774 43.7044 33.1734L44.1237 33.8947C46.9172 38.7107 48.3146 41.1187 47.052 42.8794C45.7894 44.64 42.6653 44.64 36.4193 44.64H35.5807C29.3347 44.64 26.2105 44.64 24.948 42.8794C23.6854 41.1187 25.0827 38.7107 27.8763 33.8947L28.2956 33.1734ZM36 29.24C36.2291 29.24 36.4489 29.3285 36.6109 29.486C36.7729 29.6436 36.864 29.8572 36.864 30.08V35.68C36.864 35.9028 36.7729 36.1164 36.6109 36.274C36.4489 36.4315 36.2291 36.52 36 36.52C35.7708 36.52 35.5511 36.4315 35.3891 36.274C35.227 36.1164 35.136 35.9028 35.136 35.68V30.08C35.136 29.8572 35.227 29.6436 35.3891 29.486C35.5511 29.3285 35.7708 29.24 36 29.24ZM36 40.16C36.3055 40.16 36.5985 40.042 36.8145 39.832C37.0306 39.6219 37.152 39.337 37.152 39.04C37.152 38.743 37.0306 38.4581 36.8145 38.248C36.5985 38.038 36.3055 37.92 36 37.92C35.6945 37.92 35.4015 38.038 35.1854 38.248C34.9694 38.4581 34.848 38.743 34.848 39.04C34.848 39.337 34.9694 39.6219 35.1854 39.832C35.4015 40.042 35.6945 40.16 36 40.16Z" fill="white"/>
</svg>
