<svg width="12" height="14" viewBox="0 0 12 14" fill="none" xmlns="http://www.w3.org/2000/svg">
<path d="M7.41075 11.8744C6.59364 12.6915 5.61155 13.1 4.46447 13.1C3.31738 13.1 2.33529 12.6915 1.51819 11.8744C0.701088 11.0573 0.292537 10.0752 0.292537 8.92809C0.292537 7.78101 0.701087 6.79891 1.51819 5.98181L5.87868 1.62132C6.46794 1.03206 7.17504 0.737594 8 0.737908C8.82496 0.738223 9.53206 1.03269 10.1213 1.62132C10.7106 2.21058 11.0052 2.91784 11.0052 3.74311C11.0052 4.56838 10.7106 5.27533 10.1213 5.86396L5.99653 9.98875C5.63512 10.3502 5.203 10.5309 4.70017 10.5309C4.19734 10.5309 3.76522 10.3502 3.40381 9.98875C3.0424 9.62734 2.86169 9.19522 2.86169 8.69239C2.86169 8.18956 3.0424 7.75744 3.40381 7.39603L7.29289 3.50694C7.42646 3.37337 7.58359 3.30675 7.7643 3.30706C7.945 3.30738 8.10214 3.374 8.2357 3.50694C8.36927 3.6405 8.43605 3.7978 8.43605 3.97881C8.43605 4.15983 8.36927 4.31681 8.2357 4.44975L4.34662 8.33883C4.24448 8.44097 4.19341 8.55898 4.19341 8.69286C4.19341 8.82674 4.24448 8.94443 4.34662 9.04594C4.44875 9.14808 4.56676 9.19915 4.70064 9.19915C4.83452 9.19915 4.95221 9.14808 5.05372 9.04594L9.17851 4.92115C9.50064 4.58331 9.66374 4.18859 9.66783 3.73698C9.67191 3.28538 9.50881 2.89443 9.17851 2.56413C8.84853 2.23415 8.45569 2.06915 8 2.06915C7.54431 2.06915 7.15147 2.23415 6.82149 2.56413L2.461 6.92462C1.89531 7.47459 1.61436 8.14053 1.61813 8.92243C1.6219 9.70434 1.90285 10.374 2.461 10.9316C3.01097 11.4815 3.67282 11.7546 4.44655 11.7509C5.22029 11.7471 5.89408 11.474 6.46794 10.9316L10.5927 6.80677C10.7263 6.67321 10.8834 6.60658 11.0641 6.60689C11.2448 6.60721 11.402 6.67383 11.5355 6.80677C11.6691 6.94033 11.7359 7.09763 11.7359 7.27865C11.7359 7.45966 11.6691 7.61664 11.5355 7.74958L7.41075 11.8744Z" fill="#16A75C"/>
</svg>
