<svg width="16" height="16" viewBox="0 0 16 16" fill="none" xmlns="http://www.w3.org/2000/svg">
<path d="M2.6665 2.66666C2.6665 2.31304 2.80698 1.9739 3.05703 1.72385C3.30708 1.4738 3.64622 1.33333 3.99984 1.33333H9.33317C9.50997 1.33337 9.67951 1.40363 9.8045 1.52866L13.1378 4.862C13.2629 4.98699 13.3331 5.15653 13.3332 5.33333V13.3333C13.3332 13.687 13.1927 14.0261 12.9426 14.2761C12.6926 14.5262 12.3535 14.6667 11.9998 14.6667H3.99984C3.64622 14.6667 3.30708 14.5262 3.05703 14.2761C2.80698 14.0261 2.6665 13.687 2.6665 13.3333V2.66666ZM11.7238 5.33333L9.33317 2.94266V5.33333H11.7238ZM7.99984 2.66666H3.99984V13.3333H11.9998V6.66666H8.6665C8.48969 6.66666 8.32012 6.59642 8.1951 6.4714C8.07007 6.34638 7.99984 6.17681 7.99984 6V2.66666ZM5.33317 8.66666C5.33317 8.48985 5.40341 8.32028 5.52843 8.19526C5.65346 8.07023 5.82303 8 5.99984 8H9.99984C10.1766 8 10.3462 8.07023 10.4712 8.19526C10.5963 8.32028 10.6665 8.48985 10.6665 8.66666C10.6665 8.84347 10.5963 9.01304 10.4712 9.13807C10.3462 9.26309 10.1766 9.33333 9.99984 9.33333H5.99984C5.82303 9.33333 5.65346 9.26309 5.52843 9.13807C5.40341 9.01304 5.33317 8.84347 5.33317 8.66666ZM5.33317 11.3333C5.33317 11.1565 5.40341 10.9869 5.52843 10.8619C5.65346 10.7369 5.82303 10.6667 5.99984 10.6667H9.99984C10.1766 10.6667 10.3462 10.7369 10.4712 10.8619C10.5963 10.9869 10.6665 11.1565 10.6665 11.3333C10.6665 11.5101 10.5963 11.6797 10.4712 11.8047C10.3462 11.9298 10.1766 12 9.99984 12H5.99984C5.82303 12 5.65346 11.9298 5.52843 11.8047C5.40341 11.6797 5.33317 11.5101 5.33317 11.3333Z" fill="#069550"/>
</svg>
