<svg width="16" height="16" viewBox="0 0 16 16" fill="none" xmlns="http://www.w3.org/2000/svg">
<path d="M8.3 15.2C6.88 15.2 5.675 14.705 4.685 13.715C3.695 12.725 3.2 11.52 3.2 10.1V5C3.2 4.58 3.345 4.225 3.635 3.935C3.925 3.645 4.28 3.5 4.7 3.5C4.75 3.5 4.8 3.5024 4.85 3.5072C4.9 3.5124 4.95 3.52 5 3.53V3.2C5 2.78 5.145 2.425 5.435 2.135C5.725 1.845 6.08 1.7 6.5 1.7C6.57 1.7 6.6376 1.705 6.7028 1.715C6.7676 1.725 6.835 1.74 6.905 1.76C7.015 1.47 7.195 1.2376 7.445 1.0628C7.695 0.887603 7.98 0.800003 8.3 0.800003C8.67 0.800003 8.9926 0.917403 9.2678 1.1522C9.5426 1.3874 9.71 1.68 9.77 2.03C9.82 2.02 9.8726 2.0124 9.9278 2.0072C9.9826 2.0024 10.04 2 10.1 2C10.52 2 10.875 2.145 11.165 2.435C11.455 2.725 11.6 3.08 11.6 3.5V5.63C11.65 5.62 11.7 5.6124 11.75 5.6072C11.8 5.6024 11.85 5.6 11.9 5.6C12.32 5.6 12.675 5.745 12.965 6.035C13.255 6.325 13.4 6.68 13.4 7.1V10.1C13.4 11.52 12.905 12.725 11.915 13.715C10.925 14.705 9.72 15.2 8.3 15.2ZM8.3 14C8.84 14 9.3476 13.8976 9.8228 13.6928C10.2976 13.4876 10.71 13.21 11.06 12.86C11.41 12.51 11.6876 12.0976 11.8928 11.6228C12.0976 11.1476 12.2 10.64 12.2 10.1V7.1C12.2 7.02 12.17 6.95 12.11 6.89C12.05 6.83 11.98 6.8 11.9 6.8C11.82 6.8 11.75 6.83 11.69 6.89C11.63 6.95 11.6 7.02 11.6 7.1V8.855C11.6 9.105 11.54 9.3224 11.42 9.5072C11.3 9.6924 11.105 9.85 10.835 9.98C10.605 10.09 10.4076 10.24 10.2428 10.43C10.0776 10.62 9.955 10.835 9.875 11.075C9.825 11.235 9.7426 11.3624 9.6278 11.4572C9.5126 11.5524 9.385 11.6 9.245 11.6C9.055 11.6 8.9024 11.535 8.7872 11.405C8.6724 11.275 8.635 11.125 8.675 10.955C8.785 10.475 8.99 10.0524 9.29 9.6872C9.59 9.3224 9.96 9.045 10.4 8.855V3.5C10.4 3.42 10.37 3.35 10.31 3.29C10.25 3.23 10.18 3.2 10.1 3.2C10.02 3.2 9.95 3.23 9.89 3.29C9.83 3.35 9.8 3.42 9.8 3.5V6.8C9.8 6.97 9.7426 7.1124 9.6278 7.2272C9.5126 7.3424 9.37 7.4 9.2 7.4C9.03 7.4 8.8876 7.3424 8.7728 7.2272C8.6576 7.1124 8.6 6.97 8.6 6.8V2.3C8.6 2.22 8.57 2.15 8.51 2.09C8.45 2.03 8.38 2 8.3 2C8.22 2 8.15 2.03 8.09 2.09C8.03 2.15 8 2.22 8 2.3V6.8C8 6.97 7.9426 7.1124 7.8278 7.2272C7.7126 7.3424 7.57 7.4 7.4 7.4C7.23 7.4 7.0876 7.3424 6.9728 7.2272C6.8576 7.1124 6.8 6.97 6.8 6.8V3.2C6.8 3.12 6.77 3.05 6.71 2.99C6.65 2.93 6.58 2.9 6.5 2.9C6.42 2.9 6.35 2.93 6.29 2.99C6.23 3.05 6.2 3.12 6.2 3.2V7.4C6.2 7.57 6.1426 7.7124 6.0278 7.8272C5.9126 7.9424 5.77 8 5.6 8C5.43 8 5.2874 7.9424 5.1722 7.8272C5.0574 7.7124 5 7.57 5 7.4V5C5 4.92 4.97 4.85 4.91 4.79C4.85 4.73 4.78 4.7 4.7 4.7C4.62 4.7 4.55 4.73 4.49 4.79C4.43 4.85 4.4 4.92 4.4 5V10.1C4.4 10.64 4.5026 11.1476 4.7078 11.6228C4.9126 12.0976 5.19 12.51 5.54 12.86C5.89 13.21 6.3026 13.4876 6.7778 13.6928C7.2526 13.8976 7.76 14 8.3 14Z" fill="white"/>
</svg>
