<svg width="16" height="16" viewBox="0 0 16 16" fill="none" xmlns="http://www.w3.org/2000/svg">
<path d="M3.33333 14.6667V1.98334C3.33333 1.79445 3.39733 1.63889 3.52533 1.51667C3.65333 1.39445 3.81155 1.33334 3.99999 1.33334C4.18888 1.33334 4.34733 1.39734 4.47533 1.52534C4.60333 1.65334 4.66711 1.81156 4.66666 2V2.66667H13.0167C13.25 2.66667 13.4333 2.764 13.5667 2.95867C13.7 3.15334 13.7222 3.36156 13.6333 3.58334L12.6667 6L13.6333 8.41667C13.7222 8.63889 13.7 8.84734 13.5667 9.042C13.4333 9.23667 13.25 9.33378 13.0167 9.33334H4.66666V14.6667H3.33333ZM8.33333 7.33334C8.69999 7.33334 9.01399 7.20267 9.27533 6.94134C9.53666 6.68 9.66711 6.36622 9.66666 6C9.66666 5.63334 9.53599 5.31934 9.27466 5.058C9.01333 4.79667 8.69955 4.66622 8.33333 4.66667C7.96666 4.66667 7.65266 4.79734 7.39133 5.05867C7.12999 5.32 6.99955 5.63378 6.99999 6C6.99999 6.36667 7.13066 6.68067 7.39199 6.942C7.65333 7.20334 7.96711 7.33378 8.33333 7.33334ZM4.66666 8H12.0333L11.2333 6L12.0333 4H4.66666V8Z" fill="white"/>
</svg>
