<svg width="16" height="16" viewBox="0 0 16 16" fill="none" xmlns="http://www.w3.org/2000/svg">
<path d="M5.33333 13.3333C4.03333 13.3333 2.93067 12.8804 2.02533 11.9747C1.11956 11.0693 0.666667 9.96667 0.666667 8.66667C0.666667 7.46667 1.06111 6.42222 1.85 5.53333C2.63889 4.64444 3.61667 4.13333 4.78333 4L4.18333 3.4C4.06111 3.27778 4 3.12489 4 2.94133C4 2.75822 4.06667 2.6 4.2 2.46667C4.32222 2.34444 4.47778 2.28333 4.66667 2.28333C4.85556 2.28333 5.01111 2.34444 5.13333 2.46667L6.86667 4.2C6.93333 4.26667 6.98067 4.33889 7.00867 4.41667C7.03622 4.49444 7.05 4.57778 7.05 4.66667C7.05 4.75556 7.03622 4.83889 7.00867 4.91667C6.98067 4.99444 6.93333 5.06667 6.86667 5.13333L5.13333 6.86667C5.01111 6.98889 4.85844 7.05267 4.67533 7.058C4.49178 7.06378 4.33333 7 4.2 6.86667C4.07778 6.74444 4.01667 6.59156 4.01667 6.408C4.01667 6.22489 4.07778 6.06667 4.2 5.93333L4.71667 5.4C3.93889 5.55556 3.29156 5.93333 2.77467 6.53333C2.25822 7.13333 2 7.84444 2 8.66667C2 9.58889 2.32511 10.3751 2.97533 11.0253C3.62511 11.6751 4.41111 12 5.33333 12H6.66667C6.85556 12 7.014 12.064 7.142 12.192C7.26956 12.3196 7.33333 12.4778 7.33333 12.6667C7.33333 12.8556 7.26956 13.0138 7.142 13.1413C7.014 13.2693 6.85556 13.3333 6.66667 13.3333H5.33333ZM10 13.3333C9.63333 13.3333 9.31956 13.2029 9.05867 12.942C8.79733 12.6807 8.66667 12.3667 8.66667 12V10C8.66667 9.63333 8.79733 9.31933 9.05867 9.058C9.31956 8.79711 9.63333 8.66667 10 8.66667H13.3333C13.7 8.66667 14.014 8.79711 14.2753 9.058C14.5362 9.31933 14.6667 9.63333 14.6667 10V12C14.6667 12.3667 14.5362 12.6807 14.2753 12.942C14.014 13.2029 13.7 13.3333 13.3333 13.3333H10ZM10 12H13.3333V10H10V12ZM10 7.33333C9.63333 7.33333 9.31956 7.20267 9.05867 6.94133C8.79733 6.68044 8.66667 6.36667 8.66667 6V4C8.66667 3.63333 8.79733 3.31956 9.05867 3.05867C9.31956 2.79733 9.63333 2.66667 10 2.66667H13.3333C13.7 2.66667 14.014 2.79733 14.2753 3.05867C14.5362 3.31956 14.6667 3.63333 14.6667 4V6C14.6667 6.36667 14.5362 6.68044 14.2753 6.94133C14.014 7.20267 13.7 7.33333 13.3333 7.33333H10Z" fill="white"/>
</svg>
