<svg width="16" height="16" viewBox="0 0 16 16" fill="none" xmlns="http://www.w3.org/2000/svg">
<path d="M12.1167 12H8.66667C8.47778 12 8.31933 11.936 8.19133 11.808C8.06333 11.68 7.99956 11.5218 8 11.3334C8 11.1445 8.064 10.986 8.192 10.858C8.32 10.73 8.47822 10.6662 8.66667 10.6667H12.1167L11.5167 10.0667C11.3944 9.94447 11.3333 9.79158 11.3333 9.60802C11.3333 9.42447 11.4 9.26624 11.5333 9.13336C11.6556 9.01113 11.8111 8.95002 12 8.95002C12.1889 8.95002 12.3444 9.01113 12.4667 9.13336L14.2 10.8667C14.3333 11 14.4 11.1556 14.4 11.3334C14.4 11.5111 14.3333 11.6667 14.2 11.8L12.4667 13.5334C12.3333 13.6667 12.1778 13.7307 12 13.7254C11.8222 13.72 11.6667 13.6505 11.5333 13.5167C11.4111 13.3834 11.3471 13.2278 11.3413 13.05C11.3356 12.8722 11.3996 12.7167 11.5333 12.5834L12.1167 12ZM3.33333 14C2.96667 14 2.65267 13.8694 2.39133 13.608C2.13 13.3467 1.99956 13.0329 2 12.6667V3.33335C2 2.96669 2.13067 2.65269 2.392 2.39135C2.65333 2.13002 2.96711 1.99958 3.33333 2.00002H6.11667C6.23889 1.61113 6.47778 1.29158 6.83333 1.04135C7.18889 0.791133 7.57778 0.666244 8 0.666688C8.44445 0.666688 8.84178 0.791799 9.192 1.04202C9.54222 1.29224 9.77822 1.61158 9.9 2.00002H12.6667C13.0333 2.00002 13.3473 2.13069 13.6087 2.39202C13.87 2.65335 14.0004 2.96713 14 3.33335V6.66669C14 6.85558 13.936 7.01402 13.808 7.14202C13.68 7.27002 13.5218 7.3338 13.3333 7.33335C13.1444 7.33335 12.986 7.26936 12.858 7.14136C12.73 7.01336 12.6662 6.85513 12.6667 6.66669V3.33335H11.3333V4.66669C11.3333 4.85558 11.2693 5.01402 11.1413 5.14202C11.0133 5.27002 10.8551 5.3338 10.6667 5.33335H5.33333C5.14445 5.33335 4.986 5.26935 4.858 5.14136C4.73 5.01335 4.66622 4.85513 4.66667 4.66669V3.33335H3.33333V12.6667H6C6.18889 12.6667 6.34733 12.7307 6.47533 12.8587C6.60333 12.9867 6.66711 13.1449 6.66667 13.3334C6.66667 13.5222 6.60267 13.6807 6.47467 13.8087C6.34667 13.9367 6.18845 14.0005 6 14H3.33333ZM8 3.33335C8.18889 3.33335 8.34733 3.26935 8.47533 3.14135C8.60333 3.01335 8.66711 2.85513 8.66667 2.66669C8.66667 2.4778 8.60267 2.31935 8.47467 2.19135C8.34667 2.06335 8.18845 1.99958 8 2.00002C7.81111 2.00002 7.65267 2.06402 7.52467 2.19202C7.39667 2.32002 7.33289 2.47824 7.33333 2.66669C7.33333 2.85558 7.39733 3.01402 7.52533 3.14202C7.65333 3.27002 7.81156 3.3338 8 3.33335Z" fill="white"/>
</svg>
