<svg width="13" height="15" viewBox="0 0 13 15" fill="none" xmlns="http://www.w3.org/2000/svg">
<path d="M9.33333 14.6667C8.41111 14.6667 7.62511 14.3418 6.97533 13.692C6.32511 13.0418 6 12.2556 6 11.3333C6 10.4111 6.32511 9.62489 6.97533 8.97467C7.62511 8.32489 8.41111 8 9.33333 8C10.2556 8 11.0418 8.32489 11.692 8.97467C12.3418 9.62489 12.6667 10.4111 12.6667 11.3333C12.6667 12.2556 12.3418 13.0418 11.692 13.692C11.0418 14.3418 10.2556 14.6667 9.33333 14.6667ZM10.2167 12.6833C10.2833 12.75 10.3611 12.7833 10.45 12.7833C10.5389 12.7833 10.6167 12.75 10.6833 12.6833C10.75 12.6167 10.7833 12.5389 10.7833 12.45C10.7833 12.3611 10.75 12.2833 10.6833 12.2167L9.66667 11.2V9.66667C9.66667 9.57778 9.63333 9.5 9.56667 9.43333C9.5 9.36667 9.42222 9.33333 9.33333 9.33333C9.24444 9.33333 9.16667 9.36667 9.1 9.43333C9.03333 9.5 9 9.57778 9 9.66667V11.1833C9 11.2722 9.01667 11.3584 9.05 11.442C9.08333 11.5251 9.13333 11.6 9.2 11.6667L10.2167 12.6833ZM1.33333 14C0.966667 14 0.652667 13.8696 0.391333 13.6087C0.130444 13.3473 0 13.0333 0 12.6667V3.33333C0 2.96667 0.130444 2.65267 0.391333 2.39133C0.652667 2.13044 0.966667 2 1.33333 2H4.11667C4.23889 1.61111 4.47778 1.29155 4.83333 1.04133C5.18889 0.791555 5.57778 0.666666 6 0.666666C6.44444 0.666666 6.84178 0.791555 7.192 1.04133C7.54178 1.29155 7.77778 1.61111 7.9 2H10.6667C11.0333 2 11.3473 2.13044 11.6087 2.39133C11.8696 2.65267 12 2.96667 12 3.33333V7.5C11.8 7.35556 11.5889 7.23333 11.3667 7.13333C11.1444 7.03333 10.9111 6.94444 10.6667 6.86667V3.33333H9.33333V4C9.33333 4.36667 9.20289 4.68044 8.942 4.94133C8.68067 5.20267 8.36667 5.33333 8 5.33333H4C3.63333 5.33333 3.31956 5.20267 3.05867 4.94133C2.79733 4.68044 2.66667 4.36667 2.66667 4V3.33333H1.33333V12.6667H4.86667C4.94444 12.9111 5.03333 13.1444 5.13333 13.3667C5.23333 13.5889 5.35556 13.8 5.5 14H1.33333ZM6 3.33333C6.18889 3.33333 6.34733 3.26933 6.47533 3.14133C6.60289 3.01378 6.66667 2.85556 6.66667 2.66667C6.66667 2.47778 6.60289 2.31933 6.47533 2.19133C6.34733 2.06378 6.18889 2 6 2C5.81111 2 5.65289 2.06378 5.52533 2.19133C5.39733 2.31933 5.33333 2.47778 5.33333 2.66667C5.33333 2.85556 5.39733 3.01378 5.52533 3.14133C5.65289 3.26933 5.81111 3.33333 6 3.33333Z" fill="white"/>
</svg>
