<svg width="16" height="16" viewBox="0 0 16 16" fill="none" xmlns="http://www.w3.org/2000/svg">
<path d="M12.1167 12H8.66667C8.47778 12 8.31933 11.936 8.19133 11.808C8.06333 11.68 7.99956 11.5218 8 11.3333C8 11.1444 8.064 10.986 8.192 10.858C8.32 10.73 8.47822 10.6662 8.66667 10.6667H12.1167L11.5167 10.0667C11.3944 9.94444 11.3333 9.79155 11.3333 9.608C11.3333 9.42444 11.4 9.26622 11.5333 9.13333C11.6556 9.01111 11.8111 8.95 12 8.95C12.1889 8.95 12.3444 9.01111 12.4667 9.13333L14.2 10.8667C14.3333 11 14.4 11.1556 14.4 11.3333C14.4 11.5111 14.3333 11.6667 14.2 11.8L12.4667 13.5333C12.3333 13.6667 12.1778 13.7307 12 13.7253C11.8222 13.72 11.6667 13.6504 11.5333 13.5167C11.4111 13.3833 11.3471 13.2278 11.3413 13.05C11.3356 12.8722 11.3996 12.7167 11.5333 12.5833L12.1167 12ZM3.33333 14C2.96667 14 2.65267 13.8693 2.39133 13.608C2.13 13.3467 1.99956 13.0329 2 12.6667V3.33333C2 2.96667 2.13067 2.65267 2.392 2.39133C2.65333 2.13 2.96711 1.99955 3.33333 2H6.11667C6.23889 1.61111 6.47778 1.29155 6.83333 1.04133C7.18889 0.79111 7.57778 0.666221 8 0.666665C8.44445 0.666665 8.84178 0.791776 9.192 1.042C9.54222 1.29222 9.77822 1.61155 9.9 2H12.6667C13.0333 2 13.3473 2.13067 13.6087 2.392C13.87 2.65333 14.0004 2.96711 14 3.33333V6.66667C14 6.85555 13.936 7.014 13.808 7.142C13.68 7.27 13.5218 7.33378 13.3333 7.33333C13.1444 7.33333 12.986 7.26933 12.858 7.14133C12.73 7.01333 12.6662 6.85511 12.6667 6.66667V3.33333H11.3333V4.66667C11.3333 4.85555 11.2693 5.014 11.1413 5.142C11.0133 5.27 10.8551 5.33378 10.6667 5.33333H5.33333C5.14445 5.33333 4.986 5.26933 4.858 5.14133C4.73 5.01333 4.66622 4.85511 4.66667 4.66667V3.33333H3.33333V12.6667H6C6.18889 12.6667 6.34733 12.7307 6.47533 12.8587C6.60333 12.9867 6.66711 13.1449 6.66667 13.3333C6.66667 13.5222 6.60267 13.6807 6.47467 13.8087C6.34667 13.9367 6.18845 14.0004 6 14H3.33333ZM8 3.33333C8.18889 3.33333 8.34733 3.26933 8.47533 3.14133C8.60333 3.01333 8.66711 2.85511 8.66667 2.66667C8.66667 2.47778 8.60267 2.31933 8.47467 2.19133C8.34667 2.06333 8.18845 1.99955 8 2C7.81111 2 7.65267 2.064 7.52467 2.192C7.39667 2.32 7.33289 2.47822 7.33333 2.66667C7.33333 2.85555 7.39733 3.014 7.52533 3.142C7.65333 3.27 7.81156 3.33378 8 3.33333Z" fill="white"/>
</svg>
