<svg width="16" height="16" viewBox="0 0 16 16" fill="none" xmlns="http://www.w3.org/2000/svg">
<path d="M14 12.1L12.6667 10.7667V3.33333H11.3333V4.66667C11.3333 4.85555 11.2693 5.014 11.1413 5.142C11.0133 5.27 10.8551 5.33378 10.6667 5.33333H7.23334L3.9 2H6.11667C6.23889 1.61111 6.47778 1.29155 6.83333 1.04133C7.18889 0.79111 7.57778 0.666221 8 0.666665C8.44445 0.666665 8.84178 0.791776 9.192 1.042C9.54222 1.29222 9.77822 1.61155 9.9 2H12.6667C13.0333 2 13.3473 2.13067 13.6087 2.392C13.87 2.65333 14.0004 2.96711 14 3.33333V12.1ZM8 3.33333C8.18889 3.33333 8.34733 3.26933 8.47534 3.14133C8.60333 3.01333 8.66711 2.85511 8.66667 2.66667C8.66667 2.47778 8.60267 2.31933 8.47467 2.19133C8.34667 2.06333 8.18845 1.99955 8 2C7.81111 2 7.65267 2.064 7.52467 2.192C7.39667 2.32 7.33289 2.47822 7.33333 2.66667C7.33333 2.85555 7.39734 3.014 7.52533 3.142C7.65334 3.27 7.81156 3.33378 8 3.33333ZM10.7667 12.6667L3.33333 5.23333V12.6667H10.7667ZM3.33333 14C2.96667 14 2.65267 13.8693 2.39133 13.608C2.13 13.3467 1.99956 13.0329 2 12.6667V3.9L1.38333 3.28333C1.25 3.15 1.18333 2.99178 1.18333 2.80867C1.18333 2.62555 1.25 2.46711 1.38333 2.33333C1.51667 2.2 1.67511 2.13333 1.85867 2.13333C2.04222 2.13333 2.20045 2.2 2.33333 2.33333L13.6667 13.6667C13.8 13.8 13.8667 13.9556 13.8667 14.1333C13.8667 14.3111 13.8 14.4667 13.6667 14.6C13.5333 14.7333 13.3749 14.8 13.1913 14.8C13.0078 14.8 12.8496 14.7333 12.7167 14.6L12.1 14H3.33333Z" fill="white"/>
</svg>
