<svg width="16" height="16" viewBox="0 0 16 16" fill="none" xmlns="http://www.w3.org/2000/svg">
<path d="M3.33333 12.6667H9.33333V10C9.33333 9.81111 9.39733 9.65267 9.52533 9.52467C9.65289 9.39711 9.81111 9.33333 10 9.33333H12.6667V3.33333H3.33333V12.6667ZM3.33333 14C2.96667 14 2.65267 13.8696 2.39133 13.6087C2.13044 13.3473 2 13.0333 2 12.6667V3.33333C2 2.96667 2.13044 2.65267 2.39133 2.39133C2.65267 2.13044 2.96667 2 3.33333 2H12.6667C13.0333 2 13.3473 2.13044 13.6087 2.39133C13.8696 2.65267 14 2.96667 14 3.33333V10L10 14H3.33333ZM5.33333 9.33333C5.14444 9.33333 4.986 9.26933 4.858 9.14133C4.73044 9.01378 4.66667 8.85556 4.66667 8.66667C4.66667 8.47778 4.73044 8.31933 4.858 8.19133C4.986 8.06378 5.14444 8 5.33333 8H7.33333C7.52222 8 7.68067 8.06378 7.80867 8.19133C7.93622 8.31933 8 8.47778 8 8.66667C8 8.85556 7.93622 9.01378 7.80867 9.14133C7.68067 9.26933 7.52222 9.33333 7.33333 9.33333H5.33333ZM5.33333 6.66667C5.14444 6.66667 4.986 6.60267 4.858 6.47467C4.73044 6.34711 4.66667 6.18889 4.66667 6C4.66667 5.81111 4.73044 5.65267 4.858 5.52467C4.986 5.39711 5.14444 5.33333 5.33333 5.33333H10.6667C10.8556 5.33333 11.0138 5.39711 11.1413 5.52467C11.2693 5.65267 11.3333 5.81111 11.3333 6C11.3333 6.18889 11.2693 6.34711 11.1413 6.47467C11.0138 6.60267 10.8556 6.66667 10.6667 6.66667H5.33333ZM3.33333 12.6667V3.33333V12.6667Z" fill="white"/>
</svg>
