<svg width="16" height="16" viewBox="0 0 16 16" fill="none" xmlns="http://www.w3.org/2000/svg">
<path d="M9.66667 12C9.2 12 8.80556 11.8389 8.48333 11.5167C8.16111 11.1944 8 10.8 8 10.3333C8 9.86667 8.16111 9.47222 8.48333 9.15C8.80556 8.82778 9.2 8.66667 9.66667 8.66667C10.1333 8.66667 10.5278 8.82778 10.85 9.15C11.1722 9.47222 11.3333 9.86667 11.3333 10.3333C11.3333 10.8 11.1722 11.1944 10.85 11.5167C10.5278 11.8389 10.1333 12 9.66667 12ZM3.33333 14.6667C2.96667 14.6667 2.65267 14.5362 2.39133 14.2753C2.13044 14.014 2 13.7 2 13.3333V4C2 3.63334 2.13044 3.31956 2.39133 3.05867C2.65267 2.79734 2.96667 2.66667 3.33333 2.66667H4V2C4 1.81111 4.06378 1.65267 4.19133 1.52467C4.31933 1.39711 4.47778 1.33334 4.66667 1.33334C4.85556 1.33334 5.014 1.39711 5.142 1.52467C5.26956 1.65267 5.33333 1.81111 5.33333 2V2.66667H10.6667V2C10.6667 1.81111 10.7307 1.65267 10.8587 1.52467C10.9862 1.39711 11.1444 1.33334 11.3333 1.33334C11.5222 1.33334 11.6804 1.39711 11.808 1.52467C11.936 1.65267 12 1.81111 12 2V2.66667H12.6667C13.0333 2.66667 13.3473 2.79734 13.6087 3.05867C13.8696 3.31956 14 3.63334 14 4V13.3333C14 13.7 13.8696 14.014 13.6087 14.2753C13.3473 14.5362 13.0333 14.6667 12.6667 14.6667H3.33333ZM3.33333 13.3333H12.6667V6.66667H3.33333V13.3333ZM3.33333 5.33334H12.6667V4H3.33333V5.33334ZM3.33333 5.33334V4V5.33334Z" fill="white"/>
</svg>
