<svg width="16" height="16" viewBox="0 0 16 16" fill="none" xmlns="http://www.w3.org/2000/svg">
<path d="M13.725 2.55C13.6412 2.50997 13.548 2.49348 13.4556 2.50229C13.3631 2.51109 13.2748 2.54487 13.2 2.6C11.4312 3.925 9.93125 3.2875 8.2 2.54375C6.46875 1.8 4.43125 0.924997 2.2 2.6C2.1379 2.64657 2.0875 2.70696 2.05279 2.77639C2.01807 2.84582 2 2.92237 2 3V13.5C2 13.6326 2.05268 13.7598 2.14645 13.8535C2.24021 13.9473 2.36739 14 2.5 14C2.63261 14 2.75979 13.9473 2.85355 13.8535C2.94732 13.7598 3 13.6326 3 13.5V10.7562C4.68125 9.625 6.13125 10.2437 7.8 10.9625C8.81875 11.3937 9.9125 11.8625 11.0875 11.8625C11.95 11.8625 12.8562 11.6125 13.8 10.9C13.8617 10.8531 13.9119 10.7926 13.9466 10.7233C13.9812 10.6539 13.9995 10.5775 14 10.5V3C13.9992 2.90711 13.9733 2.81617 13.9248 2.73691C13.8764 2.65765 13.8073 2.59304 13.725 2.55ZM9.75 10.6437V7.3C8.56875 6.9625 7.43125 6.30625 6.25 5.96875V9.31875C5.23125 9.05625 4.15 9.01875 3 9.6V6.3C4.14375 5.6375 5.2125 5.675 6.25 5.96875V2.85625C6.77735 3.02988 7.29479 3.23227 7.8 3.4625C8.425 3.725 9.075 4.00625 9.75 4.18125V7.3C10.7875 7.59375 11.8562 7.63125 13 6.96875V10.2437C11.8562 11.0125 10.8188 10.975 9.75 10.6437Z" fill="white"/>
</svg>
