<svg width="16" height="16" viewBox="0 0 16 16" fill="none" xmlns="http://www.w3.org/2000/svg">
<path d="M7 11.3333C6.91226 11.3338 6.82529 11.317 6.74406 11.2838C6.66284 11.2507 6.58896 11.2018 6.52667 11.14C6.46418 11.078 6.41459 11.0043 6.38074 10.9231C6.34689 10.8418 6.32947 10.7547 6.32947 10.6667C6.32947 10.5787 6.34689 10.4915 6.38074 10.4103C6.41459 10.329 6.46418 10.2553 6.52667 10.1933L8.73333 8L6.61333 5.79333C6.48917 5.66843 6.41947 5.49946 6.41947 5.32333C6.41947 5.14721 6.48917 4.97824 6.61333 4.85333C6.67531 4.79085 6.74904 4.74125 6.83028 4.70741C6.91152 4.67356 6.99866 4.65614 7.08667 4.65614C7.17467 4.65614 7.26181 4.67356 7.34305 4.70741C7.42429 4.74125 7.49802 4.79085 7.56 4.85333L10.1333 7.52C10.2555 7.64462 10.3239 7.81217 10.3239 7.98667C10.3239 8.16117 10.2555 8.32872 10.1333 8.45333L7.46667 11.12C7.40683 11.1846 7.33478 11.2367 7.25468 11.2734C7.17458 11.31 7.08802 11.3304 7 11.3333Z" fill="black"/>
</svg>
