<svg width="28" height="28" viewBox="0 0 28 28" fill="none" xmlns="http://www.w3.org/2000/svg">
<rect width="28" height="28" rx="14" fill="#F5F5F5"/>
<path d="M9.33333 18.6667H15.3333V16C15.3333 15.8111 15.3973 15.6527 15.5253 15.5247C15.6529 15.3971 15.8111 15.3333 16 15.3333H18.6667V9.33333H9.33333V18.6667ZM9.33333 20C8.96667 20 8.65267 19.8696 8.39133 19.6087C8.13044 19.3473 8 19.0333 8 18.6667V9.33333C8 8.96667 8.13044 8.65267 8.39133 8.39133C8.65267 8.13044 8.96667 8 9.33333 8H18.6667C19.0333 8 19.3473 8.13044 19.6087 8.39133C19.8696 8.65267 20 8.96667 20 9.33333V16L16 20H9.33333ZM11.3333 15.3333C11.1444 15.3333 10.986 15.2693 10.858 15.1413C10.7304 15.0138 10.6667 14.8556 10.6667 14.6667C10.6667 14.4778 10.7304 14.3193 10.858 14.1913C10.986 14.0638 11.1444 14 11.3333 14H13.3333C13.5222 14 13.6807 14.0638 13.8087 14.1913C13.9362 14.3193 14 14.4778 14 14.6667C14 14.8556 13.9362 15.0138 13.8087 15.1413C13.6807 15.2693 13.5222 15.3333 13.3333 15.3333H11.3333ZM11.3333 12.6667C11.1444 12.6667 10.986 12.6027 10.858 12.4747C10.7304 12.3471 10.6667 12.1889 10.6667 12C10.6667 11.8111 10.7304 11.6527 10.858 11.5247C10.986 11.3971 11.1444 11.3333 11.3333 11.3333H16.6667C16.8556 11.3333 17.0138 11.3971 17.1413 11.5247C17.2693 11.6527 17.3333 11.8111 17.3333 12C17.3333 12.1889 17.2693 12.3471 17.1413 12.4747C17.0138 12.6027 16.8556 12.6667 16.6667 12.6667H11.3333ZM9.33333 18.6667V9.33333V18.6667Z" fill="#16A75C"/>
</svg>
