<svg width="28" height="28" viewBox="0 0 28 28" fill="none" xmlns="http://www.w3.org/2000/svg">
<rect width="28" height="28" rx="14" fill="#F5F5F5"/>
<path fill-rule="evenodd" clip-rule="evenodd" d="M8.96005 8.96C8.76909 8.96 8.58596 9.03586 8.45093 9.17089C8.31591 9.30591 8.24005 9.48905 8.24005 9.68V18.32C8.24005 18.511 8.31591 18.6941 8.45093 18.8291C8.58596 18.9641 8.76909 19.04 8.96005 19.04H16.8801V9.68C16.8801 9.48905 16.8042 9.30591 16.6692 9.17089C16.5341 9.03586 16.351 8.96 16.1601 8.96H8.96005ZM8.96005 7.52C8.38718 7.52 7.83778 7.74757 7.4327 8.15265C7.02762 8.55773 6.80005 9.10714 6.80005 9.68V18.32C6.80005 18.8929 7.02762 19.4423 7.4327 19.8474C7.83778 20.2524 8.38718 20.48 8.96005 20.48H19.0401C19.6129 20.48 20.1623 20.2524 20.5674 19.8474C20.9725 19.4423 21.2001 18.8929 21.2001 18.32V11.84C21.2001 11.2671 20.9725 10.7177 20.5674 10.3127C20.1623 9.90758 19.6129 9.68 19.0401 9.68H18.3201C18.3201 9.10714 18.0925 8.55773 17.6874 8.15265C17.2823 7.74758 16.7329 7.52 16.1601 7.52H8.96005ZM18.3201 11.12V18.32C18.3201 18.511 18.3959 18.6941 18.5309 18.8291C18.666 18.9641 18.8491 19.04 19.0401 19.04C19.231 19.04 19.4141 18.9641 19.5492 18.8291C19.6842 18.6941 19.7601 18.511 19.7601 18.32V11.84C19.7601 11.649 19.6842 11.4659 19.5492 11.3309C19.4141 11.1959 19.231 11.12 19.0401 11.12H18.3201ZM9.68005 11.12C9.68005 10.7224 10.0024 10.4 10.4 10.4H14.7201C15.1177 10.4 15.4401 10.7224 15.4401 11.12V14C15.4401 14.3977 15.1177 14.72 14.7201 14.72H10.4C10.0024 14.72 9.68005 14.3977 9.68005 14V11.12ZM11.12 11.84V13.28H14.0001V11.84H11.12ZM9.68005 16.88C9.68005 16.4824 10.0024 16.16 10.4 16.16H14.7201C15.1177 16.16 15.4401 16.4824 15.4401 16.88C15.4401 17.2777 15.1177 17.6 14.7201 17.6H10.4C10.0024 17.6 9.68005 17.2777 9.68005 16.88Z" fill="#069550"/>
</svg>
