<svg width="80" height="80" viewBox="0 0 80 80" fill="none" xmlns="http://www.w3.org/2000/svg">
<path d="M18.473 29.0494C18.473 26.6895 20.3861 24.7764 22.746 24.7764H56.8451C59.205 24.7764 61.1181 26.6895 61.1181 29.0494V54.3826C60.6094 56.7063 59.205 58.6557 56.8451 58.6557H22.746C20.3861 58.6557 18.9516 56.7656 18.473 54.3826V29.0494Z" fill="#069550"/>
<path d="M18.473 37.7441C18.473 35.3842 20.3861 33.4711 22.746 33.4711H31.7748C32.6027 33.4711 33.4127 33.7116 34.1065 34.1633L38.6446 37.1184C39.3384 37.5701 40.1484 37.8106 40.9763 37.8106H56.8451C59.205 37.8106 61.1181 39.7237 61.1181 42.0836V53.9638C61.1181 54.2428 61.0945 54.5221 61.0257 54.7925C60.482 56.9309 59.065 58.6563 56.8451 58.6563H22.746C20.5252 58.6563 19.1147 56.9543 18.5659 54.7943C18.4969 54.5227 18.473 54.2421 18.473 53.9619V37.7441Z" fill="#058748"/>
<path d="M16.6757 41.8065C16.3272 38.5708 20.386 37.4711 22.746 37.4711H31.7748C32.6027 37.4711 33.4127 37.7116 34.1065 38.1633L38.6446 41.1184C39.3383 41.5701 40.1484 41.8106 40.9763 41.8106H56.8451C59.205 41.8106 63.2399 42.8007 62.6691 46.0762C62.1041 49.318 61.1382 54.28 61.1184 54.3817C61.1178 54.3849 61.1178 54.3849 61.1172 54.3881C60.6676 56.661 59.2034 58.6563 56.8451 58.6563H22.746C20.4176 58.6563 18.9901 56.8057 18.4927 54.4782C18.4792 54.4151 18.4684 54.3542 18.4586 54.2905C18.3073 53.3116 17.0037 44.853 16.6757 41.8065Z" fill="#1FB767"/>
<rect x="45.2896" y="52.2286" width="2.6704" height="3.04641" transform="rotate(-40 45.2896 52.2286)" fill="#4F517B"/>
<path d="M47.1838 52.9469C46.9395 52.6558 46.9775 52.2218 47.2686 51.9775L48.0291 51.3394L49.2937 52.8465L48.0061 53.9269L47.1838 52.9469Z" fill="#7274A4"/>
<path d="M46.812 55.6073C46.5629 55.3104 46.6016 54.8677 46.8985 54.6186L49.4092 52.5119C49.7061 52.2627 50.1488 52.3015 50.3979 52.5984L57.9157 61.5577C58.7466 62.5479 58.6174 64.0242 57.6272 64.8551C56.637 65.686 55.1607 65.5569 54.3298 64.5666L46.812 55.6073Z" fill="#FF7500"/>
<path d="M46.8985 54.6189C46.6016 54.868 46.5629 55.3107 46.812 55.6076L54.3298 64.5669C54.6548 64.9543 55.0786 65.2099 55.5334 65.3278C56.389 65.5496 56.6616 64.4961 56.0861 63.8252L50.3276 57.1115C49.8328 56.5346 49.8994 55.6659 50.4762 55.1711L51.6858 54.1336L50.3979 52.5987C50.1488 52.3018 49.7061 52.263 49.4092 52.5122L46.8985 54.6189Z" fill="#FFA600"/>
<path fill-rule="evenodd" clip-rule="evenodd" d="M46.7701 51.7535C51.7509 47.574 52.4006 40.1481 48.2212 35.1672C44.0417 30.1863 36.6158 29.5367 31.6349 33.7161C26.654 37.8956 26.0043 45.3215 30.1838 50.3024C34.3632 55.2833 41.7892 55.9329 46.7701 51.7535ZM45.422 50.1469C49.5156 46.712 50.0496 40.6089 46.6146 36.5153C43.1797 32.4217 37.0766 31.8877 32.9829 35.3226C28.8893 38.7576 28.3554 44.8607 31.7903 48.9543C35.2253 53.048 41.3284 53.5819 45.422 50.1469Z" fill="#383858"/>
<path fill-rule="evenodd" clip-rule="evenodd" d="M45.4943 50.2329C49.6355 46.7581 50.1756 40.5841 46.7008 36.4429C43.2259 32.3017 37.0519 31.7616 32.9108 35.2364C28.7696 38.7113 28.2295 44.8853 31.7043 49.0264C35.1791 53.1676 41.3531 53.7077 45.4943 50.2329ZM45.0402 49.6918C48.8826 46.4677 49.3837 40.7392 46.1596 36.8969C42.9355 33.0546 37.2071 32.5534 33.3648 35.7775C29.5224 39.0016 29.0213 44.73 32.2453 48.5724C35.4694 52.4147 41.1979 52.9159 45.0402 49.6918Z" fill="#5F618F"/>
<circle opacity="0.4" cx="39.2024" cy="42.7344" r="9.08191" transform="rotate(-40 39.2024 42.7344)" fill="#D2DEDF"/>
<path opacity="0.8" fill-rule="evenodd" clip-rule="evenodd" d="M39.8498 35.8137C39.8954 35.4815 40.2016 35.2493 40.5337 35.2949C41.4816 35.425 42.3625 35.7343 43.1457 36.1844C43.4363 36.3515 43.5365 36.7225 43.3695 37.0131C43.2024 37.3038 42.8314 37.404 42.5407 37.237C41.8908 36.8635 41.159 36.6061 40.3686 36.4976C40.0365 36.452 39.8042 36.1458 39.8498 35.8137ZM44.5129 38.0359C44.7828 37.8372 45.1628 37.8949 45.3616 38.1649C46.435 39.6229 46.9645 41.4859 46.6987 43.422C46.6531 43.7541 46.3469 43.9864 46.0147 43.9408C45.6826 43.8952 45.4503 43.589 45.4959 43.2569C45.7171 41.6463 45.2776 40.0985 44.3839 38.8846C44.1852 38.6147 44.2429 38.2347 44.5129 38.0359Z" fill="white"/>
<g clip-path="url(#clip0_4429_6191)">
<path d="M32.6083 18.8315V8.97597C32.6083 8.07008 33.345 7.33337 34.2509 7.33337H45.7491C46.655 7.33337 47.3917 8.07008 47.3917 8.97597V18.8315C47.3917 19.7374 46.655 20.4741 45.7491 20.4741H42.8745L40.6181 23.0529C40.2909 23.4269 39.7091 23.4269 39.3819 23.0529L37.1255 20.4741H34.2509C33.345 20.4741 32.6083 19.7374 32.6083 18.8315Z" fill="#EF5350"/>
<path d="M39.9999 10.0533C42.151 10.0533 43.8947 11.797 43.8947 13.9481C43.8947 16.0992 42.151 17.8429 39.9999 17.8429C37.8489 17.8429 36.1052 16.0992 36.1052 13.9481C36.1052 11.797 37.8489 10.0533 39.9999 10.0533ZM39.1739 12.5709C39.1039 12.5003 39.0097 12.4591 38.9104 12.4558C38.8111 12.4524 38.7142 12.4871 38.6397 12.5528C38.5651 12.6185 38.5185 12.7102 38.5093 12.8091C38.5002 12.9081 38.5292 13.0068 38.5904 13.085L38.6231 13.122L39.4488 13.9477L38.6231 14.7742C38.5525 14.8441 38.5113 14.9384 38.508 15.0377C38.5046 15.137 38.5393 15.2339 38.605 15.3084C38.6707 15.383 38.7624 15.4296 38.8614 15.4387C38.9603 15.4479 39.059 15.4189 39.1372 15.3576L39.1739 15.3253L39.9999 14.4988L40.826 15.3253C40.8959 15.3959 40.9902 15.4371 41.0895 15.4405C41.1888 15.4438 41.2857 15.4091 41.3602 15.3434C41.4348 15.2777 41.4814 15.186 41.4906 15.0871C41.4997 14.9882 41.4707 14.8895 41.4095 14.8112L41.3771 14.7742L40.5507 13.9481L41.3771 13.122C41.4477 13.0521 41.4889 12.9578 41.4923 12.8585C41.4957 12.7592 41.461 12.6624 41.3953 12.5878C41.3296 12.5133 41.2379 12.4667 41.1389 12.4575C41.04 12.4484 40.9413 12.4774 40.863 12.5386L40.826 12.5709L39.9999 13.3974L39.1739 12.5709Z" fill="white"/>
</g>
<defs>
<clipPath id="clip0_4429_6191">
<rect width="14.7833" height="16" fill="white" transform="translate(32.6083 7.33337)"/>
</clipPath>
</defs>
</svg>
