<svg width="40" height="40" viewBox="0 0 40 40" fill="none" xmlns="http://www.w3.org/2000/svg">
<path d="M32.5 17.2852V32.5C32.5 33.4946 32.1049 34.4484 31.4017 35.1517C30.6984 35.8549 29.7446 36.25 28.75 36.25H11.25C10.2554 36.25 9.30161 35.8549 8.59835 35.1517C7.89509 34.4484 7.5 33.4946 7.5 32.5V7.5C7.5 6.50544 7.89509 5.55161 8.59835 4.84835C9.30161 4.14509 10.2554 3.75 11.25 3.75H18.9648C19.6277 3.7501 20.2633 4.01341 20.732 4.48203L31.768 15.518C32.2366 15.9867 32.4999 16.6223 32.5 17.2852Z" stroke="#2196F3" stroke-width="2" stroke-linejoin="round"/>
<path d="M20 4.375V13.75C20 14.413 20.2634 15.0489 20.7322 15.5178C21.2011 15.9866 21.837 16.25 22.5 16.25H31.875M13.75 22.5H26.25M13.75 28.75H26.25" stroke="#2196F3" stroke-width="2" stroke-linecap="round" stroke-linejoin="round"/>
</svg>
