<svg width="72" height="72" viewBox="0 0 72 72" fill="none" xmlns="http://www.w3.org/2000/svg">
<rect width="72" height="72" rx="12" fill="#F6F6F9"/>
<rect x="14.3999" y="30.5384" width="35.1058" height="27.805" rx="3.41488" fill="#F3832E"/>
<path d="M14.3999 33.9533C14.3999 32.0673 15.9288 30.5384 17.8148 30.5384H32.7635V58.3435H17.8148C15.9288 58.3435 14.3999 56.8146 14.3999 54.9286V33.9533Z" fill="#FCB73F"/>
<path d="M23.1368 32.7753C23.4119 32.7753 23.6368 32.9986 23.6164 33.2729C23.5635 33.987 23.397 34.6893 23.1221 35.3528C22.7837 36.17 22.2875 36.9125 21.6621 37.538C21.0366 38.1634 20.2941 38.6595 19.477 38.998C18.8134 39.2729 18.1111 39.4394 17.397 39.4923C17.1227 39.5126 16.8994 39.2878 16.8994 39.0127V33.7713C16.8994 33.2212 17.3454 32.7753 17.8955 32.7753H23.1368Z" fill="#FFD878"/>
<rect x="23.5146" y="41.8593" width="18.469" height="9.59886" rx="1.70744" fill="#E66D2B"/>
<path d="M44.3503 30.5384H32.7491V42.4058C32.7491 42.4058 33.3395 37.3651 37.0002 34.2179C40.661 31.0707 44.3503 30.5384 44.3503 30.5384Z" fill="#E66D2B"/>
<rect x="23.5146" y="41.3613" width="18.469" height="9.2216" rx="1.70744" fill="#FFDD86"/>
<path d="M23.5146 43.0688C23.5146 42.1258 24.2791 41.3613 25.2221 41.3613H32.7492V50.5829H25.2221C24.2791 50.5829 23.5146 49.8185 23.5146 48.8755V43.0688Z" fill="#FFECBA"/>
<circle cx="25.9706" cy="46.1824" r="0.837825" fill="#E66C2B"/>
<circle cx="39.7162" cy="46.1824" r="0.837825" fill="#E66C2B"/>
<path fill-rule="evenodd" clip-rule="evenodd" d="M19.9595 27.0176C19.9595 20.0491 25.6086 14.4 32.5771 14.4C39.5455 14.4 45.1946 20.0491 45.1946 27.0176V30.5384H41.9926V27.4334C41.9926 22.2333 37.7771 18.0179 32.5771 18.0179C27.377 18.0179 23.1615 22.2333 23.1615 27.4334V30.5384H19.9595V27.0176Z" fill="#555480"/>
<path fill-rule="evenodd" clip-rule="evenodd" d="M18.7109 27.0176C18.7109 20.0491 24.36 14.4 31.3285 14.4C38.297 14.4 43.9461 20.0491 43.9461 27.0176V30.5384H40.7441V27.4334C40.7441 22.2333 36.5286 18.0179 31.3285 18.0179C26.1285 18.0179 21.913 22.2333 21.913 27.4334V30.5384H18.7109V27.0176Z" fill="#ADAEE2"/>
<path fill-rule="evenodd" clip-rule="evenodd" d="M27.7781 18.7103C24.3379 20.112 21.9131 23.4895 21.9131 27.4334V30.5385H20.2051V27.4334C20.2051 22.4993 24.62 18.7103 27.7781 18.7103Z" fill="#E7E6FC" fill-opacity="0.5"/>
<path fill-rule="evenodd" clip-rule="evenodd" d="M42.0981 42.5896C46.3338 44.5425 51.5174 43.6717 54.872 40.0744C59.0558 35.5878 58.8103 28.5592 54.3238 24.3754C49.8373 20.1916 42.8086 20.4371 38.6248 24.9236C35.1203 28.6817 34.7236 34.2235 37.3239 38.3828L25.6975 50.8506C24.4996 52.1352 24.5699 54.1477 25.8544 55.3456C27.139 56.5435 29.1515 56.4732 30.3494 55.1886L30.7735 54.7338L33.7438 57.5037C34.6966 58.3922 36.1892 58.3401 37.0777 57.3873C37.9662 56.4345 37.9141 54.9418 36.9613 54.0533L33.991 51.2834L35.3321 49.8453L36.7751 51.191C37.7279 52.0795 39.2205 52.0273 40.109 51.0745C40.9976 50.1217 40.9454 48.6291 39.9926 47.7406L38.5496 46.3949L42.0981 42.5896Z" fill="#FAFAFA" stroke="#555480" stroke-width="0.840452" stroke-linecap="round" stroke-dasharray="2.4 2.4"/>
<circle cx="46.8519" cy="32.5053" r="4.92912" transform="rotate(3 46.8519 32.5053)" fill="#FAFAFA" stroke="#555480" stroke-width="0.786639" stroke-linecap="round" stroke-dasharray="2.04 1.53"/>
</svg>
