<svg width="72" height="72" viewBox="0 0 72 72" fill="none" xmlns="http://www.w3.org/2000/svg">
<rect width="72" height="72" rx="12" fill="#F6F6F9"/>
<path fill-rule="evenodd" clip-rule="evenodd" d="M56.8157 29.0645C57.7002 29.7461 58.2184 30.7995 58.2184 31.9161V32.8742H13.8184V32.0404C13.8184 30.904 14.3549 29.8344 15.2656 29.1549L34.2622 14.9821C35.5501 14.0212 37.3114 14.035 38.5843 15.016L56.8157 29.0645Z" fill="#F3832E"/>
<path d="M13.8184 32.8742H58.2184V53.2742C58.2184 55.9252 56.0693 58.0742 53.4184 58.0742H18.6184C15.9674 58.0742 13.8184 55.9252 13.8184 53.2742V32.8742Z" fill="#F3832E"/>
<path fill-rule="evenodd" clip-rule="evenodd" d="M58.2184 35.0851V32.8742H13.8184V35.0128L34.5431 47.5401C35.7041 48.2419 37.1611 48.2314 38.3119 47.5129L58.2184 35.0851Z" fill="#F3832E"/>
<path d="M19.168 23.153C19.168 21.4962 20.5111 20.153 22.168 20.153H49.8689C51.5257 20.153 52.8689 21.4962 52.8689 23.153V54.5892H36.4915H19.168V23.153Z" fill="#1FB767"/>
<g clip-path="url(#clip0_2882_25836)">
<circle cx="36.0185" cy="32.8742" r="7.64793" fill="#16A75C"/>
<g clip-path="url(#clip1_2882_25836)">
<path fill-rule="evenodd" clip-rule="evenodd" d="M33.3633 32.5943C33.1034 32.3229 32.6728 32.3137 32.4014 32.5735C32.1301 32.8334 32.1208 33.2641 32.3807 33.5354L34.5767 35.8281C34.8366 36.0994 35.2672 36.1087 35.5386 35.8488C35.5608 35.8276 35.5812 35.8051 35.5999 35.7818C35.6241 35.7641 35.6474 35.7446 35.6696 35.7233L39.2724 32.2725C39.5437 32.0126 39.553 31.582 39.2931 31.3107C39.0332 31.0393 38.6026 31.03 38.3312 31.2899L35.0887 34.3957L33.3633 32.5943Z" fill="white"/>
</g>
</g>
<path d="M19.1506 38.2509V36.0043L34.6449 44.8956C35.7824 45.5484 37.1847 45.5309 38.3056 44.8501L52.8695 36.0043V38.3477L38.367 47.5123C37.2156 48.2399 35.7522 48.2554 34.5857 47.5524L19.1506 38.2509Z" fill="black" fill-opacity="0.08"/>
<path fill-rule="evenodd" clip-rule="evenodd" d="M58.2184 53.2742V35.0851L38.3119 47.5129C37.1611 48.2313 35.7041 48.2418 34.5431 47.54L13.8184 35.0128V53.2742C13.8184 55.9252 15.9674 58.0742 18.6184 58.0742H53.4184C56.0693 58.0742 58.2184 55.9252 58.2184 53.2742Z" fill="#FFA600"/>
<path d="M36.2477 48.6634L58.2186 35.0128V53.2742C58.2186 55.9252 56.0695 58.0742 53.4186 58.0742H20.1543L36.2477 48.6634Z" fill="#FCB73F"/>
<defs>
<clipPath id="clip0_2882_25836">
<rect width="15.2959" height="15.2959" fill="white" transform="translate(28.3706 25.2262)"/>
</clipPath>
<clipPath id="clip1_2882_25836">
<rect width="7.64793" height="7.64793" fill="white" transform="translate(32.0247 29.2202)"/>
</clipPath>
</defs>
</svg>
