<svg width="72" height="72" viewBox="0 0 72 72" fill="none" xmlns="http://www.w3.org/2000/svg">
<g clip-path="url(#clip0_3063_52302)">
<rect width="72" height="72" rx="12" fill="#F6F6F9"/>
<path d="M26.0279 47.7945C26.9164 46.8417 28.4091 46.7895 29.3619 47.678L32.983 51.0548C33.9358 51.9433 33.9879 53.4359 33.0994 54.3887C32.2109 55.3415 30.7183 55.3937 29.7655 54.5052L26.1444 51.1284C25.1916 50.2399 25.1394 48.7473 26.0279 47.7945Z" fill="#FCB73F"/>
<path d="M27.6367 46.0693L31.5854 49.7515L28.3678 53.2018L24.4192 49.5197L27.6367 46.0693Z" fill="#FF9500"/>
<rect x="31.4814" y="40.5154" width="8.55613" height="4.71782" rx="2.35891" transform="rotate(43 31.4814 40.5154)" fill="#FCB73F"/>
<path d="M32.2441 41.2265L35.6921 44.4418L32.4746 47.8922L29.0266 44.6769L32.2441 41.2265Z" fill="#FF9500"/>
<rect x="35.894" y="32.6491" width="6.36147" height="23.9665" rx="3.18073" transform="rotate(43 35.894 32.6491)" fill="#FCB73F"/>
<rect x="35.7837" y="35.8246" width="2.14053" height="17.783" rx="1.07027" transform="rotate(43 35.7837 35.8246)" fill="#FF9500"/>
<ellipse cx="42.769" cy="29.4999" rx="11.109" ry="11.1076" transform="rotate(43 42.769 29.4999)" fill="#FCB73F"/>
<ellipse cx="42.7686" cy="29.4999" rx="6.99279" ry="6.99189" transform="rotate(43 42.7686 29.4999)" fill="#F3832E"/>
<ellipse cx="42.7687" cy="29.4997" rx="2.8872" ry="2.88683" transform="rotate(43 42.7687 29.4997)" fill="white"/>
<path d="M28.4726 16.2L29.2582 18.3231L31.3813 19.1087L29.2582 19.8943L28.4726 22.0173L27.687 19.8943L25.564 19.1087L27.687 18.3231L28.4726 16.2Z" fill="#FCB73F"/>
<path d="M24.3686 29.3561L25.35 32.0084L28.0023 32.9898L25.35 33.9713L24.3686 36.6236L23.3872 33.9713L20.7349 32.9898L23.3872 32.0084L24.3686 29.3561Z" fill="#FCB73F"/>
<path d="M18.679 20.0807L19.8217 23.1688L22.9097 24.3114L19.8217 25.4541L18.679 28.5422L17.5363 25.4541L14.4482 24.3114L17.5363 23.1688L18.679 20.0807Z" fill="#FCB73F"/>
<g clip-path="url(#clip1_3063_52302)">
<circle cx="56.3998" cy="56.4" r="12.6" fill="#16A75C"/>
<g clip-path="url(#clip2_3063_52302)">
<path fill-rule="evenodd" clip-rule="evenodd" d="M53 56.9998C52.5718 56.5527 51.8624 56.5374 51.4153 56.9656C50.9683 57.3938 50.953 58.1033 51.3812 58.5503L54.0237 61.2663C54.4519 61.7133 55.1614 61.7286 55.6084 61.3005C55.645 61.2654 55.6787 61.2285 55.7095 61.19C55.7493 61.1608 55.7877 61.1288 55.8243 61.0937L61.7599 55.4085C62.2069 54.9803 62.2222 54.2708 61.794 53.8238C61.3659 53.3768 60.6564 53.3615 60.2094 53.7897L54.8673 58.9064L53 56.9998Z" fill="white"/>
</g>
</g>
</g>
<defs>
<clipPath id="clip0_3063_52302">
<rect width="72" height="72" fill="white"/>
</clipPath>
<clipPath id="clip1_3063_52302">
<rect width="25.2" height="25.2" fill="white" transform="translate(43.7998 43.8)"/>
</clipPath>
<clipPath id="clip2_3063_52302">
<rect width="12.6" height="12.6" fill="white" transform="translate(49.8198 50.3799)"/>
</clipPath>
</defs>
</svg>
