<svg width="16" height="16" viewBox="0 0 16 16" fill="none" xmlns="http://www.w3.org/2000/svg">
<g clip-path="url(#clip0_12_271)">
<g clip-path="url(#clip1_12_271)">
<path d="M12.0813 4.44221C12.0813 6.48136 10.4283 8.13442 8.3891 8.13442C6.34995 8.13442 4.69689 6.48136 4.69689 4.44221C4.69689 3.81693 4.6981 3.2841 4.75999 2.81023C4.82099 2.3431 4.93468 1.99457 5.11926 1.72735C5.45797 1.237 6.23895 0.749999 8.3891 0.749999C10.5393 0.749999 11.3202 1.237 11.6589 1.72735C11.8435 1.99457 11.9572 2.3431 12.0182 2.81023C12.0801 3.2841 12.0813 3.81693 12.0813 4.44221Z" stroke="#16A75C" stroke-width="1.5"/>
<path d="M12.5852 15.3009C12.5852 15.7151 12.921 16.0509 13.3352 16.0509C13.7495 16.0509 14.0852 15.7151 14.0852 15.3009H12.5852ZM12.9587 13.4081L13.6517 13.1211L13.6516 13.1211L12.9587 13.4081ZM10.2819 10.7312L10.5689 10.0383L10.2819 10.7312ZM6.4963 10.7312L6.20928 10.0383V10.0383L6.4963 10.7312ZM4.89165 11.8034L4.36132 11.2731L4.36132 11.2731L4.89165 11.8034ZM2.69296 15.3009C2.69296 15.7151 3.02875 16.0509 3.44296 16.0509C3.85718 16.0509 4.19296 15.7151 4.19296 15.3009H2.69296ZM14.0852 15.3009C14.0852 14.5529 13.9379 13.8122 13.6517 13.1211L12.2658 13.6951C12.4767 14.2042 12.5852 14.7498 12.5852 15.3009H14.0852ZM13.6516 13.1211C13.3654 12.43 12.9458 11.802 12.4169 11.2731L11.3562 12.3338C11.7459 12.7234 12.055 13.186 12.2658 13.6951L13.6516 13.1211ZM12.4169 11.2731C11.8879 10.7442 11.26 10.3246 10.5689 10.0383L9.9949 11.4242C10.504 11.635 10.9666 11.9441 11.3562 12.3338L12.4169 11.2731ZM10.5689 10.0383C9.87783 9.75208 9.13713 9.60474 8.3891 9.60474V11.1047C8.94015 11.1047 9.4858 11.2133 9.9949 11.4242L10.5689 10.0383ZM8.3891 9.60474C7.64107 9.60474 6.90037 9.75208 6.20928 10.0383L6.78331 11.4242C7.29241 11.2133 7.83806 11.1047 8.3891 11.1047V9.60474ZM6.20928 10.0383C5.5182 10.3246 4.89026 10.7442 4.36132 11.2731L5.42198 12.3338C5.81163 11.9441 6.27421 11.635 6.78331 11.4242L6.20928 10.0383ZM4.36132 11.2731C3.83239 11.802 3.41281 12.43 3.12656 13.1211L4.51237 13.6951C4.72325 13.186 5.03234 12.7234 5.42198 12.3338L4.36132 11.2731ZM3.12656 13.1211C2.8403 13.8122 2.69296 14.5529 2.69296 15.3009H4.19296C4.19296 14.7498 4.3015 14.2042 4.51237 13.6951L3.12656 13.1211Z" fill="#16A75C"/>
<line x1="4.83314" y1="3.69222" x2="11.9451" y2="3.69222" stroke="#16A75C" stroke-width="1.5"/>
<path d="M7.65635 10.5264H9.12186L9.0461 12.4676H7.73164L7.65635 10.5264Z" fill="#16A75C"/>
<path d="M7.65132 13.2272H9.11546L9.63458 16.0211H7.14363L7.65132 13.2272Z" fill="#16A75C"/>
</g>
</g>
<defs>
<clipPath id="clip0_12_271">
<rect width="16" height="16" fill="white"/>
</clipPath>
<clipPath id="clip1_12_271">
<rect width="16" height="16" fill="white"/>
</clipPath>
</defs>
</svg>
