<svg width="72" height="72" viewBox="0 0 72 72" fill="none" xmlns="http://www.w3.org/2000/svg">
<rect width="72" height="72" rx="12" fill="#F6F6F9"/>
<rect x="14.4" y="30.5385" width="35.106" height="27.8052" rx="3.05806" fill="#A9C1DA"/>
<path d="M14.4 33.5966C14.4 31.9076 15.7691 30.5385 17.4581 30.5385H32.7637V58.3437H17.4581C15.7691 58.3437 14.4 56.9746 14.4 55.2857V33.5966Z" fill="#C4D8EC"/>
<path d="M23.1367 32.7754C23.4118 32.7754 23.6367 32.9987 23.6164 33.273C23.5635 33.9872 23.3969 34.6894 23.122 35.353C22.7836 36.1702 22.2874 36.9127 21.662 37.5381C21.0365 38.1636 20.294 38.6597 19.4768 38.9982C18.8133 39.2731 18.111 39.4396 17.3969 39.4925C17.1226 39.5128 16.8993 39.2879 16.8993 39.0129V33.7715C16.8993 33.2214 17.3452 32.7754 17.8953 32.7754H23.1367Z" fill="#DFE9F6"/>
<rect x="23.5145" y="41.8594" width="18.4691" height="9.59891" rx="1.52903" fill="#9CB4CE"/>
<path d="M44.3504 30.5385H32.7492V42.406C32.7492 42.406 33.3396 37.3652 37.0003 34.218C40.6611 31.0708 44.3504 30.5385 44.3504 30.5385Z" fill="#A2BBD6"/>
<rect x="23.5145" y="41.3615" width="18.4691" height="9.22165" rx="1.52903" fill="#BFD2E6"/>
<path d="M23.5145 42.8905C23.5145 42.046 24.1991 41.3615 25.0435 41.3615H32.7491V50.5831H25.0435C24.1991 50.5831 23.5145 49.8985 23.5145 49.0541V42.8905Z" fill="#DFE9F6" fill-opacity="0.8"/>
<circle cx="25.971" cy="46.1826" r="0.83783" fill="#A9C1DA"/>
<circle cx="39.7167" cy="46.1826" r="0.83783" fill="#A9C1DA"/>
<path fill-rule="evenodd" clip-rule="evenodd" d="M19.9596 27.0177C19.9596 20.0491 25.6087 14.4 32.5772 14.4C39.5458 14.4 45.1949 20.0491 45.1949 27.0177V30.5386H41.9928V27.4335C41.9928 22.2334 37.7773 18.0179 32.5773 18.0179C27.3772 18.0179 23.1617 22.2334 23.1617 27.4335V30.5386H19.9596V27.0177Z" fill="#A2BBD6"/>
<path fill-rule="evenodd" clip-rule="evenodd" d="M18.7111 27.0177C18.7111 20.0491 24.3602 14.4 31.3287 14.4C38.2973 14.4 43.9464 20.0491 43.9464 27.0177V30.5386H40.7443V27.4335C40.7443 22.2334 36.5288 18.0179 31.3288 18.0179C26.1287 18.0179 21.9132 22.2334 21.9132 27.4335V30.5386H18.7111V27.0177Z" fill="#C4D8EC"/>
<path fill-rule="evenodd" clip-rule="evenodd" d="M27.7783 18.7103C24.3381 20.112 21.9132 23.4895 21.9132 27.4335V30.5386H20.2052V27.4335C20.2052 22.4993 24.6201 18.7103 27.7783 18.7103Z" fill="#F9F9FF" fill-opacity="0.5"/>
<path d="M30.008 50.7946C30.8965 49.8418 32.3892 49.7897 33.342 50.6782L36.9631 54.0549C37.9159 54.9434 37.968 56.4361 37.0795 57.3889C36.191 58.3417 34.6983 58.3938 33.7455 57.5053L30.1244 54.1286C29.1716 53.2401 29.1195 51.7474 30.008 50.7946Z" fill="#FCB73F"/>
<path d="M31.6168 49.0694L35.5654 52.7516L32.3479 56.202L28.3993 52.5198L31.6168 49.0694Z" fill="#FF9500"/>
<rect x="35.4618" y="43.5156" width="8.55613" height="4.71782" rx="2.35891" transform="rotate(43 35.4618 43.5156)" fill="#FCB73F"/>
<path d="M36.2246 44.2267L39.6726 47.442L36.455 50.8924L33.007 47.6771L36.2246 44.2267Z" fill="#FF9500"/>
<rect x="39.8743" y="35.6492" width="6.36147" height="23.9665" rx="3.18073" transform="rotate(43 39.8743 35.6492)" fill="#FCB73F"/>
<rect x="39.7637" y="38.8248" width="2.14053" height="17.783" rx="1.07026" transform="rotate(43 39.7637 38.8248)" fill="#FF9500"/>
<ellipse cx="46.7493" cy="32.4999" rx="11.109" ry="11.1076" transform="rotate(43 46.7493 32.4999)" fill="#FCB73F"/>
<ellipse cx="46.7492" cy="32.5" rx="6.99279" ry="6.99189" transform="rotate(43 46.7492 32.5)" fill="#F3832E"/>
<ellipse cx="46.7492" cy="32.4999" rx="2.8872" ry="2.88683" transform="rotate(43 46.7492 32.4999)" fill="white"/>
</svg>
