<svg width="72" height="72" viewBox="0 0 72 72" fill="none" xmlns="http://www.w3.org/2000/svg">
<g clip-path="url(#clip0_7649_1300)">
<rect width="72" height="72" rx="12" fill="#F6F6F9"/>
<path d="M26.0279 47.7945C26.9164 46.8417 28.4091 46.7896 29.3619 47.6781L32.983 51.0548C33.9358 51.9433 33.9879 53.436 33.0994 54.3888C32.2109 55.3416 30.7183 55.3937 29.7655 54.5052L26.1444 51.1285C25.1916 50.24 25.1394 48.7473 26.0279 47.7945Z" fill="#C4D8EC"/>
<path d="M27.6367 46.0693L31.5854 49.7515L28.3678 53.2019L24.4192 49.5197L27.6367 46.0693Z" fill="#A2BBD6"/>
<rect x="31.4814" y="40.5155" width="8.55613" height="4.71782" rx="2.35891" transform="rotate(43 31.4814 40.5155)" fill="#C4D8EC"/>
<path d="M32.2441 41.2268L35.6921 44.4421L32.4746 47.8925L29.0266 44.6772L32.2441 41.2268Z" fill="#A2BBD6"/>
<rect x="35.894" y="32.6492" width="6.36147" height="23.9665" rx="3.18073" transform="rotate(43 35.894 32.6492)" fill="#C4D8EC"/>
<rect x="35.7837" y="35.8248" width="2.14053" height="17.783" rx="1.07027" transform="rotate(43 35.7837 35.8248)" fill="#A9C1DA"/>
<ellipse cx="42.769" cy="29.4999" rx="11.109" ry="11.1076" transform="rotate(43 42.769 29.4999)" fill="#C4D8EC"/>
<ellipse cx="42.7686" cy="29.4999" rx="6.99279" ry="6.99189" transform="rotate(43 42.7686 29.4999)" fill="#A2BBD6"/>
<ellipse cx="42.7687" cy="29.4999" rx="2.8872" ry="2.88683" transform="rotate(43 42.7687 29.4999)" fill="white"/>
<g clip-path="url(#clip1_7649_1300)">
<circle cx="56.5" cy="56.5" r="12.5" fill="#EF5350"/>
<path d="M57.3332 50.5013L62.8711 60.4962C62.9555 60.6486 63 60.8214 63 60.9974C63 61.1734 62.9555 61.3463 62.8711 61.4987C62.7867 61.6511 62.6652 61.7777 62.519 61.8657C62.3727 61.9537 62.2068 62 62.0379 62L50.9621 62C50.7932 62 50.6273 61.9537 50.481 61.8657C50.3348 61.7777 50.2133 61.6511 50.1289 61.4987C50.0445 61.3463 50 61.1734 50 60.9974C50 60.8214 50.0445 60.6486 50.1289 60.4962L55.6668 50.5013C56.0369 49.8329 56.9625 49.8329 57.3332 50.5013ZM56.5 58.4229C56.3299 58.4229 56.1667 58.4933 56.0465 58.6186C55.9262 58.744 55.8586 58.914 55.8586 59.0912C55.8586 59.2685 55.9262 59.4385 56.0465 59.5638C56.1667 59.6892 56.3299 59.7596 56.5 59.7596C56.6701 59.7596 56.8333 59.6892 56.9535 59.5638C57.0738 59.4385 57.1414 59.2685 57.1414 59.0912C57.1414 58.914 57.0738 58.744 56.9535 58.6186C56.8333 58.4933 56.6701 58.4229 56.5 58.4229ZM56.5 53.7442C56.3429 53.7443 56.1913 53.8044 56.0739 53.9131C55.9565 54.0219 55.8815 54.1718 55.8631 54.3344L55.8586 54.4126L55.8586 57.0861C55.8588 57.2565 55.9214 57.4203 56.0336 57.5442C56.1458 57.6681 56.2992 57.7426 56.4624 57.7526C56.6256 57.7626 56.7863 57.7072 56.9117 57.5979C57.037 57.4886 57.1176 57.3335 57.1369 57.1643L57.1414 57.0861L57.1414 54.4126C57.1414 54.2353 57.0738 54.0653 56.9535 53.94C56.8333 53.8147 56.6701 53.7442 56.5 53.7442Z" fill="white"/>
</g>
</g>
<defs>
<clipPath id="clip0_7649_1300">
<rect width="72" height="72" fill="white"/>
</clipPath>
<clipPath id="clip1_7649_1300">
<rect width="25" height="25" fill="white" transform="translate(44 44)"/>
</clipPath>
</defs>
</svg>
