<svg width="20" height="20" viewBox="0 0 20 20" fill="none" xmlns="http://www.w3.org/2000/svg">
<path d="M11 10.7002H9.59998V12.1002H11V10.7002Z" fill="white"/>
<path d="M13.8 10.7002H12.4V12.1002H13.8V10.7002Z" fill="white"/>
<path d="M8.20005 13.5H6.80005V14.9H8.20005V13.5Z" fill="white"/>
<path d="M11 13.5H9.59998V14.9H11V13.5Z" fill="white"/>
<path d="M13.8 13.5H12.4V14.9H13.8V13.5Z" fill="white"/>
<path d="M15.55 5.1H14.5V3.7C14.5 3.51435 14.4263 3.3363 14.295 3.20503C14.1637 3.07375 13.9857 3 13.8 3C13.6143 3 13.4363 3.07375 13.305 3.20503C13.1737 3.3363 13.1 3.51435 13.1 3.7V5.1H7.5V3.7C7.5 3.51435 7.42625 3.3363 7.29497 3.20503C7.1637 3.07375 6.98565 3 6.8 3C6.61435 3 6.4363 3.07375 6.30503 3.20503C6.17375 3.3363 6.1 3.51435 6.1 3.7V5.1H5.05C4.77152 5.1 4.50445 5.21062 4.30754 5.40754C4.11062 5.60445 4 5.87152 4 6.15V15.95C4 16.2285 4.11062 16.4955 4.30754 16.6925C4.50445 16.8894 4.77152 17 5.05 17H15.55C15.8285 17 16.0955 16.8894 16.2925 16.6925C16.4894 16.4955 16.6 16.2285 16.6 15.95V6.15C16.6 5.87152 16.4894 5.60445 16.2925 5.40754C16.0955 5.21062 15.8285 5.1 15.55 5.1ZM15.2 15.6H5.4V9.3H15.2V15.6Z" fill="white"/>
</svg>
