<svg width="34" height="34" viewBox="0 0 34 34" fill="none" xmlns="http://www.w3.org/2000/svg">
<path fill-rule="evenodd" clip-rule="evenodd" d="M16.1667 3.66655C11.7517 3.66655 8.23167 7.63321 8.71167 11.9999C8.75613 12.4042 8.65268 12.811 8.42043 13.145C8.18819 13.4789 7.84287 13.7175 7.44833 13.8165C6.26989 14.1185 5.24184 14.8395 4.55651 15.8446C3.87118 16.8498 3.57553 18.0701 3.72486 19.2774C3.8742 20.4848 4.45828 21.5963 5.36785 22.4042C6.27742 23.212 7.45016 23.6608 8.66667 23.6665H10.3333C10.7754 23.6665 11.1993 23.8421 11.5118 24.1547C11.8244 24.4673 12 24.8912 12 25.3332C12 25.7752 11.8244 26.1992 11.5118 26.5117C11.1993 26.8243 10.7754 26.9999 10.3333 26.9999H8.66667C6.75119 27.0011 4.89375 26.3425 3.40699 25.1347C1.92023 23.927 0.89491 22.244 0.503615 20.3689C0.11232 18.4938 0.378935 16.5412 1.25859 14.8396C2.13824 13.1381 3.57722 11.7915 5.33333 11.0265C5.36344 8.49977 6.27591 6.06301 7.91284 4.13792C9.54977 2.21283 11.8082 0.920541 14.2973 0.484665C16.7863 0.0487891 19.3495 0.496753 21.5432 1.75104C23.7369 3.00533 25.4231 4.98702 26.31 7.35321C28.6422 7.99637 30.6622 9.46291 31.9961 11.4812C33.3299 13.4995 33.8872 15.9328 33.5646 18.3304C33.242 20.728 32.0615 22.9275 30.2416 24.5215C28.4217 26.1155 26.0859 26.996 23.6667 26.9999C23.2246 26.9999 22.8007 26.8243 22.4882 26.5117C22.1756 26.1992 22 25.7752 22 25.3332C22 24.8912 22.1756 24.4673 22.4882 24.1547C22.8007 23.8421 23.2246 23.6665 23.6667 23.6665C25.3417 23.6691 26.9563 23.0409 28.1893 21.9071C29.4223 20.7733 30.1833 19.2169 30.3209 17.5475C30.4585 15.8781 29.9626 14.2181 28.9319 12.8977C27.9012 11.5773 26.4112 10.6933 24.7583 10.4215C24.4401 10.3689 24.1436 10.226 23.9043 10.0097C23.665 9.79338 23.4928 9.51288 23.4083 9.20155C22.9762 7.61197 22.033 6.20877 20.7243 5.20846C19.4155 4.20814 17.8139 3.6663 16.1667 3.66655ZM18.6667 17.6932L20.8217 19.8465C20.9766 20.0013 21.1605 20.124 21.3629 20.2077C21.5653 20.2913 21.7822 20.3343 22.0012 20.3341C22.2202 20.334 22.437 20.2907 22.6392 20.2067C22.8415 20.1228 23.0253 19.9998 23.18 19.8449C23.3347 19.6899 23.4574 19.506 23.5411 19.3036C23.6248 19.1012 23.6678 18.8844 23.6676 18.6654C23.6674 18.4464 23.6242 18.2296 23.5402 18.0273C23.4563 17.825 23.3333 17.6413 23.1783 17.4865L18.4717 12.7882C18.0811 12.3984 17.5518 12.1795 17 12.1795C16.4482 12.1795 15.9189 12.3984 15.5283 12.7882L10.8217 17.4882C10.5089 17.8007 10.3332 18.2247 10.333 18.6668C10.3328 19.1089 10.5083 19.533 10.8208 19.8457C11.1333 20.1584 11.5573 20.3342 11.9994 20.3344C12.4415 20.3345 12.8656 20.1591 13.1783 19.8465L15.3333 17.6932V31.9999C15.3333 32.4419 15.5089 32.8658 15.8215 33.1784C16.1341 33.491 16.558 33.6665 17 33.6665C17.442 33.6665 17.866 33.491 18.1785 33.1784C18.4911 32.8658 18.6667 32.4419 18.6667 31.9999V17.6932Z" fill="#E0E0E0"/>
</svg>
