<svg width="20" height="20" viewBox="0 0 20 20" fill="none" xmlns="http://www.w3.org/2000/svg">
<path d="M16.6667 18.5H3.33334V16.8333C3.33334 15.7283 3.77233 14.6684 4.55373 13.887C5.33513 13.1056 6.39494 12.6667 7.50001 12.6667H12.5C13.6051 12.6667 14.6649 13.1056 15.4463 13.887C16.2277 14.6684 16.6667 15.7283 16.6667 16.8333V18.5ZM10 11C9.3434 11 8.69322 10.8707 8.08659 10.6194C7.47996 10.3681 6.92877 9.99982 6.46448 9.53553C6.00018 9.07123 5.63189 8.52004 5.38061 7.91341C5.12934 7.30678 5.00001 6.6566 5.00001 5.99999C5.00001 5.34338 5.12934 4.6932 5.38061 4.08658C5.63189 3.47995 6.00018 2.92875 6.46448 2.46446C6.92877 2.00017 7.47996 1.63187 8.08659 1.38059C8.69322 1.12932 9.3434 0.999992 10 0.999992C11.3261 0.999992 12.5979 1.52678 13.5355 2.46446C14.4732 3.40214 15 4.67391 15 5.99999C15 7.32607 14.4732 8.59784 13.5355 9.53553C12.5979 10.4732 11.3261 11 10 11Z" fill="currentColor"/>
</svg>
