<svg width="18" height="18" viewBox="0 0 18 18" fill="none" xmlns="http://www.w3.org/2000/svg">
<path d="M13.6475 8.37568L6.91439 1.25561C6.75866 1.0908 6.55078 1 6.32911 1C6.10745 1 5.89957 1.0908 5.74384 1.25561L5.24799 1.77983C4.92533 2.12142 4.92533 2.6766 5.24799 3.01767L10.902 8.99668L5.24171 14.9823C5.08598 15.1471 5 15.3668 5 15.6011C5 15.8357 5.08598 16.0554 5.24171 16.2203L5.73756 16.7444C5.89342 16.9092 6.10118 17 6.32284 17C6.5445 17 6.75239 16.9092 6.90812 16.7444L13.6475 9.61782C13.8036 9.45248 13.8894 9.23174 13.8889 8.99707C13.8894 8.7615 13.8036 8.54088 13.6475 8.37568Z" fill="#008444"/>
</svg>
