<svg width="15" height="12" viewBox="0 0 15 12" fill="none" xmlns="http://www.w3.org/2000/svg">
<path d="M5.45427 0.236935L0.214861 5.47634C0.165855 5.53241 0.125492 5.59548 0.0951031 5.66346L0.0501938 5.72334C0.0190767 5.81489 0.00388695 5.91109 0.00528461 6.00777C-0.00176188 6.06994 -0.00176188 6.13271 0.00528462 6.19489L0.00528462 6.29219C0.0326173 6.34057 0.0652529 6.38576 0.102588 6.42692L0.169952 6.53919L5.40936 11.7786C5.47894 11.8488 5.56172 11.9044 5.65293 11.9424C5.74414 11.9804 5.84197 12 5.94078 12C6.03959 12 6.13742 11.9804 6.22863 11.9424C6.31984 11.9044 6.40263 11.8488 6.47221 11.7786C6.54236 11.709 6.59805 11.6262 6.63605 11.535C6.67405 11.4438 6.69361 11.346 6.69361 11.2472C6.69361 11.1484 6.67405 11.0505 6.63605 10.9593C6.59805 10.8681 6.54236 10.7853 6.47221 10.7157L2.53517 6.75625L13.8448 6.75625C14.0433 6.75625 14.2337 6.67739 14.3741 6.53703C14.5144 6.39666 14.5933 6.20628 14.5933 6.00777C14.5933 5.80926 14.5144 5.61887 14.3741 5.47851C14.2337 5.33814 14.0433 5.25928 13.8448 5.25928L2.56511 5.25928L6.54706 1.29979C6.61721 1.2302 6.6729 1.14742 6.7109 1.05621C6.7489 0.965001 6.76846 0.867169 6.76846 0.76836C6.76846 0.669551 6.7489 0.57172 6.7109 0.480509C6.6729 0.389299 6.61721 0.306517 6.54706 0.236935C6.47705 0.162153 6.39243 0.102538 6.29844 0.0617826C6.20446 0.0210273 6.1031 -2.66775e-07 6.00066 -2.62297e-07C5.89822 -2.57819e-07 5.79687 0.0210273 5.70288 0.0617826C5.6089 0.102538 5.52428 0.162153 5.45427 0.236935Z" fill="#069550"/>
</svg>
