<svg width="18" height="18" viewBox="0 0 18 18" fill="none" xmlns="http://www.w3.org/2000/svg">
<path d="M4.35246 9.62432L11.0856 16.7444C11.2413 16.9092 11.4492 17 11.6709 17C11.8925 17 12.1004 16.9092 12.2562 16.7444L12.752 16.2202C13.0747 15.8786 13.0747 15.3234 12.752 14.9823L7.09802 9.00332L12.7583 3.01768C12.914 2.85286 13 2.63316 13 2.39888C13 2.16435 12.914 1.94464 12.7583 1.7797L12.2624 1.25561C12.1066 1.0908 11.8988 1 11.6772 1C11.4555 1 11.2476 1.0908 11.0919 1.25561L4.35246 8.38218C4.19636 8.54752 4.11062 8.76826 4.11111 9.00293C4.11062 9.2385 4.19636 9.45912 4.35246 9.62432Z" fill="#008444"/>
</svg>
