<svg width="20" height="20" viewBox="0 0 20 20" fill="none" xmlns="http://www.w3.org/2000/svg">
<mask id="mask0_5168_3976" style="mask-type:alpha" maskUnits="userSpaceOnUse" x="0" y="0" width="20" height="20">
<rect width="20" height="20" fill="#D9D9D9"/>
</mask>
<g mask="url(#mask0_5168_3976)">
<path d="M3.33332 17.5C2.87499 17.5 2.48263 17.3368 2.15624 17.0104C1.82985 16.684 1.66666 16.2916 1.66666 15.8333V6.66663C1.66666 6.20829 1.82985 5.81593 2.15624 5.48954C2.48263 5.16315 2.87499 4.99996 3.33332 4.99996H6.66666V3.33329C6.66666 2.87496 6.82985 2.4826 7.15624 2.15621C7.48263 1.82982 7.87499 1.66663 8.33332 1.66663H11.6667C12.125 1.66663 12.5174 1.82982 12.8437 2.15621C13.1701 2.4826 13.3333 2.87496 13.3333 3.33329V4.99996H16.6667C17.125 4.99996 17.5174 5.16315 17.8437 5.48954C18.1701 5.81593 18.3333 6.20829 18.3333 6.66663V15.8333C18.3333 16.2916 18.1701 16.684 17.8437 17.0104C17.5174 17.3368 17.125 17.5 16.6667 17.5H3.33332ZM8.33332 4.99996H11.6667V3.33329H8.33332V4.99996Z" fill="#069550"/>
</g>
</svg>
