<svg width="20" height="20" viewBox="0 0 20 20" fill="none" xmlns="http://www.w3.org/2000/svg">
<mask id="mask0_3366_8562" style="mask-type:alpha" maskUnits="userSpaceOnUse" x="0" y="0" width="20" height="20">
<rect width="20" height="20" fill="#D9D9D9"/>
</mask>
<g mask="url(#mask0_3366_8562)">
<path d="M9.61166 10.7443H12.5283C12.7385 10.7443 12.9148 10.6727 13.0572 10.5297C13.1997 10.3867 13.2709 10.2101 13.2709 10C13.2709 9.78986 13.1997 9.61411 13.0572 9.47275C12.9148 9.3314 12.7385 9.26073 12.5283 9.26073H9.61166L10.5264 8.34102C10.6684 8.1957 10.7402 8.02376 10.7419 7.82519C10.7435 7.62662 10.671 7.4529 10.5244 7.30404C10.3791 7.16093 10.2037 7.08937 9.99814 7.08937C9.79262 7.08937 9.6172 7.16093 9.47187 7.30404L7.31953 9.44248C7.16183 9.60019 7.08297 9.78603 7.08297 10C7.08297 10.214 7.16183 10.3998 7.31953 10.5575L9.47187 12.7065C9.6172 12.8519 9.79174 12.9231 9.99549 12.9202C10.1992 12.9173 10.3755 12.8415 10.5244 12.6926C10.6697 12.5495 10.7416 12.3746 10.7399 12.168C10.7382 11.9614 10.6647 11.7854 10.5194 11.6401L9.61166 10.7443ZM3.9388 17.6395C3.50251 17.6395 3.1304 17.4855 2.82247 17.1776C2.51455 16.8697 2.3606 16.4976 2.3606 16.0613V3.93871C2.3606 3.50242 2.51455 3.12976 2.82247 2.82073C3.1304 2.5117 3.50251 2.35719 3.9388 2.35719H7.81487C7.94238 1.86423 8.20782 1.46321 8.6112 1.15413C9.01459 0.845056 9.47755 0.690521 10.0001 0.690521C10.5226 0.690521 10.9856 0.845056 11.389 1.15413C11.7924 1.46321 12.0578 1.86423 12.1853 2.35719H16.0614C16.4977 2.35719 16.8703 2.5117 17.1794 2.82073C17.4884 3.12976 17.6429 3.50242 17.6429 3.93871V16.0613C17.6429 16.4976 17.4884 16.8697 17.1794 17.1776C16.8703 17.4855 16.4977 17.6395 16.0614 17.6395H3.9388ZM10.0001 3.47765C10.1999 3.47765 10.3711 3.40632 10.5138 3.26367C10.6564 3.121 10.7278 2.94978 10.7278 2.75C10.7278 2.55022 10.6564 2.379 10.5138 2.23633C10.3711 2.09367 10.1999 2.02233 10.0001 2.02233C9.80032 2.02233 9.6291 2.09367 9.48643 2.23633C9.34376 2.379 9.27243 2.55022 9.27243 2.75C9.27243 2.94978 9.34376 3.121 9.48643 3.26367C9.6291 3.40632 9.80032 3.47765 10.0001 3.47765Z" fill="#BDBDBD"/>
</g>
</svg>
