<svg width="20" height="20" viewBox="0 0 20 20" fill="none" xmlns="http://www.w3.org/2000/svg">
<mask id="mask0_3449_2452" style="mask-type:alpha" maskUnits="userSpaceOnUse" x="0" y="0" width="20" height="20">
<rect width="20" height="20" fill="#D9D9D9"/>
</mask>
<g mask="url(#mask0_3449_2452)">
<path d="M3.93868 17.6395C3.50247 17.6395 3.13038 17.4855 2.82241 17.1776C2.51445 16.8696 2.36047 16.4975 2.36047 16.0613V3.93871C2.36047 3.5025 2.51445 3.12986 2.82241 2.82079C3.13038 2.51172 3.50247 2.35719 3.93868 2.35719H7.81474C7.94226 1.86423 8.2077 1.46321 8.61108 1.15413C9.01447 0.845056 9.47743 0.690521 9.99997 0.690521C10.5225 0.690521 10.9855 0.845056 11.3889 1.15413C11.7922 1.46321 12.0577 1.86423 12.1852 2.35719H16.0613C16.4975 2.35719 16.8701 2.51172 17.1792 2.82079C17.4883 3.12986 17.6428 3.5025 17.6428 3.93871V16.0613C17.6428 16.4975 17.4883 16.8696 17.1792 17.1776C16.8701 17.4855 16.4975 17.6395 16.0613 17.6395H3.93868ZM9.99997 3.47765C10.2013 3.47765 10.3729 3.4067 10.5148 3.26481C10.6567 3.12292 10.7276 2.95132 10.7276 2.75C10.7276 2.54867 10.6567 2.37706 10.5148 2.23517C10.3729 2.09328 10.2013 2.02233 9.99997 2.02233C9.79864 2.02233 9.62703 2.09328 9.48514 2.23517C9.34325 2.37706 9.27231 2.54867 9.27231 2.75C9.27231 2.95132 9.34325 3.12292 9.48514 3.26481C9.62703 3.4067 9.79864 3.47765 9.99997 3.47765ZM6.31866 14.0367H7.01733C7.12431 14.0367 7.22357 14.0177 7.3151 13.9796C7.40664 13.9416 7.49156 13.8834 7.56987 13.8051L12.5533 8.83558L11.1366 7.39115L6.1532 12.3746C6.07138 12.4559 6.01233 12.5425 5.97606 12.6342C5.93977 12.726 5.92162 12.8243 5.92162 12.929V13.6446C5.92162 13.7494 5.96122 13.8409 6.04041 13.9192C6.11959 13.9975 6.21234 14.0367 6.31866 14.0367ZM12.9977 8.39115L13.831 7.54392C13.9236 7.45133 13.9722 7.34662 13.9769 7.22977C13.9815 7.11292 13.9329 7.00468 13.831 6.90504L13.0394 6.12727C12.9398 6.02542 12.8338 5.97681 12.7216 5.98144C12.6094 5.98606 12.507 6.03467 12.4144 6.12727L11.5811 6.94671L12.9977 8.39115Z" fill="#BDBDBD"/>
</g>
</svg>
