<svg width="20" height="20" viewBox="0 0 20 20" fill="none" xmlns="http://www.w3.org/2000/svg">
<mask id="mask0_3374_11349" style="mask-type:alpha" maskUnits="userSpaceOnUse" x="0" y="0" width="20" height="20">
<rect width="20" height="20" fill="#D9D9D9"/>
</mask>
<g mask="url(#mask0_3374_11349)">
<path d="M3.9388 17.6395C3.50479 17.6395 3.13326 17.485 2.8242 17.1759C2.51513 16.8668 2.3606 16.4953 2.3606 16.0613V3.93871C2.3606 3.50379 2.51513 3.13147 2.8242 2.82175C3.13326 2.51204 3.50479 2.35719 3.9388 2.35719H7.81487C7.94238 1.86423 8.20782 1.46321 8.6112 1.15413C9.01459 0.845056 9.47755 0.690521 10.0001 0.690521C10.5226 0.690521 10.9856 0.845056 11.389 1.15413C11.7924 1.46321 12.0578 1.86423 12.1853 2.35719H16.0614C16.4963 2.35719 16.8686 2.51204 17.1783 2.82175C17.4881 3.13147 17.6429 3.50379 17.6429 3.93871V16.0613C17.6429 16.4953 17.4881 16.8668 17.1783 17.1759C16.8686 17.485 16.4963 17.6395 16.0614 17.6395H3.9388ZM6.57866 14.1169H10.8625C11.0599 14.1169 11.2252 14.0501 11.3583 13.9165C11.4914 13.7829 11.5579 13.6174 11.5579 13.42C11.5579 13.2225 11.4914 13.0578 11.3583 12.9259C11.2252 12.7939 11.0599 12.728 10.8625 12.728H6.57866C6.38126 12.728 6.21601 12.7947 6.08291 12.9283C5.9498 13.0619 5.88324 13.2274 5.88324 13.4248C5.88324 13.6223 5.9498 13.787 6.08291 13.9189C6.21601 14.0509 6.38126 14.1169 6.57866 14.1169ZM6.57864 10.6944H13.4216C13.6189 10.6944 13.7842 10.6277 13.9173 10.4941C14.0504 10.3605 14.117 10.195 14.117 9.99756C14.117 9.80012 14.0504 9.63542 13.9173 9.50348C13.7842 9.37153 13.6189 9.30556 13.4216 9.30556H6.57864C6.38125 9.30556 6.21601 9.37235 6.08291 9.50592C5.9498 9.63949 5.88324 9.80499 5.88324 10.0024C5.88324 10.1999 5.9498 10.3646 6.08291 10.4965C6.21601 10.6285 6.38125 10.6944 6.57864 10.6944ZM6.57864 7.27204H13.4216C13.6189 7.27204 13.7842 7.20526 13.9173 7.07169C14.0504 6.93812 14.117 6.77261 14.117 6.57517C14.117 6.37771 14.0504 6.21301 13.9173 6.08106C13.7842 5.94912 13.6189 5.88315 13.4216 5.88315H6.57864C6.38125 5.88315 6.21601 5.94993 6.08291 6.0835C5.9498 6.21707 5.88324 6.38258 5.88324 6.58002C5.88324 6.77748 5.9498 6.94218 6.08291 7.07412C6.21601 7.20607 6.38125 7.27204 6.57864 7.27204ZM10.0001 3.47765C10.2014 3.47765 10.373 3.4067 10.5149 3.26481C10.6568 3.12292 10.7278 2.95132 10.7278 2.75C10.7278 2.54867 10.6568 2.37706 10.5149 2.23517C10.373 2.09328 10.2014 2.02233 10.0001 2.02233C9.79876 2.02233 9.62715 2.09328 9.48526 2.23517C9.34337 2.37706 9.27243 2.54867 9.27243 2.75C9.27243 2.95132 9.34337 3.12292 9.48526 3.26481C9.62715 3.4067 9.79876 3.47765 10.0001 3.47765Z" fill="#BDBDBD"/>
</g>
</svg>
