<svg width="20" height="20" viewBox="0 0 20 20" fill="none" xmlns="http://www.w3.org/2000/svg">
<mask id="mask0_3623_2032" style="mask-type:alpha" maskUnits="userSpaceOnUse" x="0" y="0" width="20" height="20">
<rect width="20" height="20" fill="#D9D9D9"/>
</mask>
<g mask="url(#mask0_3623_2032)">
<path d="M4.16667 17.5C3.70833 17.5 3.31597 17.3368 2.98958 17.0104C2.66319 16.684 2.5 16.2917 2.5 15.8333V4.16667C2.5 3.70833 2.66319 3.31597 2.98958 2.98958C3.31597 2.6632 3.70833 2.5 4.16667 2.5H7.66667C7.86111 2 8.16667 1.59722 8.58333 1.29167C9 0.986112 9.47222 0.833334 10 0.833334C10.5278 0.833334 11 0.986112 11.4167 1.29167C11.8333 1.59722 12.1389 2 12.3333 2.5H15.8333C16.2917 2.5 16.684 2.6632 17.0104 2.98958C17.3368 3.31597 17.5 3.70833 17.5 4.16667V15.8333C17.5 16.2917 17.3368 16.684 17.0104 17.0104C16.684 17.3368 16.2917 17.5 15.8333 17.5H4.16667ZM10 3.54167C10.1806 3.54167 10.3299 3.48264 10.4479 3.36458C10.566 3.24653 10.625 3.09722 10.625 2.91667C10.625 2.73611 10.566 2.58681 10.4479 2.46875C10.3299 2.3507 10.1806 2.29167 10 2.29167C9.81944 2.29167 9.67014 2.3507 9.55208 2.46875C9.43403 2.58681 9.375 2.73611 9.375 2.91667C9.375 3.09722 9.43403 3.24653 9.55208 3.36458C9.67014 3.48264 9.81944 3.54167 10 3.54167ZM10 10.8333C10.8056 10.8333 11.4931 10.5486 12.0625 9.97917C12.6319 9.40972 12.9167 8.72222 12.9167 7.91667C12.9167 7.11111 12.6319 6.42361 12.0625 5.85417C11.4931 5.28472 10.8056 5 10 5C9.19444 5 8.50694 5.28472 7.9375 5.85417C7.36806 6.42361 7.08333 7.11111 7.08333 7.91667C7.08333 8.72222 7.36806 9.40972 7.9375 9.97917C8.50694 10.5486 9.19444 10.8333 10 10.8333ZM4.16667 15.8333H15.8333V14.875C15.0833 14.1389 14.2118 13.559 13.2188 13.1354C12.2257 12.7118 11.1528 12.5 10 12.5C8.84722 12.5 7.77431 12.7118 6.78125 13.1354C5.78819 13.559 4.91667 14.1389 4.16667 14.875V15.8333Z" fill="#069550"/>
</g>
</svg>
