<svg width="20" height="20" viewBox="0 0 20 20" fill="none" xmlns="http://www.w3.org/2000/svg">
<mask id="mask0_4060_5009" style="mask-type:alpha" maskUnits="userSpaceOnUse" x="0" y="0" width="20" height="20">
<rect width="20" height="20" fill="#D9D9D9"/>
</mask>
<g mask="url(#mask0_4060_5009)">
<path d="M17.4583 15.1875L14.5625 18.0833C14.4792 18.1667 14.3854 18.2292 14.2812 18.2708C14.1771 18.3125 14.0694 18.3333 13.9583 18.3333H12.5C12.2639 18.3333 12.066 18.2535 11.9063 18.0937C11.7465 17.934 11.6667 17.7361 11.6667 17.5V16.0417C11.6667 15.9306 11.6875 15.8229 11.7292 15.7188C11.7708 15.6146 11.8333 15.5208 11.9167 15.4375L14.8125 12.5417L17.4583 15.1875ZM18.3333 14.3125L15.6875 11.6667L16.2917 11.0625C16.4583 10.8958 16.6528 10.8125 16.875 10.8125C17.0972 10.8125 17.2917 10.8958 17.4583 11.0625L18.9375 12.5417C19.1042 12.7083 19.1875 12.9028 19.1875 13.125C19.1875 13.3472 19.1042 13.5417 18.9375 13.7083L18.3333 14.3125ZM8.33333 7.5C8.09722 7.5 7.89931 7.42014 7.73958 7.26042C7.57986 7.10069 7.5 6.90278 7.5 6.66667C7.5 6.43055 7.57986 6.23264 7.73958 6.07292C7.89931 5.91319 8.09722 5.83333 8.33333 5.83333H14.1667C14.4028 5.83333 14.6007 5.91319 14.7604 6.07292C14.9201 6.23264 15 6.43055 15 6.66667C15 6.90278 14.9201 7.10069 14.7604 7.26042C14.6007 7.42014 14.4028 7.5 14.1667 7.5H8.33333ZM8.33333 10C8.09722 10 7.89931 9.92014 7.73958 9.76042C7.57986 9.60069 7.5 9.40278 7.5 9.16667C7.5 8.93055 7.57986 8.73264 7.73958 8.57292C7.89931 8.41319 8.09722 8.33333 8.33333 8.33333H14.1667C14.4028 8.33333 14.6007 8.41319 14.7604 8.57292C14.9201 8.73264 15 8.93055 15 9.16667C15 9.40278 14.9201 9.60069 14.7604 9.76042C14.6007 9.92014 14.4028 10 14.1667 10H8.33333ZM5 18.3333C4.30556 18.3333 3.71528 18.0903 3.22917 17.6042C2.74306 17.1181 2.5 16.5278 2.5 15.8333V15C2.5 14.5417 2.66319 14.1493 2.98958 13.8229C3.31597 13.4965 3.70833 13.3333 4.16667 13.3333H5V3.33333C5 2.875 5.16319 2.48264 5.48958 2.15625C5.81597 1.82986 6.20833 1.66667 6.66667 1.66667H15.8333C16.2917 1.66667 16.684 1.82986 17.0104 2.15625C17.3368 2.48264 17.5 2.875 17.5 3.33333V7.5L15.8333 9.16667V3.33333H6.66667V13.3333H11.6667L10.4792 14.5208C10.3264 14.6736 10.2083 14.8507 10.125 15.0521C10.0417 15.2535 10 15.4653 10 15.6875V18.3333H5Z" fill="#069550"/>
</g>
</svg>
