<svg width="16" height="16" viewBox="0 0 16 16" fill="none" xmlns="http://www.w3.org/2000/svg">
<path d="M4.65323 0.690797C4.24958 0.923843 4.11128 1.43999 4.34433 1.84363L4.54524 2.19162H3.11873C2.56468 2.19162 2.03331 2.41172 1.64154 2.8035C1.24976 3.19527 1.02966 3.72664 1.02966 4.28069V11.2443C1.02966 11.7983 1.24976 12.3297 1.64154 12.7215C2.03331 13.1132 2.56468 13.3333 3.11873 13.3333H8.68959C8.87427 13.3333 9.05139 13.26 9.18198 13.1294C9.31258 12.9988 9.38594 12.8217 9.38594 12.637L9.39082 12.5555C9.41178 12.3793 9.49925 12.2177 9.63535 12.1037C9.77146 11.9898 9.94593 11.9322 10.1231 11.9426C10.1416 11.9437 10.1599 11.9455 10.1781 11.948L11.666 14.5252C11.8991 14.9289 12.4152 15.0672 12.8189 14.8341C13.2225 14.6011 13.3608 14.0849 13.1278 13.6813L5.80606 0.999698C5.57302 0.596051 5.05688 0.457752 4.65323 0.690797Z" fill="white"/>
<path d="M14.3449 12.7215L14.333 12.7333L10.7573 6.53997C10.7647 6.51093 10.7702 6.4813 10.7738 6.45123L10.7787 6.36976V5.6734C10.7787 5.48872 10.7053 5.3116 10.5747 5.18101C10.4441 5.05041 10.267 4.97705 10.0823 4.97705C10.0109 4.97706 9.94053 4.98804 9.8735 5.00912L8.24682 2.19162H8.68959C8.86015 2.19164 9.02477 2.25426 9.15223 2.3676C9.27968 2.48094 9.36111 2.63711 9.38107 2.8065L9.38594 2.88798C9.38614 3.06547 9.4541 3.23618 9.57594 3.36524C9.69778 3.4943 9.86431 3.57196 10.0415 3.58237C10.2187 3.59277 10.3931 3.53512 10.5292 3.4212C10.6653 3.30729 10.7528 3.1457 10.7738 2.96945L10.7787 2.88798C10.7787 2.70329 10.852 2.52617 10.9826 2.39558C11.1132 2.26499 11.2903 2.19162 11.475 2.19162H12.8677C13.4218 2.19162 13.9531 2.41172 14.3449 2.8035C14.7367 3.19527 14.9568 3.72664 14.9568 4.28069V11.2443C14.9568 11.7983 14.7367 12.3297 14.3449 12.7215Z" fill="white"/>
</svg>
