<svg width="16" height="16" viewBox="0 0 16 16" fill="none" xmlns="http://www.w3.org/2000/svg">
<path fill-rule="evenodd" clip-rule="evenodd" d="M4.14286 1.73214C4.14286 1.46586 4.35872 1.25 4.625 1.25H5.58929C5.85557 1.25 6.07143 1.46586 6.07143 1.73214V2.21429H9.92857V1.73214C9.92857 1.46586 10.1444 1.25 10.4107 1.25H11.375C11.6413 1.25 11.8571 1.46586 11.8571 1.73214V2.21429H12.8214C13.8865 2.21429 14.75 3.07774 14.75 4.14286V4.625C14.75 4.89128 14.5341 5.10714 14.2679 5.10714H1.73214C1.46586 5.10714 1.25 4.89128 1.25 4.625V4.14286C1.25 3.07774 2.11345 2.21429 3.17857 2.21429H4.14286V1.73214ZM14.2679 6.55357C14.5341 6.55357 14.75 6.76944 14.75 7.03571V12.8214C14.75 13.8865 13.8865 14.75 12.8214 14.75H3.17857C2.11345 14.75 1.25 13.8865 1.25 12.8214V7.03571C1.25 6.76943 1.46586 6.55357 1.73214 6.55357H14.2679ZM3.17857 8.69287C3.17857 8.41673 3.40243 8.19287 3.67857 8.19287H5.08929C5.36543 8.19287 5.58929 8.41673 5.58929 8.69287V9.62144C5.58929 9.89758 5.36543 10.1214 5.08929 10.1214H3.67857C3.40243 10.1214 3.17857 9.89758 3.17857 9.62144V8.69287ZM3.67858 11.0857C3.40244 11.0857 3.17858 11.3096 3.17858 11.5857V12.5143C3.17858 12.7904 3.40244 13.0143 3.67858 13.0143H5.0893C5.36544 13.0143 5.5893 12.7904 5.5893 12.5143V11.5857C5.5893 11.3096 5.36544 11.0857 5.0893 11.0857H3.67858ZM6.79466 8.69287C6.79466 8.41673 7.01851 8.19287 7.29466 8.19287H8.70537C8.98151 8.19287 9.20537 8.41673 9.20537 8.69287V9.62144C9.20537 9.89758 8.98151 10.1214 8.70537 10.1214H7.29466C7.01851 10.1214 6.79466 9.89758 6.79466 9.62144V8.69287ZM7.29466 11.0857C7.01851 11.0857 6.79466 11.3096 6.79466 11.5857V12.5143C6.79466 12.7904 7.01851 13.0143 7.29466 13.0143H8.70537C8.98151 13.0143 9.20537 12.7904 9.20537 12.5143V11.5857C9.20537 11.3096 8.98151 11.0857 8.70537 11.0857H7.29466ZM10.4107 8.69287C10.4107 8.41673 10.6346 8.19287 10.9107 8.19287H12.3214C12.5976 8.19287 12.8214 8.41673 12.8214 8.69287V9.62144C12.8214 9.89758 12.5976 10.1214 12.3214 10.1214H10.9107C10.6346 10.1214 10.4107 9.89758 10.4107 9.62144V8.69287ZM10.9107 11.0857C10.6346 11.0857 10.4107 11.3096 10.4107 11.5857V12.5143C10.4107 12.7904 10.6346 13.0143 10.9107 13.0143H12.3214C12.5976 13.0143 12.8214 12.7904 12.8214 12.5143V11.5857C12.8214 11.3096 12.5976 11.0857 12.3214 11.0857H10.9107Z" fill="white"/>
</svg>
