<svg width="14" height="14" viewBox="0 0 14 14" fill="none" xmlns="http://www.w3.org/2000/svg">
<path d="M11 3.8C11 4.01217 10.9157 4.21566 10.7657 4.36569C10.6157 4.51571 10.4122 4.6 10.2 4.6C9.98785 4.6 9.78437 4.51571 9.63434 4.36569C9.48431 4.21566 9.40002 4.01217 9.40002 3.8C9.40002 3.58783 9.48431 3.38434 9.63434 3.23431C9.78437 3.08429 9.98785 3 10.2 3C10.4122 3 10.6157 3.08429 10.7657 3.23431C10.9157 3.38434 11 3.58783 11 3.8Z" fill="#616161"/>
<path d="M8.99998 0.599976C6.53918 0.599976 4.59998 2.53918 4.59998 4.99998C4.59998 5.31758 4.63198 5.63678 4.69758 5.93998C4.74398 6.15598 4.69118 6.34318 4.58398 6.45038L0.951976 10.0824C0.840322 10.1939 0.75176 10.3263 0.691359 10.4721C0.630958 10.6179 0.599904 10.7742 0.599976 10.932V12.2C0.599976 12.5182 0.726404 12.8235 0.951448 13.0485C1.17649 13.2735 1.48172 13.4 1.79998 13.4H3.39998C3.71824 13.4 4.02346 13.2735 4.2485 13.0485C4.47355 12.8235 4.59998 12.5182 4.59998 12.2V11.8H5.39998C5.61215 11.8 5.81563 11.7157 5.96566 11.5657C6.11569 11.4156 6.19998 11.2121 6.19998 11V10.2H6.99998C7.21215 10.2 7.41563 10.1157 7.56566 9.96566C7.71569 9.81563 7.79998 9.61215 7.79998 9.39998V9.25597C8.19438 9.36317 8.60558 9.39998 8.99998 9.39998C11.4608 9.39998 13.4 7.46078 13.4 4.99998C13.4 2.53918 11.4608 0.599976 8.99998 0.599976ZM5.39998 4.99998C5.39998 2.98078 6.98078 1.39998 8.99998 1.39998C11.0192 1.39998 12.6 2.98078 12.6 4.99998C12.6 7.01918 11.0192 8.59998 8.99998 8.59998C8.47198 8.59998 7.98158 8.52398 7.57918 8.32238C7.51819 8.29182 7.45041 8.27736 7.38226 8.28038C7.31412 8.2834 7.24788 8.3038 7.18984 8.33963C7.1318 8.37547 7.08389 8.42555 7.05065 8.48512C7.01742 8.54469 6.99998 8.61176 6.99998 8.67998V9.39998H6.19998C5.9878 9.39998 5.78432 9.48426 5.63429 9.63429C5.48426 9.78432 5.39998 9.9878 5.39998 10.2V11H4.59998C4.3878 11 4.18432 11.0843 4.03429 11.2343C3.88426 11.3843 3.79998 11.5878 3.79998 11.8V12.2C3.79998 12.3061 3.75783 12.4078 3.68282 12.4828C3.6078 12.5578 3.50606 12.6 3.39998 12.6H1.79998C1.69389 12.6 1.59215 12.5578 1.51713 12.4828C1.44212 12.4078 1.39998 12.3061 1.39998 12.2V10.9312C1.4 10.8253 1.442 10.7237 1.51678 10.6488L5.14958 7.01598C5.49518 6.67038 5.56718 6.18078 5.47918 5.77118C5.42581 5.5176 5.39926 5.25911 5.39998 4.99998V4.99998Z" fill="#616161"/>
</svg>
