<svg width="16" height="16" viewBox="0 0 16 16" fill="none" xmlns="http://www.w3.org/2000/svg">
<path fill-rule="evenodd" clip-rule="evenodd" d="M0.930176 3.79518C0.930176 3.32642 1.11639 2.87685 1.44786 2.54539C1.77932 2.21392 2.22888 2.02771 2.69764 2.02771H9.76752C10.2363 2.02771 10.6858 2.21392 11.0173 2.54539C11.3488 2.87685 11.535 3.32642 11.535 3.79518V12.6325C11.535 13.1013 11.7212 13.5508 12.0527 13.8823C12.3841 14.2138 12.8337 14.4 13.3025 14.4H2.69764C2.22888 14.4 1.77932 14.2138 1.44786 13.8823C1.11639 13.5508 0.930176 13.1013 0.930176 12.6325V3.79518ZM3.58138 4.67891H8.88379V8.21385H3.58138V4.67891ZM8.88379 9.98132H3.58138V11.7488H8.88379V9.98132Z" fill="white"/>
<path d="M12.4187 5.56262H13.3024C13.7712 5.56262 14.2208 5.74884 14.5522 6.0803C14.8837 6.41177 15.0699 6.86133 15.0699 7.33009V12.1906C15.0699 12.5422 14.9302 12.8794 14.6816 13.128C14.433 13.3766 14.0959 13.5162 13.7443 13.5162C13.3927 13.5162 13.0556 13.3766 12.807 13.128C12.5584 12.8794 12.4187 12.5422 12.4187 12.1906V5.56262Z" fill="white"/>
</svg>
