<svg width="20" height="20" viewBox="0 0 20 20" fill="none" xmlns="http://www.w3.org/2000/svg">
<path fill-rule="evenodd" clip-rule="evenodd" d="M2.99 17.0108C3.31611 17.3369 3.70833 17.5 4.16667 17.5H15.8333C16.2922 17.5006 16.6847 17.3375 17.0108 17.0108C17.3369 16.6842 17.5 16.2917 17.5 15.8333V4.16667C17.5006 3.70889 17.3375 3.31667 17.0108 2.99C16.6842 2.66333 16.2917 2.5 15.8333 2.5H12.3333C12.1533 2 11.8514 1.59722 11.4275 1.29167C11.0036 0.986112 10.5278 0.833334 10 0.833334C9.47278 0.833334 8.99722 0.986112 8.57333 1.29167C8.14944 1.59722 7.84722 2 7.66667 2.5H4.16667C3.70889 2.50056 3.31667 2.66389 2.99 2.99C2.66333 3.31611 2.5 3.70833 2.5 4.16667V15.8333C2.50056 16.2922 2.66389 16.6847 2.99 17.0108ZM10.4483 3.36417C10.33 3.4825 10.1806 3.54167 10 3.54167C9.82 3.54222 9.67083 3.48333 9.5525 3.365C9.43417 3.24667 9.375 3.09722 9.375 2.91667C9.37556 2.73667 9.43472 2.5875 9.5525 2.46917C9.67028 2.35083 9.81945 2.29167 10 2.29167C10.18 2.29222 10.3292 2.35139 10.4475 2.46917C10.5658 2.58695 10.625 2.73611 10.625 2.91667C10.6256 3.09667 10.5667 3.24583 10.4483 3.36417ZM10.8218 13.5361C11.7631 13.9565 12.7161 14.1667 13.6806 14.1667C13.8194 14.1667 13.9352 14.1204 14.0278 14.0278C14.1204 13.9352 14.1667 13.8194 14.1667 13.6806V11.8056C14.1667 11.7056 14.1319 11.615 14.0625 11.5338C13.9931 11.4526 13.9043 11.3966 13.7963 11.3657L12.1991 11.0417C12.0914 11.0265 11.9815 11.0363 11.8694 11.0708C11.7574 11.1054 11.6667 11.1574 11.5972 11.2269L10.5093 12.3148C10.2161 12.1454 9.93827 11.9583 9.67593 11.7537C9.41358 11.5491 9.16281 11.3272 8.92361 11.088C8.66867 10.8407 8.43519 10.5841 8.22315 10.3181C8.01111 10.052 7.82793 9.77623 7.67361 9.49074L8.7963 8.35648C8.85802 8.29475 8.90046 8.22145 8.92361 8.13657C8.94676 8.0517 8.95062 7.94753 8.93519 7.82407L8.63426 6.2037C8.61883 6.1037 8.56867 6.01698 8.4838 5.94352C8.39892 5.87006 8.30247 5.83333 8.19445 5.83333H6.31944C6.18056 5.83333 6.06481 5.87963 5.97222 5.97222C5.87963 6.06482 5.83333 6.18056 5.83333 6.31945C5.83364 7.28395 6.04398 8.23688 6.46435 9.17824C6.88472 10.1196 7.48071 10.9761 8.25232 11.7477C9.02392 12.5196 9.8804 13.1157 10.8218 13.5361Z" fill="#069550"/>
</svg>
