<svg width="16" height="16" viewBox="0 0 16 16" fill="none" xmlns="http://www.w3.org/2000/svg">
<path d="M12.75 10.5H10.75C10.6119 10.5 10.5 10.6119 10.5 10.75V12.75C10.5 12.8881 10.6119 13 10.75 13H12.75C12.8881 13 13 12.8881 13 12.75V10.75C13 10.6119 12.8881 10.5 12.75 10.5Z" fill="white"/>
<path d="M10.25 8.5H8.75C8.61193 8.5 8.5 8.61193 8.5 8.75V10.25C8.5 10.3881 8.61193 10.5 8.75 10.5H10.25C10.3881 10.5 10.5 10.3881 10.5 10.25V8.75C10.5 8.61193 10.3881 8.5 10.25 8.5Z" fill="#16A75C"/>
<path d="M14.75 13H13.25C13.1119 13 13 13.1119 13 13.25V14.75C13 14.8881 13.1119 15 13.25 15H14.75C14.8881 15 15 14.8881 15 14.75V13.25C15 13.1119 14.8881 13 14.75 13Z" fill="white"/>
<path d="M14.75 8.5H13.75C13.6119 8.5 13.5 8.61193 13.5 8.75V9.75C13.5 9.88807 13.6119 10 13.75 10H14.75C14.8881 10 15 9.88807 15 9.75V8.75C15 8.61193 14.8881 8.5 14.75 8.5Z" fill="white"/>
<path d="M9.75 13.5H8.75C8.61193 13.5 8.5 13.6119 8.5 13.75V14.75C8.5 14.8881 8.61193 15 8.75 15H9.75C9.88807 15 10 14.8881 10 14.75V13.75C10 13.6119 9.88807 13.5 9.75 13.5Z" fill="white"/>
<path d="M14 1H9.5C9.23478 1 8.98043 1.10536 8.79289 1.29289C8.60536 1.48043 8.5 1.73478 8.5 2V6.5C8.5 6.76522 8.60536 7.01957 8.79289 7.20711C8.98043 7.39464 9.23478 7.5 9.5 7.5H14C14.2652 7.5 14.5196 7.39464 14.7071 7.20711C14.8946 7.01957 15 6.76522 15 6.5V2C15 1.73478 14.8946 1.48043 14.7071 1.29289C14.5196 1.10536 14.2652 1 14 1ZM13 5.25C13 5.3163 12.9737 5.37989 12.9268 5.42678C12.8799 5.47366 12.8163 5.5 12.75 5.5H10.75C10.6837 5.5 10.6201 5.47366 10.5732 5.42678C10.5263 5.37989 10.5 5.3163 10.5 5.25V3.25C10.5 3.1837 10.5263 3.12011 10.5732 3.07322C10.6201 3.02634 10.6837 3 10.75 3H12.75C12.8163 3 12.8799 3.02634 12.9268 3.07322C12.9737 3.12011 13 3.1837 13 3.25V5.25ZM6.5 1H2C1.73478 1 1.48043 1.10536 1.29289 1.29289C1.10536 1.48043 1 1.73478 1 2V6.5C1 6.76522 1.10536 7.01957 1.29289 7.20711C1.48043 7.39464 1.73478 7.5 2 7.5H6.5C6.76522 7.5 7.01957 7.39464 7.20711 7.20711C7.39464 7.01957 7.5 6.76522 7.5 6.5V2C7.5 1.73478 7.39464 1.48043 7.20711 1.29289C7.01957 1.10536 6.76522 1 6.5 1ZM5.5 5.25C5.5 5.3163 5.47366 5.37989 5.42678 5.42678C5.37989 5.47366 5.3163 5.5 5.25 5.5H3.25C3.1837 5.5 3.12011 5.47366 3.07322 5.42678C3.02634 5.37989 3 5.3163 3 5.25V3.25C3 3.1837 3.02634 3.12011 3.07322 3.07322C3.12011 3.02634 3.1837 3 3.25 3H5.25C5.3163 3 5.37989 3.02634 5.42678 3.07322C5.47366 3.12011 5.5 3.1837 5.5 3.25V5.25ZM6.5 8.5H2C1.73478 8.5 1.48043 8.60536 1.29289 8.79289C1.10536 8.98043 1 9.23478 1 9.5V14C1 14.2652 1.10536 14.5196 1.29289 14.7071C1.48043 14.8946 1.73478 15 2 15H6.5C6.76522 15 7.01957 14.8946 7.20711 14.7071C7.39464 14.5196 7.5 14.2652 7.5 14V9.5C7.5 9.23478 7.39464 8.98043 7.20711 8.79289C7.01957 8.60536 6.76522 8.5 6.5 8.5ZM5.5 12.75C5.5 12.8163 5.47366 12.8799 5.42678 12.9268C5.37989 12.9737 5.3163 13 5.25 13H3.25C3.1837 13 3.12011 12.9737 3.07322 12.9268C3.02634 12.8799 3 12.8163 3 12.75V10.75C3 10.6837 3.02634 10.6201 3.07322 10.5732C3.12011 10.5263 3.1837 10.5 3.25 10.5H5.25C5.3163 10.5 5.37989 10.5263 5.42678 10.5732C5.47366 10.6201 5.5 10.6837 5.5 10.75V12.75Z" fill="white"/>
</svg>
