<svg width="90" height="17" viewBox="0 0 90 17" fill="none" xmlns="http://www.w3.org/2000/svg">
<rect width="90" height="17" rx="4" fill="white"/>
<path d="M37.3633 9.78711C37.4102 9.88867 37.4336 10.0039 37.4336 10.1328C37.4336 10.2812 37.3906 10.418 37.3047 10.543C37.2227 10.668 37.0898 10.7695 36.9062 10.8477C36.7266 10.9219 36.4941 10.959 36.209 10.959C35.9824 10.959 35.7754 10.9375 35.5879 10.8945C35.4004 10.8516 35.2383 10.7852 35.1016 10.6953C34.9688 10.6016 34.8652 10.4824 34.791 10.3379C34.7207 10.1895 34.6855 10.0137 34.6855 9.81055H33.2676C33.2676 10.1895 33.3496 10.5195 33.5137 10.8008C33.6816 11.0781 33.9043 11.3066 34.1816 11.4863C34.459 11.666 34.7695 11.7988 35.1133 11.8848C35.4609 11.9707 35.8105 12.0137 36.1621 12.0137C36.5605 12.0137 36.9219 11.9707 37.2461 11.8848C37.5703 11.7949 37.8477 11.668 38.0781 11.5039C38.3125 11.3398 38.4922 11.1406 38.6172 10.9062C38.7422 10.668 38.8047 10.3984 38.8047 10.0977C38.8047 9.80078 38.752 9.53711 38.6465 9.30664C38.5449 9.07227 38.3906 8.86914 38.1836 8.69727C37.9766 8.52148 37.7188 8.36914 37.4102 8.24023C37.1016 8.11133 36.7461 8 36.3438 7.90625C36.0742 7.83984 35.8457 7.77148 35.6582 7.70117C35.4707 7.63086 35.3184 7.55664 35.2012 7.47852C35.084 7.40039 34.998 7.31445 34.9434 7.2207C34.8926 7.12695 34.8672 7.02148 34.8672 6.9043C34.8672 6.75586 34.9102 6.61914 34.9961 6.49414C35.0859 6.36523 35.2207 6.26172 35.4004 6.18359C35.5801 6.10156 35.8086 6.06055 36.0859 6.06055C36.375 6.06055 36.6152 6.10742 36.8066 6.20117C36.998 6.29492 37.1426 6.41992 37.2402 6.57617C37.3418 6.73242 37.3926 6.9082 37.3926 7.10352H38.8047C38.8047 6.68945 38.6914 6.32617 38.4648 6.01367C38.2422 5.69727 37.9277 5.44922 37.5215 5.26953C37.1152 5.08984 36.6367 5 36.0859 5C35.707 5 35.3594 5.04688 35.043 5.14062C34.7266 5.23438 34.4531 5.36914 34.2227 5.54492C33.9922 5.7168 33.8145 5.92188 33.6895 6.16016C33.5645 6.39453 33.502 6.6543 33.502 6.93945C33.502 7.23633 33.5547 7.49609 33.6602 7.71875C33.7695 7.94141 33.9297 8.13477 34.1406 8.29883C34.3516 8.46289 34.6113 8.60742 34.9199 8.73242C35.2324 8.85352 35.5918 8.96289 35.998 9.06055C36.2793 9.12695 36.5117 9.19727 36.6953 9.27148C36.8828 9.3457 37.0293 9.42578 37.1348 9.51172C37.2441 9.59375 37.3203 9.68555 37.3633 9.78711Z" fill="#424242"/>
<path d="M44.4453 9.64648H45.8633C45.8281 10.1113 45.6914 10.5215 45.4531 10.877C45.2188 11.2324 44.8906 11.5117 44.4688 11.7148C44.0469 11.9141 43.5371 12.0137 42.9395 12.0137C42.4746 12.0137 42.0566 11.9375 41.6855 11.7852C41.3184 11.6328 41.0039 11.416 40.7422 11.1348C40.4844 10.8496 40.2852 10.5059 40.1445 10.1035C40.0078 9.69727 39.9395 9.24219 39.9395 8.73828V8.28125C39.9395 7.77734 40.0098 7.32422 40.1504 6.92188C40.291 6.51562 40.4941 6.16992 40.7598 5.88477C41.0254 5.5957 41.3418 5.37695 41.709 5.22852C42.0801 5.07617 42.4961 5 42.957 5C43.5625 5 44.0723 5.10352 44.4863 5.31055C44.9004 5.51367 45.2227 5.79688 45.4531 6.16016C45.6836 6.52344 45.8223 6.93945 45.8691 7.4082H44.457C44.4336 7.1543 44.3691 6.93164 44.2637 6.74023C44.1582 6.54492 44 6.39258 43.7891 6.2832C43.5781 6.17383 43.3008 6.11914 42.957 6.11914C42.6914 6.11914 42.459 6.16602 42.2598 6.25977C42.0605 6.34961 41.8926 6.48633 41.7559 6.66992C41.623 6.85352 41.5215 7.08008 41.4512 7.34961C41.3848 7.61523 41.3516 7.92383 41.3516 8.27539V8.73828C41.3516 9.08203 41.3809 9.38867 41.4395 9.6582C41.502 9.92383 41.5977 10.1484 41.7266 10.332C41.8555 10.5156 42.0195 10.6562 42.2188 10.7539C42.4219 10.8477 42.6621 10.8945 42.9395 10.8945C43.2715 10.8945 43.543 10.8496 43.7539 10.7598C43.9648 10.666 44.127 10.5254 44.2402 10.3379C44.3535 10.1504 44.4219 9.91992 44.4453 9.64648Z" fill="#424242"/>
<path d="M51.668 9.125H48.5801V11.9199H47.168V5.09375H48.5801V8H51.668V5.09375H53.0801V11.9199H51.668V9.125Z" fill="#424242"/>
<path d="M59.5938 10.8008V11.9199H54.7188V5.09375H59.582V6.21875H56.1309V7.83008H59.0898V8.94922H56.1309V10.8008H59.5938Z" fill="#424242"/>
<path fill-rule="evenodd" clip-rule="evenodd" d="M62.9902 11.9199C63.6543 11.9199 64.2363 11.7852 64.7363 11.5156C65.2402 11.2422 65.6328 10.8613 65.9141 10.373C66.1992 9.88477 66.3418 9.31836 66.3418 8.67383V8.3457C66.3418 7.86133 66.2598 7.41992 66.0957 7.02148C65.9355 6.62305 65.707 6.28125 65.4102 5.99609C65.1172 5.70703 64.7656 5.48438 64.3555 5.32812C63.9492 5.17188 63.502 5.09375 63.0137 5.09375H60.7812V11.9199H62.9902ZM62.1934 10.8008H62.9902C63.4395 10.8008 63.8066 10.7188 64.0918 10.5547C64.377 10.3867 64.5859 10.1445 64.7188 9.82812C64.8555 9.51172 64.9238 9.12695 64.9238 8.67383V8.33398C64.9238 7.99414 64.8848 7.69336 64.8066 7.43164C64.7324 7.16602 64.6172 6.94336 64.4609 6.76367C64.3047 6.58398 64.1055 6.44922 63.8633 6.35938C63.625 6.26562 63.3418 6.21875 63.0137 6.21875H62.1934V10.8008Z" fill="#424242"/>
<path d="M71.8242 5.09375H73.2422V9.59375C73.2422 10.1172 73.1211 10.5605 72.8789 10.9238C72.6367 11.2832 72.3066 11.5547 71.8887 11.7383C71.4707 11.9219 70.9941 12.0137 70.459 12.0137C69.916 12.0137 69.4336 11.9219 69.0117 11.7383C68.5938 11.5547 68.2656 11.2832 68.0273 10.9238C67.7891 10.5605 67.6699 10.1172 67.6699 9.59375V5.09375H69.0762V9.59375C69.0762 9.89453 69.1309 10.1426 69.2402 10.3379C69.3535 10.5293 69.5137 10.6699 69.7207 10.7598C69.9277 10.8496 70.1738 10.8945 70.459 10.8945C70.7441 10.8945 70.9883 10.8496 71.1914 10.7598C71.3945 10.6699 71.5508 10.5293 71.6602 10.3379C71.7695 10.1426 71.8242 9.89453 71.8242 9.59375V5.09375Z" fill="#424242"/>
<path d="M79.457 11.9199V10.8008H76.2051V5.09375H74.793V11.9199H79.457Z" fill="#424242"/>
<path d="M85.4961 11.9199V10.8008H82.0332V8.94922H84.9922V7.83008H82.0332V6.21875H85.4844V5.09375H80.6211V11.9199H85.4961Z" fill="#424242"/>
<path d="M32.4023 10.8008V11.9199H27.5273V5.09375H32.3906V6.21875H28.9395V7.83008H31.8984V8.94922H28.9395V10.8008H32.4023Z" fill="#424242"/>
<path fill-rule="evenodd" clip-rule="evenodd" d="M23.375 5.09375H20.6855V11.9199H22.1035V9.42383H23.4291L24.8223 11.9199H26.3457V11.8555L24.7368 9.07143C24.9461 8.98417 25.1348 8.88093 25.3027 8.76172C25.5449 8.58984 25.7324 8.37305 25.8652 8.11133C25.998 7.8457 26.0645 7.52734 26.0645 7.15625C26.0645 6.82031 26.002 6.52539 25.877 6.27148C25.7559 6.01367 25.5781 5.79883 25.3438 5.62695C25.1133 5.45117 24.832 5.31836 24.5 5.22852C24.168 5.13867 23.793 5.09375 23.375 5.09375ZM22.1035 8.29883H23.3926C23.6738 8.29883 23.9062 8.25586 24.0898 8.16992C24.2734 8.08398 24.4121 7.96484 24.5059 7.8125C24.5996 7.65625 24.6465 7.47656 24.6465 7.27344C24.6465 7.05859 24.5996 6.87305 24.5059 6.7168C24.416 6.55664 24.2754 6.43359 24.084 6.34766C23.8965 6.26172 23.6602 6.21875 23.375 6.21875H22.1035V8.29883Z" fill="#424242"/>
<path fill-rule="evenodd" clip-rule="evenodd" d="M7.5 3.25C7.77614 3.25 8 3.47386 8 3.75V4.24996H11V3.75C11 3.47386 11.2239 3.25 11.5 3.25C11.7761 3.25 12 3.47386 12 3.75V4.24996H12.5C12.8978 4.24996 13.2794 4.408 13.5607 4.6893C13.842 4.97061 14 5.35214 14 5.74996V7.74901C14 7.76627 13.9991 7.78431 13.9974 7.80112C13.9718 8.05325 13.7589 8.25 13.5 8.25H6V11.75C6 11.8826 6.05268 12.0097 6.14645 12.1035C6.24022 12.1973 6.36739 12.25 6.5 12.25H9.8975C10.1736 12.25 10.3975 12.4738 10.3975 12.75C10.3975 13.0261 10.1736 13.25 9.8975 13.25H6.5C6.10217 13.25 5.72064 13.0919 5.43934 12.8106C5.15804 12.5293 5 12.1478 5 11.75V5.74996C5 5.35214 5.15804 4.97061 5.43934 4.6893C5.72064 4.408 6.10218 4.24996 6.5 4.24996H7V3.75C7 3.47386 7.22386 3.25 7.5 3.25ZM7 5.75V5.24996H6.5C6.36739 5.24996 6.24021 5.30264 6.14645 5.39641C6.05268 5.49018 6 5.61735 6 5.74996V7.25H13V5.74996C13 5.61735 12.9473 5.49018 12.8536 5.39641C12.7598 5.30264 12.6326 5.24996 12.5 5.24996H12V5.75C12 6.02614 11.7761 6.25 11.5 6.25C11.2239 6.25 11 6.02614 11 5.75V5.24996H8V5.75C8 6.02614 7.77614 6.25 7.5 6.25C7.22386 6.25 7 6.02614 7 5.75Z" fill="#424242"/>
<path d="M13.5 10.4979C13.5 10.2218 13.2761 9.99794 13 9.99794C12.7239 9.99794 12.5 10.2218 12.5 10.4979V11.2499C12.5 11.3825 12.5527 11.5097 12.6464 11.6035L13.1464 12.1035C13.3417 12.2988 13.6583 12.2988 13.8536 12.1035C14.0488 11.9082 14.0488 11.5916 13.8536 11.3964L13.5 11.0428V10.4979Z" fill="#424242"/>
<path fill-rule="evenodd" clip-rule="evenodd" d="M11.2322 9.48223C11.7011 9.01339 12.337 8.75 13 8.75C13.663 8.75 14.2989 9.01339 14.7678 9.48223C15.2366 9.95107 15.5 10.587 15.5 11.25C15.5 11.913 15.2366 12.5489 14.7678 13.0178C14.2989 13.4866 13.663 13.75 13 13.75C12.337 13.75 11.7011 13.4866 11.2322 13.0178C10.7634 12.5489 10.5 11.913 10.5 11.25C10.5 10.587 10.7634 9.95107 11.2322 9.48223ZM13 9.75C12.6022 9.75 12.2206 9.90804 11.9393 10.1893C11.658 10.4706 11.5 10.8522 11.5 11.25C11.5 11.6478 11.658 12.0294 11.9393 12.3107C12.2206 12.592 12.6022 12.75 13 12.75C13.3978 12.75 13.7794 12.592 14.0607 12.3107C14.342 12.0294 14.5 11.6478 14.5 11.25C14.5 10.8522 14.342 10.4706 14.0607 10.1893C13.7794 9.90804 13.3978 9.75 13 9.75Z" fill="#424242"/>
</svg>
