<svg width="16" height="16" viewBox="0 0 16 16" fill="none" xmlns="http://www.w3.org/2000/svg">
<path d="M8.00005 1.08154C11.8211 1.08154 14.9186 4.17896 14.9186 8.00005C14.9186 11.8211 11.8211 14.9186 8.00005 14.9186C4.17896 14.9186 1.08154 11.8211 1.08154 8.00005C1.08154 4.17896 4.17896 1.08154 8.00005 1.08154ZM11.1798 4.8203C11.1113 4.75166 11.0209 4.70937 10.9243 4.70089C10.8277 4.69241 10.7313 4.71828 10.6519 4.77395C8.65246 6.17702 7.52475 7.00863 7.266 7.266C7.07157 7.46082 6.96238 7.72481 6.96238 8.00005C6.96238 8.27529 7.07157 8.53928 7.266 8.7341C7.46082 8.92853 7.72481 9.03772 8.00005 9.03772C8.27529 9.03772 8.53928 8.92853 8.7341 8.7341C8.88562 8.5819 9.71515 7.45349 11.2234 5.34611C11.2795 5.26748 11.3059 5.1715 11.298 5.07522C11.29 4.97894 11.2481 4.88862 11.1798 4.8203ZM11.8052 7.3082C11.6217 7.3082 11.4458 7.38109 11.316 7.51084C11.1863 7.64058 11.1134 7.81656 11.1134 8.00005C11.1134 8.18354 11.1863 8.35951 11.316 8.48926C11.4458 8.61901 11.6217 8.6919 11.8052 8.6919C11.9887 8.6919 12.1647 8.61901 12.2944 8.48926C12.4242 8.35951 12.4971 8.18354 12.4971 8.00005C12.4971 7.81656 12.4242 7.64058 12.2944 7.51084C12.1647 7.38109 11.9887 7.3082 11.8052 7.3082ZM4.19487 7.3082C4.01138 7.3082 3.83541 7.38109 3.70566 7.51084C3.57591 7.64058 3.50302 7.81656 3.50302 8.00005C3.50302 8.18354 3.57591 8.35951 3.70566 8.48926C3.83541 8.61901 4.01138 8.6919 4.19487 8.6919C4.37836 8.6919 4.55434 8.61901 4.68408 8.48926C4.81383 8.35951 4.88672 8.18354 4.88672 8.00005C4.88672 7.81656 4.81383 7.64058 4.68408 7.51084C4.55434 7.38109 4.37836 7.3082 4.19487 7.3082ZM5.79858 4.8203C5.73426 4.75607 5.65791 4.70513 5.5739 4.6704C5.48989 4.63568 5.39986 4.61783 5.30895 4.6179C5.21805 4.61796 5.12804 4.63593 5.04408 4.67078C4.96012 4.70563 4.88385 4.75667 4.81961 4.821C4.68988 4.95091 4.61708 5.12703 4.61721 5.31062C4.61727 5.40153 4.63524 5.49153 4.67009 5.57549C4.70493 5.65945 4.75598 5.73573 4.8203 5.79996C4.95021 5.92969 5.12634 6.0025 5.30993 6.00237C5.49352 6.00224 5.66955 5.92918 5.79927 5.79927C5.929 5.66936 6.00181 5.49324 6.00168 5.30965C6.00155 5.12605 5.92849 4.95003 5.79858 4.8203ZM8.00005 3.50302C7.81656 3.50302 7.64058 3.57591 7.51084 3.70566C7.38109 3.83541 7.3082 4.01138 7.3082 4.19487C7.3082 4.37836 7.38109 4.55434 7.51084 4.68408C7.64058 4.81383 7.81656 4.88672 8.00005 4.88672C8.18354 4.88672 8.35951 4.81383 8.48926 4.68408C8.61901 4.55434 8.6919 4.37836 8.6919 4.19487C8.6919 4.01138 8.61901 3.83541 8.48926 3.70566C8.35951 3.57591 8.18354 3.50302 8.00005 3.50302Z" fill="white"/>
</svg>
