<svg width="14" height="12" viewBox="0 0 14 12" fill="none" xmlns="http://www.w3.org/2000/svg">
<path fill-rule="evenodd" clip-rule="evenodd" d="M7.68946 0.191628C7.86002 0.19165 8.02465 0.254269 8.1521 0.367607C8.27956 0.480946 8.36099 0.637121 8.38095 0.80651L8.38582 0.887984C8.38602 1.06547 8.45398 1.23619 8.57582 1.36525C8.69766 1.49431 8.86419 1.57197 9.04137 1.58237C9.21855 1.59277 9.39302 1.53513 9.52912 1.42121C9.66523 1.30729 9.7527 1.1457 9.77366 0.969458L9.77853 0.887984C9.77853 0.703299 9.8519 0.526178 9.98249 0.395586C10.1131 0.264994 10.2902 0.191628 10.4749 0.191628H11.8676C12.4217 0.191628 12.953 0.411725 13.3448 0.803502C13.7366 1.19528 13.9567 1.72664 13.9567 2.2807V9.24426C13.9567 9.79832 13.7366 10.3297 13.3448 10.7215C12.953 11.1132 12.4217 11.3333 11.8676 11.3333H10.4749C10.3043 11.3333 10.1397 11.2707 10.0123 11.1574C9.88479 11.044 9.80336 10.8878 9.78341 10.7185L9.77853 10.637C9.77834 10.4595 9.71038 10.2888 9.58853 10.1597C9.46669 10.0307 9.30017 9.95299 9.12299 9.94259C8.94581 9.93219 8.77134 9.98983 8.63523 10.1038C8.49913 10.2177 8.41166 10.3793 8.3907 10.5555L8.38582 10.637C8.38582 10.8217 8.31246 10.9988 8.18186 11.1294C8.05127 11.26 7.87415 11.3333 7.68946 11.3333H2.11861C1.56456 11.3333 1.03319 11.1132 0.641416 10.7215C0.249639 10.3297 0.029541 9.79832 0.029541 9.24426V2.2807C0.029541 1.72664 0.249639 1.19528 0.641416 0.803502C1.03319 0.411725 1.56456 0.191628 2.11861 0.191628H7.68946ZM9.08218 6.45884C8.89749 6.45884 8.72037 6.5322 8.58978 6.6628C8.45919 6.79339 8.38582 6.97051 8.38582 7.15519V7.85155C8.38582 8.03624 8.45919 8.21336 8.58978 8.34395C8.72037 8.47454 8.89749 8.54791 9.08218 8.54791C9.26686 8.54791 9.44398 8.47454 9.57458 8.34395C9.70517 8.21336 9.77853 8.03624 9.77853 7.85155V7.15519C9.77853 6.97051 9.70517 6.79339 9.57458 6.6628C9.44398 6.5322 9.26686 6.45884 9.08218 6.45884ZM9.08218 2.97705C8.91162 2.97708 8.74699 3.0397 8.61954 3.15303C8.49208 3.26637 8.41065 3.42255 8.3907 3.59194L8.38582 3.67341V4.36977C8.38602 4.54725 8.45398 4.71797 8.57582 4.84703C8.69766 4.97609 8.86419 5.05375 9.04137 5.06416C9.21855 5.07456 9.39302 5.01691 9.52912 4.90299C9.66523 4.78908 9.7527 4.62749 9.77366 4.45124L9.77853 4.36977V3.67341C9.77853 3.48873 9.70517 3.3116 9.57458 3.18101C9.44398 3.05042 9.26686 2.97705 9.08218 2.97705Z" fill="white"/>
</svg>
