<svg width="20" height="14" viewBox="0 0 20 14" fill="none" xmlns="http://www.w3.org/2000/svg">
<path d="M0.833313 12.8333V11.3333C0.833313 10.8611 0.954841 10.4271 1.1979 10.0313C1.44095 9.63543 1.76387 9.33334 2.16665 9.12501C3.02776 8.69445 3.90276 8.37154 4.79165 8.15626C5.68054 7.94098 6.58331 7.83334 7.49998 7.83334C8.41665 7.83334 9.31942 7.94098 10.2083 8.15626C11.0972 8.37154 11.9722 8.69445 12.8333 9.12501C13.2361 9.33334 13.559 9.63543 13.8021 10.0313C14.0451 10.4271 14.1666 10.8611 14.1666 11.3333V12.8333C14.1666 13.0695 14.0868 13.2674 13.9271 13.4271C13.7673 13.5868 13.5694 13.6667 13.3333 13.6667H1.66665C1.43054 13.6667 1.23262 13.5868 1.0729 13.4271C0.913174 13.2674 0.833313 13.0695 0.833313 12.8333ZM15.4375 13.6667C15.5625 13.5695 15.6597 13.4479 15.7291 13.3021C15.7986 13.1563 15.8333 12.9931 15.8333 12.8125V11.1667C15.8333 10.5556 15.6632 9.96876 15.3229 9.40626C14.9826 8.84376 14.5 8.36112 13.875 7.95834C14.5833 8.04168 15.25 8.18404 15.875 8.38543C16.5 8.58682 17.0833 8.83334 17.625 9.12501C18.125 9.40279 18.5069 9.71182 18.7708 10.0521C19.0347 10.3924 19.1666 10.7639 19.1666 11.1667V12.8333C19.1666 13.0695 19.0868 13.2674 18.9271 13.4271C18.7673 13.5868 18.5694 13.6667 18.3333 13.6667H15.4375ZM7.49998 7.00001C6.58331 7.00001 5.79859 6.67362 5.14581 6.02084C4.49304 5.36807 4.16665 4.58334 4.16665 3.66668C4.16665 2.75001 4.49304 1.96529 5.14581 1.31251C5.79859 0.659732 6.58331 0.333344 7.49998 0.333344C8.41665 0.333344 9.20137 0.659732 9.85415 1.31251C10.5069 1.96529 10.8333 2.75001 10.8333 3.66668C10.8333 4.58334 10.5069 5.36807 9.85415 6.02084C9.20137 6.67362 8.41665 7.00001 7.49998 7.00001ZM15.8333 3.66668C15.8333 4.58334 15.5069 5.36807 14.8541 6.02084C14.2014 6.67362 13.4166 7.00001 12.5 7.00001C12.3472 7.00001 12.1528 6.98265 11.9166 6.94793C11.6805 6.9132 11.4861 6.87501 11.3333 6.83334C11.7083 6.3889 11.9965 5.89584 12.1979 5.35418C12.3993 4.81251 12.5 4.25001 12.5 3.66668C12.5 3.08334 12.3993 2.52084 12.1979 1.97918C11.9965 1.43751 11.7083 0.944455 11.3333 0.50001C11.5278 0.430566 11.7222 0.385427 11.9166 0.364594C12.1111 0.34376 12.3055 0.333344 12.5 0.333344C13.4166 0.333344 14.2014 0.659732 14.8541 1.31251C15.5069 1.96529 15.8333 2.75001 15.8333 3.66668Z" fill="#069550"/>
</svg>
